<?xml version="1.0" encoding="utf-8"?>
<!-- Generator: Adobe Illustrator 16.0.4, SVG Export Plug-In . SVG Version: 6.00 Build 0)  -->
<!DOCTYPE svg PUBLIC "-//W3C//DTD SVG 1.1//EN" "http://www.w3.org/Graphics/SVG/1.1/DTD/svg11.dtd">
<svg version="1.1" id="Layer_1" xmlns="http://www.w3.org/2000/svg" xmlns:xlink="http://www.w3.org/1999/xlink" x="0px" y="0px"
	 width="408px" height="66.5px" viewBox="0 0 408 66.5" enable-background="new 0 0 408 66.5" xml:space="preserve">
<g>
	<path fill-rule="evenodd" clip-rule="evenodd" fill="#FFFFFF" d="M108.11,21.686c2.859,0.952,4.287,2.933,4.292,5.927
		c0,1.442-0.386,2.722-1.157,3.824c-0.754,1.087-1.777,1.857-3.067,2.317c-1.282,0.44-3.113,0.655-5.494,0.655H88.355V33.84
		c0.457-0.125,0.765-0.287,0.921-0.485c0.154-0.202,0.232-0.557,0.232-1.059V12.025c0-0.501-0.078-0.851-0.232-1.061
		c-0.157-0.215-0.465-0.371-0.921-0.479V9.905h14.672c1.441,0,2.633,0.115,3.568,0.346c0.949,0.227,1.784,0.598,2.508,1.13
		c1.656,1.18,2.485,2.886,2.485,5.098C111.589,18.84,110.429,20.57,108.11,21.686L108.11,21.686z M92.338,20.481h9.482
		c1.342,0,2.348-0.039,3.01-0.122c0.67-0.084,1.29-0.245,1.856-0.467c0.7-0.289,1.237-0.735,1.62-1.328
		c0.385-0.599,0.577-1.301,0.577-2.085c0-1.054-0.343-1.951-1.025-2.692c-0.555-0.584-1.276-0.984-2.162-1.206
		c-0.882-0.226-2.231-0.338-4.057-0.338h-9.302V20.481L92.338,20.481z M92.338,32.083h9.879c1.415,0,2.468-0.047,3.15-0.127
		c0.687-0.103,1.326-0.279,1.914-0.541c0.719-0.333,1.278-0.838,1.673-1.511c0.41-0.666,0.615-1.442,0.616-2.328
		c0-1.18-0.355-2.177-1.062-3.004c-0.591-0.678-1.343-1.137-2.255-1.38c-0.916-0.25-2.32-0.382-4.217-0.382h-9.698V32.083
		L92.338,32.083z"/>
	<path fill="#FFFFFF" d="M117.698,32.385V16.333c0-0.498-0.077-0.857-0.231-1.059c-0.165-0.202-0.465-0.363-0.922-0.481V14.31h4.885
		v0.482c-0.459,0.118-0.766,0.279-0.92,0.481c-0.152,0.202-0.232,0.561-0.232,1.059v16.052c0,0.494,0.08,0.846,0.232,1.057
		c0.154,0.2,0.461,0.368,0.92,0.488v0.479h-4.885V33.93c0.458-0.12,0.757-0.288,0.922-0.488
		C117.621,33.23,117.698,32.878,117.698,32.385L117.698,32.385z"/>
	<path fill-rule="evenodd" clip-rule="evenodd" fill="#FFFFFF" d="M137.417,13.88c3.59,0,6.487,0.932,8.685,2.798
		c2.348,1.972,3.515,4.586,3.515,7.825c0,2.027-0.573,3.883-1.727,5.563c-2.176,3.188-5.654,4.782-10.436,4.782
		c-3.567,0-6.456-0.939-8.649-2.802c-2.345-1.99-3.516-4.549-3.516-7.688c0-2.114,0.569-4.02,1.709-5.708
		c1.215-1.779,2.917-3.081,5.102-3.895C133.602,14.194,135.372,13.901,137.417,13.88L137.417,13.88z M137.417,15.959
		c-2.932,0-5.292,0.895-7.083,2.69c-1.564,1.558-2.347,3.464-2.347,5.708c0,2.254,0.783,4.157,2.347,5.708
		c1.79,1.795,4.165,2.691,7.119,2.691c2.952,0,5.329-0.896,7.116-2.691c1.562-1.551,2.345-3.419,2.347-5.599
		c0-2.353-0.784-4.294-2.347-5.817C142.77,16.88,140.384,15.986,137.417,15.959L137.417,15.959z"/>
	<path fill="#FFFFFF" d="M175.029,15.801l-2.252,3.857l-0.41-0.271c0.083-0.312,0.123-0.546,0.123-0.719
		c0-0.248-0.239-0.529-0.721-0.843c-1.938-1.243-4.207-1.866-6.813-1.866c-2.546,0-4.682,0.704-6.399,2.097
		c-1.92,1.567-2.885,3.622-2.885,6.156c0,2.759,1.065,4.95,3.193,6.592c1.671,1.307,3.663,1.952,5.983,1.952
		c2.62,0,4.893-0.751,6.829-2.274c0.759-0.597,1.138-1.037,1.138-1.31c0-0.209-0.104-0.508-0.308-0.924l0.419-0.264l2.809,3.591
		l-0.378,0.32c-0.423-0.369-0.721-0.552-0.902-0.552c-0.099,0-0.242,0.079-0.43,0.232c-1.482,1.146-2.968,1.977-4.454,2.496
		c-1.479,0.512-3.137,0.776-4.974,0.776c-3.209,0-5.854-0.862-7.93-2.589c-1.048-0.864-1.885-1.881-2.509-3.066
		c-0.793-1.509-1.188-3.133-1.188-4.866c0-3.291,1.292-5.943,3.874-7.958c2.151-1.657,4.856-2.489,8.112-2.489
		c2.885,0,5.642,0.698,8.269,2.118c0.23,0.116,0.408,0.174,0.525,0.174c0.255,0,0.538-0.202,0.849-0.61L175.029,15.801
		L175.029,15.801z"/>
	<path fill="#FFFFFF" d="M180.619,32.385V16.333c0-0.498-0.081-0.857-0.234-1.059c-0.157-0.202-0.465-0.363-0.922-0.481V14.31h4.887
		v0.482c-0.456,0.118-0.764,0.279-0.919,0.481c-0.155,0.202-0.23,0.561-0.23,1.059v16.052c0,0.494,0.075,0.846,0.23,1.057
		c0.156,0.2,0.463,0.368,0.919,0.488v0.479h-4.887V33.93c0.458-0.12,0.765-0.288,0.922-0.488
		C180.538,33.23,180.619,32.878,180.619,32.385L180.619,32.385z"/>
	<path fill="#FFFFFF" d="M192.422,25.01v7.444h12.473c0.505,0,0.861-0.073,1.063-0.23c0.216-0.154,0.382-0.47,0.488-0.936h0.507
		v4.27h-0.507c-0.105-0.452-0.265-0.754-0.468-0.915c-0.201-0.153-0.559-0.235-1.067-0.235h-16.218V33.93
		c0.468-0.12,0.777-0.288,0.917-0.488c0.159-0.211,0.235-0.563,0.235-1.057V16.333c0-0.498-0.076-0.857-0.235-1.059
		c-0.154-0.202-0.463-0.363-0.917-0.481V14.31h16.095c0.505,0,0.858-0.084,1.062-0.236c0.205-0.153,0.366-0.462,0.49-0.918h0.481
		v4.268h-0.481c-0.125-0.465-0.286-0.769-0.49-0.929c-0.204-0.153-0.558-0.23-1.062-0.23h-12.366v6.785h7.878
		c0.503,0,0.857-0.077,1.063-0.238c0.203-0.155,0.368-0.458,0.488-0.915h0.485v4.275h-0.485c-0.12-0.465-0.292-0.779-0.503-0.933
		c-0.207-0.157-0.556-0.229-1.047-0.229H192.422L192.422,25.01z"/>
	<path fill="#FFFFFF" d="M213.996,17.445v14.939c0,0.494,0.076,0.846,0.219,1.057c0.156,0.2,0.47,0.368,0.936,0.488v0.479h-4.45
		V33.93c0.464-0.12,0.776-0.288,0.918-0.488c0.154-0.211,0.235-0.563,0.235-1.057V16.333c0-0.498-0.082-0.857-0.235-1.059
		c-0.155-0.202-0.463-0.363-0.918-0.481V14.31h6.559v0.482c-0.626,0.202-0.936,0.513-0.936,0.934c0,0.359,0.229,0.792,0.684,1.291
		l11.917,13.292V16.333c0-0.498-0.08-0.857-0.237-1.059s-0.462-0.363-0.92-0.481V14.31h4.452v0.482
		c-0.456,0.118-0.763,0.279-0.919,0.481c-0.157,0.202-0.236,0.561-0.236,1.059v16.052c0,0.494,0.073,0.846,0.219,1.057
		c0.153,0.2,0.468,0.368,0.937,0.488v0.479h-5.28V33.93c0.623-0.149,0.938-0.404,0.938-0.735c0-0.247-0.289-0.702-0.865-1.351
		L213.996,17.445L213.996,17.445z"/>
	<path fill="#FFFFFF" d="M258.121,15.801l-2.253,3.857l-0.418-0.271c0.084-0.312,0.126-0.546,0.132-0.719
		c0-0.248-0.243-0.529-0.724-0.843c-1.938-1.243-4.207-1.866-6.813-1.866c-2.547,0-4.683,0.704-6.399,2.097
		c-1.918,1.567-2.883,3.622-2.883,6.156c0,2.759,1.062,4.95,3.191,6.592c1.665,1.307,3.664,1.952,5.983,1.952
		c2.618,0,4.896-0.751,6.83-2.274c0.756-0.597,1.137-1.037,1.137-1.31c0-0.209-0.104-0.508-0.305-0.924l0.413-0.264l2.81,3.591
		l-0.378,0.32c-0.421-0.369-0.722-0.552-0.899-0.552c-0.099,0-0.242,0.079-0.432,0.232c-1.479,1.146-2.965,1.977-4.455,2.496
		c-1.479,0.512-3.137,0.776-4.973,0.776c-3.211,0-5.853-0.862-7.931-2.589c-1.048-0.864-1.883-1.881-2.508-3.066
		c-0.791-1.509-1.188-3.133-1.188-4.866c0-3.291,1.291-5.943,3.875-7.958c2.153-1.657,4.853-2.489,8.111-2.489
		c2.884,0,5.642,0.698,8.273,2.118c0.229,0.116,0.402,0.174,0.521,0.174c0.252,0,0.536-0.202,0.848-0.61L258.121,15.801
		L258.121,15.801z"/>
	<path fill="#FFFFFF" d="M263.711,32.385V16.333c0-0.498-0.082-0.857-0.238-1.059c-0.157-0.202-0.463-0.363-0.922-0.481V14.31h4.887
		v0.482c-0.456,0.118-0.765,0.279-0.918,0.481c-0.162,0.202-0.237,0.561-0.237,1.059v16.052c0,0.494,0.075,0.846,0.237,1.057
		c0.153,0.2,0.462,0.368,0.918,0.488v0.479h-4.887V33.93c0.459-0.12,0.765-0.288,0.922-0.488
		C263.629,33.23,263.707,32.878,263.711,32.385L263.711,32.385z"/>
	<path fill-rule="evenodd" clip-rule="evenodd" fill="#FFFFFF" d="M286.146,28.762h-10.58l-1.53,3.373
		c-0.195,0.415-0.288,0.731-0.288,0.935c0,0.404,0.31,0.694,0.935,0.86v0.479h-4.976V33.93c0.481-0.079,0.853-0.268,1.121-0.56
		c0.275-0.297,0.598-0.86,0.972-1.688l6.689-14.468c0.371-0.805,0.557-1.349,0.557-1.652c0-0.413-0.303-0.672-0.904-0.769V14.31
		h5.859v0.482c-0.6,0.133-0.9,0.387-0.9,0.769c0,0.232,0.24,0.864,0.721,1.925l6.414,13.909c0.436,0.924,0.808,1.564,1.118,1.904
		c0.313,0.343,0.712,0.56,1.195,0.63v0.479h-5.265V33.93c0.561-0.12,0.847-0.328,0.847-0.614c0-0.142-0.147-0.542-0.436-1.182
		L286.146,28.762L286.146,28.762z M285.299,26.805l-4.414-9.846l-4.455,9.846H285.299L285.299,26.805z"/>
	<path fill="#FFFFFF" d="M90.346,44.935v4.182h5.335c0.255,0,0.432-0.039,0.534-0.116c0.107-0.082,0.189-0.232,0.241-0.454h0.29
		v2.313h-0.29c-0.052-0.226-0.134-0.383-0.241-0.46c-0.103-0.075-0.279-0.118-0.534-0.118h-5.335v4.679
		c0,0.248,0.036,0.428,0.11,0.527c0.078,0.099,0.237,0.184,0.465,0.248v0.281h-2.566v-0.281c0.23-0.064,0.381-0.149,0.462-0.248
		c0.075-0.1,0.115-0.279,0.115-0.527V44.823c0-0.252-0.041-0.426-0.115-0.529c-0.081-0.105-0.232-0.187-0.462-0.238v-0.285h10.006
		c0.249,0,0.426-0.041,0.527-0.115c0.111-0.079,0.191-0.24,0.243-0.474h0.289v2.321h-0.289c-0.052-0.234-0.132-0.382-0.243-0.451
		c-0.101-0.08-0.278-0.117-0.527-0.117H90.346L90.346,44.935z"/>
	<path fill="#FFFFFF" d="M102.17,46.979v5.161c0,0.8,0.042,1.351,0.118,1.655c0.08,0.295,0.251,0.558,0.512,0.752
		c0.541,0.428,1.469,0.642,2.777,0.642c1.45,0,2.43-0.259,2.939-0.788c0.19-0.194,0.307-0.435,0.368-0.724
		c0.06-0.294,0.091-0.808,0.091-1.537v-5.161c0-0.239-0.039-0.423-0.116-0.521c-0.079-0.109-0.234-0.188-0.459-0.248v-0.244h2.225
		v0.244c-0.227,0.06-0.383,0.139-0.459,0.242c-0.079,0.099-0.12,0.284-0.12,0.527v5.427c0,0.917-0.076,1.565-0.236,1.947
		c-0.264,0.644-0.743,1.12-1.448,1.432c-0.703,0.303-1.671,0.455-2.903,0.455c-1.766,0-3.005-0.327-3.71-0.981
		c-0.346-0.308-0.574-0.66-0.696-1.052c-0.112-0.39-0.167-0.988-0.167-1.801v-5.427c0-0.243-0.039-0.429-0.121-0.527
		c-0.076-0.104-0.228-0.183-0.458-0.242v-0.244h2.441v0.244c-0.228,0.06-0.38,0.139-0.459,0.248
		C102.213,46.556,102.17,46.739,102.17,46.979L102.17,46.979z"/>
	<path fill="#FFFFFF" d="M114.248,47.532v7.474c0,0.244,0.034,0.42,0.109,0.53c0.077,0.103,0.232,0.183,0.466,0.248v0.232h-2.225
		v-0.232c0.234-0.065,0.386-0.146,0.457-0.248c0.08-0.11,0.12-0.286,0.12-0.53v-8.027c0-0.243-0.041-0.429-0.12-0.527
		c-0.078-0.104-0.23-0.183-0.457-0.242v-0.244h3.281v0.244c-0.316,0.103-0.47,0.257-0.47,0.461c0,0.188,0.113,0.4,0.342,0.65
		l5.956,6.646v-6.987c0-0.243-0.039-0.429-0.118-0.527c-0.077-0.104-0.23-0.183-0.457-0.242v-0.244h2.226v0.244
		c-0.229,0.06-0.381,0.139-0.458,0.242c-0.081,0.099-0.118,0.284-0.118,0.527v8.027c0,0.244,0.032,0.42,0.104,0.53
		c0.083,0.103,0.236,0.183,0.472,0.248v0.232h-2.642v-0.232c0.312-0.082,0.469-0.207,0.469-0.374c0-0.131-0.144-0.348-0.432-0.673
		L114.248,47.532L114.248,47.532z"/>
	<path fill-rule="evenodd" clip-rule="evenodd" fill="#FFFFFF" d="M126.097,55.006v-8.027c0-0.239-0.04-0.423-0.119-0.521
		c-0.07-0.109-0.223-0.188-0.458-0.248v-0.244h5.101c1.362,0,2.379,0.164,3.048,0.475c0.829,0.409,1.474,1.069,1.944,1.996
		c0.41,0.8,0.615,1.651,0.615,2.562c0,1.053-0.274,2.033-0.812,2.908c-0.468,0.775-1.064,1.317-1.788,1.636
		c-0.713,0.321-1.716,0.475-3.008,0.475h-5.101v-0.232c0.235-0.065,0.388-0.146,0.458-0.248
		C126.058,55.426,126.097,55.25,126.097,55.006L126.097,55.006z M127.389,55.042h3.163c1.194,0,2.068-0.16,2.622-0.487
		c0.612-0.349,1.067-0.911,1.371-1.672c0.224-0.567,0.331-1.197,0.331-1.885c0-1.233-0.317-2.214-0.951-2.946
		c-0.342-0.403-0.776-0.689-1.294-0.856c-0.512-0.16-1.206-0.249-2.079-0.249h-3.163V55.042L127.389,55.042z"/>
	<path fill-rule="evenodd" clip-rule="evenodd" fill="#FFFFFF" d="M145.33,53.192h-5.29l-0.769,1.689
		c-0.097,0.207-0.14,0.362-0.14,0.462c0,0.206,0.153,0.344,0.468,0.44v0.232h-2.488v-0.232c0.24-0.046,0.425-0.144,0.559-0.284
		c0.14-0.146,0.3-0.435,0.484-0.848l3.346-7.232c0.185-0.402,0.277-0.681,0.277-0.827c0-0.205-0.152-0.336-0.448-0.384v-0.244h2.928
		v0.244c-0.301,0.064-0.447,0.195-0.447,0.384c0,0.116,0.119,0.442,0.359,0.96l3.206,6.96c0.219,0.458,0.403,0.782,0.56,0.954
		c0.154,0.172,0.352,0.271,0.594,0.317v0.232h-2.629v-0.232c0.279-0.065,0.422-0.171,0.422-0.312c0-0.072-0.071-0.27-0.217-0.591
		L145.33,53.192L145.33,53.192z M144.907,52.214l-2.21-4.919l-2.225,4.919H144.907L144.907,52.214z"/>
	<path fill="#FFFFFF" d="M160.353,46.715l-1.126,1.929l-0.206-0.145c0.042-0.153,0.059-0.271,0.059-0.355
		c0-0.124-0.12-0.264-0.357-0.423c-0.969-0.613-2.103-0.928-3.409-0.928c-1.275,0-2.338,0.348-3.197,1.051
		c-0.962,0.786-1.443,1.806-1.443,3.083c0,1.367,0.527,2.467,1.594,3.293c0.835,0.651,1.834,0.969,2.991,0.969
		c1.312,0,2.447-0.377,3.415-1.13c0.382-0.309,0.571-0.522,0.571-0.665c0-0.101-0.05-0.246-0.153-0.454l0.206-0.133l1.405,1.798
		l-0.19,0.159c-0.207-0.182-0.358-0.278-0.449-0.278c-0.049,0-0.12,0.04-0.216,0.119c-0.738,0.568-1.479,0.981-2.228,1.245
		c-0.738,0.263-1.563,0.39-2.486,0.39c-1.602,0-2.924-0.438-3.964-1.296c-0.522-0.431-0.941-0.938-1.253-1.537
		c-0.395-0.753-0.595-1.562-0.595-2.431c0-1.648,0.646-2.967,1.937-3.975c1.076-0.836,2.431-1.248,4.055-1.248
		c1.442,0,2.823,0.351,4.139,1.06c0.113,0.058,0.2,0.086,0.261,0.086c0.123,0,0.266-0.1,0.421-0.306L160.353,46.715L160.353,46.715z
		"/>
	<path fill="#FFFFFF" d="M163.146,55.006v-8.027c0-0.243-0.042-0.429-0.12-0.527c-0.077-0.104-0.232-0.183-0.456-0.242v-0.244h2.443
		v0.244c-0.233,0.06-0.385,0.139-0.462,0.242c-0.08,0.099-0.12,0.284-0.12,0.527v8.027c0,0.244,0.04,0.42,0.12,0.53
		c0.077,0.103,0.229,0.183,0.462,0.248v0.232h-2.443v-0.232c0.224-0.065,0.379-0.146,0.456-0.248
		C163.104,55.426,163.146,55.25,163.146,55.006L163.146,55.006z"/>
	<path fill-rule="evenodd" clip-rule="evenodd" fill="#FFFFFF" d="M173.002,45.753c1.797,0,3.248,0.468,4.345,1.396
		c1.172,0.989,1.755,2.298,1.755,3.919c0,1.008-0.285,1.937-0.863,2.777c-1.087,1.596-2.825,2.395-5.216,2.395
		c-1.786,0-3.227-0.471-4.324-1.404c-1.171-0.995-1.761-2.273-1.761-3.837c0-1.064,0.287-2.015,0.858-2.86
		c0.605-0.886,1.456-1.545,2.55-1.95C171.096,45.908,171.982,45.763,173.002,45.753L173.002,45.753z M173.002,46.793
		c-1.461,0-2.644,0.451-3.539,1.345c-0.786,0.772-1.171,1.732-1.171,2.86c0,1.119,0.385,2.073,1.171,2.847
		c0.895,0.904,2.083,1.344,3.56,1.344c1.48,0,2.661-0.439,3.559-1.344c0.783-0.773,1.17-1.713,1.17-2.796
		c0-1.179-0.387-2.153-1.17-2.911C175.679,47.257,174.488,46.804,173.002,46.793L173.002,46.793z"/>
	<path fill="#FFFFFF" d="M182.675,47.532v7.474c0,0.244,0.035,0.42,0.106,0.53c0.079,0.103,0.235,0.183,0.472,0.248v0.232h-2.229
		v-0.232c0.235-0.065,0.39-0.146,0.46-0.248c0.08-0.11,0.116-0.286,0.116-0.53v-8.027c0-0.243-0.036-0.429-0.116-0.527
		c-0.081-0.104-0.232-0.183-0.46-0.242v-0.244h3.276v0.244c-0.307,0.103-0.463,0.257-0.463,0.461c0,0.188,0.114,0.4,0.339,0.65
		l5.958,6.646v-6.987c0-0.243-0.037-0.429-0.116-0.527c-0.082-0.104-0.231-0.183-0.461-0.242v-0.244h2.229v0.244
		c-0.233,0.06-0.388,0.139-0.464,0.242c-0.075,0.099-0.116,0.284-0.116,0.527v8.027c0,0.244,0.038,0.42,0.11,0.53
		c0.078,0.103,0.232,0.183,0.471,0.248v0.232h-2.646v-0.232c0.317-0.082,0.47-0.207,0.47-0.374c0-0.131-0.142-0.348-0.43-0.673
		L182.675,47.532L182.675,47.532z"/>
	<path fill="#FFFFFF" d="M209.348,46.715l-1.127,1.929l-0.204-0.145c0.04-0.153,0.061-0.271,0.061-0.355
		c0-0.124-0.122-0.264-0.358-0.423c-0.968-0.613-2.105-0.928-3.407-0.928c-1.276,0-2.343,0.348-3.201,1.051
		c-0.96,0.786-1.441,1.806-1.441,3.083c0,1.367,0.531,2.467,1.594,3.293c0.837,0.651,1.832,0.969,2.991,0.969
		c1.311,0,2.449-0.377,3.415-1.13c0.382-0.309,0.572-0.522,0.572-0.665c0-0.101-0.056-0.246-0.155-0.454l0.207-0.133l1.401,1.798
		l-0.185,0.159c-0.21-0.182-0.359-0.278-0.453-0.278c-0.047,0-0.121,0.04-0.217,0.119c-0.736,0.568-1.479,0.981-2.224,1.245
		c-0.74,0.263-1.568,0.39-2.487,0.39c-1.605,0-2.928-0.438-3.971-1.296c-0.519-0.431-0.937-0.938-1.246-1.537
		c-0.398-0.753-0.598-1.562-0.598-2.431c0-1.648,0.646-2.967,1.939-3.975c1.075-0.836,2.425-1.248,4.056-1.248
		c1.44,0,2.819,0.351,4.135,1.06c0.116,0.058,0.198,0.086,0.264,0.086c0.123,0,0.265-0.1,0.421-0.306L209.348,46.715L209.348,46.715
		z"/>
	<path fill="#FFFFFF" d="M212.143,55.006v-8.027c0-0.243-0.039-0.429-0.12-0.527c-0.075-0.104-0.229-0.183-0.456-0.242v-0.244h2.441
		v0.244c-0.229,0.06-0.383,0.139-0.463,0.242c-0.077,0.099-0.113,0.284-0.113,0.527v8.027c0,0.244,0.036,0.42,0.113,0.53
		c0.08,0.103,0.234,0.183,0.463,0.248v0.232h-2.441v-0.232c0.227-0.065,0.381-0.146,0.456-0.248
		C212.104,55.426,212.143,55.25,212.143,55.006L212.143,55.006z"/>
	<path fill="#FFFFFF" d="M218.046,51.315v3.727h6.233c0.256,0,0.43-0.041,0.534-0.117c0.104-0.078,0.186-0.229,0.239-0.468h0.257
		v2.138h-0.257c-0.054-0.225-0.132-0.378-0.23-0.459c-0.101-0.078-0.281-0.119-0.531-0.119h-8.113v-0.232
		c0.238-0.065,0.389-0.146,0.463-0.248c0.076-0.11,0.111-0.286,0.111-0.53v-8.027c0-0.243-0.035-0.429-0.111-0.527
		c-0.082-0.104-0.232-0.183-0.463-0.242v-0.244h8.047c0.256,0,0.431-0.036,0.534-0.116c0.102-0.08,0.181-0.23,0.24-0.453h0.243v2.13
		h-0.243c-0.06-0.23-0.139-0.385-0.24-0.468c-0.104-0.079-0.278-0.111-0.534-0.111h-6.179v3.391h3.937
		c0.256,0,0.428-0.036,0.535-0.116c0.099-0.079,0.18-0.231,0.241-0.456h0.247v2.138h-0.247c-0.062-0.235-0.146-0.392-0.253-0.466
		c-0.104-0.079-0.275-0.121-0.523-0.121H218.046L218.046,51.315z"/>
	<path fill="#FFFFFF" d="M228.83,47.532v7.474c0,0.244,0.035,0.42,0.11,0.53c0.078,0.103,0.233,0.183,0.469,0.248v0.232h-2.229
		v-0.232c0.236-0.065,0.389-0.146,0.462-0.248c0.077-0.11,0.115-0.286,0.115-0.53v-8.027c0-0.243-0.038-0.429-0.115-0.527
		c-0.08-0.104-0.231-0.183-0.462-0.242v-0.244h3.284v0.244c-0.312,0.103-0.472,0.257-0.472,0.461c0,0.188,0.113,0.4,0.344,0.65
		l5.958,6.646v-6.987c0-0.243-0.041-0.429-0.117-0.527c-0.077-0.104-0.231-0.183-0.46-0.242v-0.244h2.225v0.244
		c-0.227,0.06-0.38,0.139-0.456,0.242c-0.081,0.099-0.123,0.284-0.123,0.527v8.027c0,0.244,0.036,0.42,0.109,0.53
		c0.08,0.103,0.233,0.183,0.47,0.248v0.232h-2.64v-0.232c0.311-0.082,0.468-0.207,0.468-0.374c0-0.131-0.143-0.348-0.432-0.673
		L228.83,47.532L228.83,47.532z"/>
	<path fill="#FFFFFF" d="M244.764,47.001v8.005c0,0.244,0.039,0.42,0.109,0.53c0.075,0.103,0.233,0.183,0.47,0.248v0.232h-2.445
		v-0.232c0.228-0.065,0.385-0.146,0.46-0.248c0.078-0.11,0.118-0.286,0.118-0.53v-8.005h-3.291c-0.249,0-0.43,0.035-0.529,0.112
		c-0.104,0.082-0.186,0.237-0.244,0.472h-0.244v-2.131h0.244c0.059,0.219,0.141,0.372,0.244,0.452c0.1,0.073,0.28,0.108,0.529,0.108
		h7.87c0.253,0,0.432-0.035,0.534-0.108c0.102-0.08,0.18-0.233,0.241-0.452h0.242v2.131h-0.242c-0.062-0.234-0.14-0.39-0.252-0.472
		c-0.104-0.077-0.28-0.112-0.523-0.112H244.764L244.764,47.001z"/>
	<path fill="#FFFFFF" d="M250.884,55.006v-8.027c0-0.243-0.042-0.429-0.116-0.527c-0.082-0.104-0.231-0.183-0.461-0.242v-0.244
		h2.443v0.244c-0.229,0.06-0.383,0.139-0.461,0.242c-0.076,0.099-0.117,0.284-0.117,0.527v8.027c0,0.244,0.041,0.42,0.117,0.53
		c0.078,0.103,0.231,0.183,0.461,0.248v0.232h-2.443v-0.232c0.229-0.065,0.379-0.146,0.461-0.248
		C250.842,55.426,250.884,55.25,250.884,55.006L250.884,55.006z"/>
	<path fill="#FFFFFF" d="M256.785,51.311v3.695c0,0.244,0.039,0.42,0.117,0.53c0.08,0.103,0.23,0.183,0.463,0.248v0.232h-2.446
		v-0.232c0.229-0.065,0.385-0.146,0.462-0.248c0.077-0.11,0.115-0.286,0.117-0.53v-8.027c0-0.243-0.04-0.429-0.117-0.527
		c-0.077-0.104-0.232-0.183-0.462-0.242v-0.244h8.202c0.244,0,0.422-0.036,0.523-0.116c0.108-0.08,0.194-0.23,0.252-0.453h0.244
		v2.13h-0.244c-0.058-0.23-0.144-0.385-0.252-0.468c-0.102-0.079-0.279-0.111-0.523-0.111h-6.336v3.382h4.118
		c0.253,0,0.432-0.039,0.534-0.117c0.101-0.085,0.182-0.228,0.242-0.468h0.243v2.136h-0.243c-0.061-0.223-0.142-0.38-0.242-0.458
		c-0.103-0.075-0.281-0.11-0.534-0.11H256.785L256.785,51.311z"/>
	<path fill="#FFFFFF" d="M266.386,55.006v-8.027c0-0.243-0.042-0.429-0.121-0.527c-0.079-0.104-0.232-0.183-0.456-0.242v-0.244
		h2.441v0.244c-0.228,0.06-0.382,0.139-0.46,0.242c-0.08,0.099-0.118,0.284-0.118,0.527v8.027c0,0.244,0.038,0.42,0.118,0.53
		c0.078,0.103,0.232,0.183,0.46,0.248v0.232h-2.441v-0.232c0.224-0.065,0.377-0.146,0.456-0.248
		C266.344,55.426,266.386,55.25,266.386,55.006L266.386,55.006z"/>
	<path fill="#FFFFFF" d="M281.207,46.715l-1.124,1.929l-0.212-0.145c0.048-0.153,0.065-0.271,0.065-0.355
		c0-0.124-0.121-0.264-0.361-0.423c-0.968-0.613-2.101-0.928-3.404-0.928c-1.273,0-2.343,0.348-3.198,1.051
		c-0.964,0.786-1.443,1.806-1.443,3.083c0,1.367,0.533,2.467,1.599,3.293c0.833,0.651,1.829,0.969,2.985,0.969
		c1.312,0,2.452-0.377,3.416-1.13c0.38-0.309,0.571-0.522,0.571-0.665c0-0.101-0.053-0.246-0.151-0.454l0.205-0.133l1.405,1.798
		l-0.19,0.159c-0.21-0.182-0.359-0.278-0.45-0.278c-0.048,0-0.119,0.04-0.216,0.119c-0.737,0.568-1.481,0.981-2.228,1.245
		c-0.735,0.263-1.569,0.39-2.485,0.39c-1.604,0-2.924-0.438-3.964-1.296c-0.523-0.431-0.94-0.938-1.254-1.537
		c-0.396-0.753-0.597-1.562-0.597-2.431c0-1.648,0.648-2.967,1.938-3.975c1.076-0.836,2.428-1.248,4.057-1.248
		c1.443,0,2.819,0.351,4.135,1.06c0.114,0.058,0.202,0.086,0.262,0.086c0.125,0,0.268-0.1,0.425-0.306L281.207,46.715
		L281.207,46.715z"/>
	<path fill-rule="evenodd" clip-rule="evenodd" fill="#FFFFFF" d="M290.61,53.192h-5.292l-0.766,1.689
		c-0.098,0.207-0.146,0.362-0.146,0.462c0,0.206,0.155,0.344,0.469,0.44v0.232h-2.489v-0.232c0.242-0.046,0.429-0.144,0.558-0.284
		c0.141-0.146,0.304-0.435,0.489-0.848l3.343-7.232c0.188-0.402,0.279-0.681,0.279-0.827c0-0.205-0.149-0.336-0.449-0.384v-0.244
		h2.93v0.244c-0.299,0.064-0.45,0.195-0.45,0.384c0,0.116,0.12,0.442,0.357,0.96l3.211,6.96c0.214,0.458,0.401,0.782,0.559,0.954
		c0.154,0.172,0.353,0.271,0.596,0.317v0.232h-2.636v-0.232c0.283-0.065,0.427-0.171,0.427-0.312c0-0.072-0.074-0.27-0.217-0.591
		L290.61,53.192L290.61,53.192z M290.185,52.214l-2.207-4.919l-2.229,4.919H290.185L290.185,52.214z"/>
	<path fill="#FFFFFF" d="M304.145,51.587v3.419c0,0.244,0.032,0.42,0.105,0.53c0.081,0.103,0.233,0.183,0.473,0.248v0.232h-2.445
		v-0.232c0.228-0.065,0.383-0.146,0.459-0.248c0.08-0.11,0.118-0.286,0.118-0.53v-3.419l-3.109-4.042
		c-0.381-0.495-0.658-0.829-0.836-0.989c-0.184-0.153-0.395-0.273-0.643-0.347v-0.244h2.847v0.244
		c-0.262,0.042-0.394,0.154-0.394,0.34c0,0.167,0.081,0.356,0.243,0.564l2.654,3.476l2.408-3.467
		c0.174-0.24,0.255-0.424,0.255-0.559c0-0.2-0.136-0.32-0.405-0.354v-0.244h2.631v0.244c-0.27,0.089-0.52,0.242-0.75,0.461
		c-0.229,0.221-0.541,0.603-0.934,1.154L304.145,51.587L304.145,51.587z"/>
	<path fill="#FFFFFF" d="M324.898,46.715l-1.126,1.929l-0.209-0.145c0.042-0.153,0.063-0.271,0.063-0.355
		c0-0.124-0.119-0.264-0.362-0.423c-0.964-0.613-2.098-0.928-3.404-0.928c-1.276,0-2.341,0.348-3.201,1.051
		c-0.961,0.786-1.438,1.806-1.438,3.083c0,1.367,0.528,2.467,1.594,3.293c0.832,0.651,1.829,0.969,2.989,0.969
		c1.31,0,2.448-0.377,3.417-1.13c0.377-0.309,0.568-0.522,0.568-0.665c0-0.101-0.055-0.246-0.155-0.454l0.207-0.133l1.408,1.798
		l-0.192,0.159c-0.208-0.182-0.358-0.278-0.446-0.278c-0.052,0-0.124,0.04-0.22,0.119c-0.738,0.568-1.479,0.981-2.228,1.245
		c-0.738,0.263-1.568,0.39-2.487,0.39c-1.603,0-2.922-0.438-3.962-1.296c-0.523-0.431-0.939-0.938-1.253-1.537
		c-0.394-0.753-0.595-1.562-0.595-2.431c0-1.648,0.644-2.967,1.936-3.975c1.076-0.836,2.427-1.248,4.058-1.248
		c1.442,0,2.82,0.351,4.134,1.06c0.115,0.058,0.204,0.086,0.262,0.086c0.127,0,0.267-0.1,0.422-0.306L324.898,46.715L324.898,46.715
		z"/>
	<path fill="#FFFFFF" d="M328.781,46.979v5.161c0,0.8,0.039,1.351,0.116,1.655c0.079,0.295,0.253,0.558,0.516,0.752
		c0.538,0.428,1.465,0.642,2.775,0.642c1.449,0,2.427-0.259,2.937-0.788c0.188-0.194,0.312-0.435,0.367-0.724
		c0.066-0.294,0.092-0.808,0.095-1.537v-5.161c0-0.239-0.042-0.423-0.118-0.521c-0.08-0.109-0.233-0.188-0.463-0.248v-0.244h2.228
		v0.244c-0.229,0.06-0.38,0.139-0.459,0.242c-0.077,0.099-0.117,0.284-0.117,0.527v5.427c0,0.917-0.081,1.565-0.233,1.947
		c-0.266,0.644-0.747,1.12-1.45,1.432c-0.704,0.303-1.673,0.455-2.901,0.455c-1.766,0-3.005-0.327-3.714-0.981
		c-0.341-0.308-0.574-0.66-0.693-1.052c-0.112-0.39-0.171-0.988-0.171-1.801v-5.427c0-0.243-0.041-0.429-0.121-0.527
		c-0.075-0.104-0.225-0.183-0.455-0.242v-0.244h2.441v0.244c-0.229,0.06-0.383,0.139-0.462,0.248
		C328.82,46.556,328.781,46.739,328.781,46.979L328.781,46.979z"/>
	<path fill="#FFFFFF" d="M341.072,55.042h6.152c0.257,0,0.433-0.041,0.536-0.117c0.108-0.078,0.192-0.229,0.252-0.468h0.241v2.138
		h-0.241c-0.06-0.225-0.144-0.378-0.252-0.459c-0.104-0.078-0.279-0.119-0.536-0.119h-8.019v-0.232
		c0.23-0.065,0.381-0.146,0.462-0.248c0.077-0.11,0.116-0.286,0.116-0.53v-8.027c0-0.243-0.039-0.429-0.116-0.527
		c-0.081-0.104-0.231-0.183-0.462-0.242v-0.244h2.442v0.244c-0.226,0.06-0.379,0.139-0.458,0.242
		c-0.077,0.099-0.118,0.284-0.118,0.527V55.042L341.072,55.042z"/>
	<path fill="#FFFFFF" d="M354.195,47.001v8.005c0,0.244,0.034,0.42,0.108,0.53c0.076,0.103,0.229,0.183,0.466,0.248v0.232h-2.439
		v-0.232c0.225-0.065,0.383-0.146,0.458-0.248c0.081-0.11,0.114-0.286,0.116-0.53v-8.005h-3.29c-0.251,0-0.429,0.035-0.53,0.112
		c-0.099,0.082-0.18,0.237-0.239,0.472h-0.247v-2.131h0.247c0.06,0.219,0.141,0.372,0.239,0.452c0.102,0.073,0.279,0.108,0.53,0.108
		h7.869c0.254,0,0.426-0.035,0.533-0.108c0.101-0.08,0.181-0.233,0.244-0.452h0.243v2.131h-0.243
		c-0.063-0.234-0.147-0.39-0.255-0.472c-0.104-0.077-0.273-0.112-0.522-0.112H354.195L354.195,47.001z"/>
	<path fill="#FFFFFF" d="M361.405,46.979v5.161c0,0.8,0.037,1.351,0.115,1.655c0.077,0.295,0.249,0.558,0.516,0.752
		c0.541,0.428,1.462,0.642,2.774,0.642c1.448,0,2.426-0.259,2.938-0.788c0.185-0.194,0.309-0.435,0.366-0.724
		c0.063-0.294,0.095-0.808,0.095-1.537v-5.161c0-0.239-0.04-0.423-0.12-0.521c-0.079-0.109-0.231-0.188-0.459-0.248v-0.244h2.228
		v0.244c-0.23,0.06-0.384,0.139-0.464,0.242c-0.073,0.099-0.113,0.284-0.113,0.527v5.427c0,0.917-0.079,1.565-0.233,1.947
		c-0.267,0.644-0.749,1.12-1.457,1.432c-0.698,0.303-1.662,0.455-2.898,0.455c-1.766,0-3.004-0.327-3.713-0.981
		c-0.34-0.308-0.572-0.66-0.692-1.052c-0.115-0.39-0.175-0.988-0.175-1.801v-5.427c0-0.243-0.035-0.429-0.112-0.527
		c-0.081-0.104-0.232-0.183-0.462-0.242v-0.244h2.442v0.244c-0.228,0.06-0.383,0.139-0.46,0.248
		C361.442,46.556,361.405,46.739,361.405,46.979L361.405,46.979z"/>
	<path fill-rule="evenodd" clip-rule="evenodd" fill="#FFFFFF" d="M373.694,51.472v3.534c0,0.244,0.041,0.42,0.12,0.53
		c0.077,0.103,0.23,0.183,0.46,0.248v0.232h-2.44v-0.232c0.229-0.065,0.384-0.146,0.454-0.248c0.079-0.11,0.121-0.286,0.121-0.53
		v-8.027c0-0.243-0.042-0.429-0.121-0.527c-0.071-0.104-0.23-0.183-0.454-0.242v-0.244h5.992c0.675,0,1.229,0.047,1.656,0.147
		c0.429,0.09,0.807,0.259,1.128,0.48c0.695,0.491,1.042,1.208,1.042,2.151c0,0.776-0.242,1.382-0.728,1.831
		c-0.485,0.448-1.207,0.713-2.145,0.801l2.532,4.005c0.092,0.147,0.176,0.241,0.261,0.302c0.088,0.043,0.244,0.086,0.468,0.117
		v0.217h-2.499v-0.232c0.236-0.059,0.353-0.125,0.353-0.228c0-0.077-0.068-0.217-0.202-0.437l-2.328-3.648H373.694L373.694,51.472z
		 M373.694,50.487h3.845c0.616,0,1.075-0.018,1.386-0.061c0.311-0.048,0.577-0.126,0.79-0.251c0.474-0.265,0.714-0.72,0.714-1.378
		c0-0.62-0.225-1.1-0.666-1.412c-0.41-0.299-1.102-0.439-2.082-0.439h-3.986V50.487L373.694,50.487z"/>
	<path fill-rule="evenodd" clip-rule="evenodd" fill="#FFFFFF" d="M391.32,53.192h-5.292l-0.766,1.689
		c-0.097,0.207-0.146,0.362-0.146,0.462c0,0.206,0.156,0.344,0.47,0.44v0.232h-2.491v-0.232c0.24-0.046,0.428-0.144,0.561-0.284
		c0.142-0.146,0.305-0.435,0.489-0.848l3.341-7.232c0.189-0.402,0.279-0.681,0.279-0.827c0-0.205-0.151-0.336-0.451-0.384v-0.244
		h2.933v0.244c-0.303,0.064-0.452,0.195-0.452,0.384c0,0.116,0.12,0.442,0.359,0.96l3.208,6.96c0.217,0.458,0.401,0.782,0.562,0.954
		c0.15,0.172,0.354,0.271,0.592,0.317v0.232h-2.634v-0.232c0.286-0.065,0.427-0.171,0.427-0.312c0-0.072-0.073-0.27-0.22-0.591
		L391.32,53.192L391.32,53.192z M390.895,52.214l-2.21-4.919l-2.227,4.919H390.895L390.895,52.214z"/>
	<path fill="#FFFFFF" d="M397.418,55.042h6.157c0.251,0,0.429-0.041,0.533-0.117c0.104-0.078,0.188-0.229,0.247-0.468h0.246v2.138
		h-0.246c-0.06-0.225-0.144-0.378-0.247-0.459c-0.104-0.078-0.282-0.119-0.533-0.119h-8.026v-0.232
		c0.23-0.065,0.386-0.146,0.464-0.248c0.075-0.11,0.113-0.286,0.113-0.53v-8.027c0-0.243-0.038-0.429-0.113-0.527
		c-0.078-0.104-0.233-0.183-0.464-0.242v-0.244h2.447v0.244c-0.23,0.06-0.382,0.139-0.459,0.242
		c-0.08,0.099-0.119,0.284-0.119,0.527V55.042L397.418,55.042z"/>
</g>
<path fill-rule="evenodd" clip-rule="evenodd" fill="#FFFFFF" d="M37.014,32.06c-5.185-8.314-6.192-19.525-0.03-24.512
	c6.824-5.524,18.093-2.917,25.174,5.819c7.076,8.745,7.279,20.307,0.459,25.832c-6.142,4.973-15.713,3.631-22.761-3.106
	c5.125,8.287,4.502,17.89-1.637,22.863c-6.82,5.525-18.092,2.916-25.17-5.824c-7.079-8.742-7.284-20.304-0.46-25.829
	C18.751,22.31,29.877,25.319,37.014,32.06L37.014,32.06z M12.384,53.672C1.105,39.743,3.247,19.312,17.176,8.036
	C31.102-3.24,51.54-1.094,62.816,12.831c11.284,13.927,9.137,34.36-4.791,45.636C44.1,69.74,23.667,67.596,12.384,53.672
	L12.384,53.672z"/>
</svg>
