<?xml version="1.0" encoding="utf-8"?>
<!-- Generator: Adobe Illustrator 16.0.4, SVG Export Plug-In . SVG Version: 6.00 Build 0)  -->
<!DOCTYPE svg PUBLIC "-//W3C//DTD SVG 1.1//EN" "http://www.w3.org/Graphics/SVG/1.1/DTD/svg11.dtd">
<svg version="1.1" id="Layer_1" xmlns="http://www.w3.org/2000/svg" xmlns:xlink="http://www.w3.org/1999/xlink" x="0px" y="0px"
	 width="31.998px" height="31.998px" viewBox="0 0 31.998 31.998" enable-background="new 0 0 31.998 31.998" xml:space="preserve">
<path fill-rule="evenodd" clip-rule="evenodd" d="M15.71,15.414c-2.55-4.088-3.045-9.601-0.015-12.053
	c3.356-2.717,8.897-1.435,12.378,2.861c3.479,4.3,3.581,9.986,0.226,12.702c-3.019,2.446-7.726,1.786-11.191-1.527
	c2.52,4.076,2.214,8.796-0.805,11.241c-3.354,2.718-8.896,1.435-12.377-2.862c-3.48-4.299-3.581-9.985-0.226-12.701
	C6.729,10.619,12.201,12.1,15.71,15.414L15.71,15.414z M3.598,26.041c-5.546-6.848-4.492-16.895,2.356-22.44
	c6.848-5.545,16.897-4.489,22.444,2.358c5.548,6.849,4.492,16.896-2.355,22.44C19.194,33.943,9.146,32.888,3.598,26.041
	L3.598,26.041z"/>
</svg>
