<?xml version="1.0" encoding="utf-8"?>
<!-- Generator: Adobe Illustrator 16.0.4, SVG Export Plug-In . SVG Version: 6.00 Build 0)  -->
<!DOCTYPE svg PUBLIC "-//W3C//DTD SVG 1.1//EN" "http://www.w3.org/Graphics/SVG/1.1/DTD/svg11.dtd">
<svg version="1.1" id="Capa_1" xmlns="http://www.w3.org/2000/svg" xmlns:xlink="http://www.w3.org/1999/xlink" x="0px" y="0px"
	 width="32.38px" height="32.404px" viewBox="0 0.358 32.38 32.404" enable-background="new 0 0.358 32.38 32.404"
	 xml:space="preserve">
<g>
	<path d="M4.453,0.562c-2.351,0-4.264,1.913-4.266,4.266c0,2.353,1.914,4.266,4.266,4.266c2.352,0,4.264-1.914,4.264-4.266
		C8.717,2.476,6.804,0.562,4.453,0.562z"/>
	<path d="M7.654,10.809H1.25c-0.305,0-0.552,0.247-0.552,0.552v20.613c0,0.305,0.248,0.551,0.552,0.551h6.403
		c0.305,0,0.552-0.247,0.552-0.551V11.36C8.206,11.055,7.959,10.809,7.654,10.809z"/>
	<path d="M24.026,10.566c-2.344,0-4.403,0.713-5.66,1.877V11.36c0-0.305-0.248-0.552-0.552-0.552h-6.143
		c-0.305,0-0.552,0.247-0.552,0.552v20.613c0,0.305,0.247,0.551,0.552,0.551h6.398c0.305,0,0.551-0.247,0.551-0.551V21.775
		c0-2.926,0.539-4.74,3.225-4.74c2.646,0.003,2.844,1.948,2.844,4.915v10.023c0,0.305,0.247,0.551,0.552,0.551h6.401
		c0.304,0,0.552-0.247,0.552-0.551V20.666C32.193,15.963,31.266,10.566,24.026,10.566z"/>
</g>
</svg>
