<?xml version="1.0" encoding="utf-8"?>
<!-- Generator: Adobe Illustrator 16.0.4, SVG Export Plug-In . SVG Version: 6.00 Build 0)  -->
<!DOCTYPE svg PUBLIC "-//W3C//DTD SVG 1.1//EN" "http://www.w3.org/Graphics/SVG/1.1/DTD/svg11.dtd">
<svg version="1.1" id="Layer_1" xmlns="http://www.w3.org/2000/svg" xmlns:xlink="http://www.w3.org/1999/xlink" x="0px" y="0px"
	 width="107.635px" height="25.045px" viewBox="0 0 107.635 25.045" enable-background="new 0 0 107.635 25.045"
	 xml:space="preserve">
<g>
	<g>
		<path fill-rule="evenodd" clip-rule="evenodd" d="M21.383,18.928c-0.016-0.639-0.365-0.985-1.047-1.04v-1.763
			c2.195,0.054,3.311,0.99,3.349,2.81L21.383,18.928z M18.678,21.406c0.01,0.8,0.424,1.242,1.239,1.328v1.764
			c-2.383-0.064-3.585-1.096-3.606-3.092H18.678z M23.774,22.099c0,1.562-1.165,2.363-3.494,2.407V22.75h0.008
			c0.747,0.011,1.117-0.182,1.111-0.578c-0.005-0.397-0.532-0.755-1.578-1.072c-1.047-0.311-1.833-0.656-2.359-1.038
			c-0.526-0.381-0.798-0.891-0.813-1.529c0-1.562,1.108-2.367,3.325-2.414v1.763c-0.627,0.026-0.941,0.22-0.941,0.579
			c0.016,0.354,0.383,0.634,1.103,0.837c0.729,0.199,1.515,0.524,2.358,0.974C23.348,20.717,23.774,21.325,23.774,22.099z"/>
		<path fill-rule="evenodd" clip-rule="evenodd" d="M34.102,23.902l-0.982-3.366l0.942-4.193H36.3L34.102,23.902z M24.844,16.343
			h2.319l1.9,7.944h-1.731L24.844,16.343z M29.385,23.902l-0.813-3.446l1.151-4.113h1.771l2.327,7.944h-1.835l-1.376-5.264
			l-1.216,4.879H29.385z"/>
		<path fill-rule="evenodd" clip-rule="evenodd" d="M37.556,15.24v-1.876h2.423v1.876H37.556z M37.556,24.287v-7.953h2.399v7.953
			H37.556z"/>
		<path fill-rule="evenodd" clip-rule="evenodd" d="M46.29,18.928c-0.016-0.639-0.365-0.985-1.046-1.04v-1.763
			c2.195,0.054,3.312,0.99,3.349,2.81L46.29,18.928z M43.585,21.406c0.01,0.8,0.423,1.242,1.239,1.328v1.764
			c-2.383-0.064-3.585-1.096-3.606-3.092H43.585z M48.681,22.099c0,1.562-1.165,2.363-3.494,2.407V22.75h0.008
			c0.746,0.011,1.116-0.182,1.111-0.578c-0.005-0.397-0.531-0.755-1.578-1.072c-1.047-0.311-1.833-0.656-2.359-1.038
			c-0.526-0.381-0.797-0.891-0.812-1.529c0-1.562,1.108-2.367,3.325-2.414v1.763c-0.628,0.026-0.942,0.22-0.942,0.579
			c0.016,0.354,0.383,0.634,1.103,0.837c0.729,0.199,1.516,0.524,2.358,0.974C48.254,20.717,48.681,21.325,48.681,22.099z"/>
		<path fill-rule="evenodd" clip-rule="evenodd" d="M54.831,18.928c-0.016-0.639-0.365-0.985-1.046-1.04v-1.763
			c2.195,0.054,3.311,0.99,3.349,2.81L54.831,18.928z M52.126,21.406c0.011,0.8,0.424,1.242,1.24,1.328v1.764
			c-2.383-0.064-3.585-1.096-3.606-3.092H52.126z M57.222,22.099c0,1.562-1.165,2.363-3.493,2.407V22.75h0.008
			c0.746,0.011,1.116-0.182,1.111-0.578c-0.006-0.397-0.532-0.755-1.579-1.072c-1.046-0.311-1.833-0.656-2.358-1.038
			c-0.526-0.381-0.797-0.891-0.813-1.529c0-1.562,1.108-2.367,3.325-2.414v1.763c-0.628,0.026-0.941,0.22-0.941,0.579
			c0.015,0.354,0.383,0.634,1.102,0.837c0.73,0.199,1.516,0.524,2.359,0.974C56.795,20.717,57.222,21.325,57.222,22.099z"/>
		<path fill-rule="evenodd" clip-rule="evenodd" d="M58.373,21.97c-0.032-1.626,1.369-2.627,4.203-3.003v1.529
			c-1.111,0.29-1.686,0.693-1.724,1.208c0.017,0.666,0.261,0.987,0.733,0.966c0.408,0,0.738-0.04,0.991-0.12v1.488
			c-0.349,0.236-0.813,0.354-1.393,0.354C59.305,24.398,58.368,23.59,58.373,21.97z M63.099,18.637
			c0.021-0.536-0.25-0.792-0.813-0.765c-0.692,0-1.055,0.266-1.087,0.797h-2.423c-0.011-1.686,1.184-2.532,3.582-2.544
			c2.164,0.006,3.234,0.813,3.212,2.423v2.504c0,1.787,0.105,2.866,0.314,3.235h-2.439c-0.23-0.311-0.346-0.687-0.346-1.127V18.637z
			"/>
		<path fill-rule="evenodd" clip-rule="evenodd" d="M67.196,16.334h2.496v5.387c-0.043,0.734,0.287,1.105,0.99,1.109
			c0.204,0,0.397-0.073,0.58-0.225v1.418c-0.462,0.305-1.034,0.455-1.715,0.449c-1.524,0.011-2.302-0.906-2.334-2.752h-0.017V16.334
			z M74.095,16.334v7.953h-2.423v-7.953H74.095z"/>
		<path fill-rule="evenodd" clip-rule="evenodd" d="M80.415,18.928c-0.016-0.639-0.365-0.985-1.047-1.04v-1.763
			c2.195,0.054,3.311,0.99,3.349,2.81L80.415,18.928z M77.709,21.406c0.011,0.8,0.424,1.242,1.24,1.328v1.764
			c-2.383-0.064-3.585-1.096-3.606-3.092H77.709z M82.805,22.099c0,1.562-1.165,2.363-3.494,2.407V22.75h0.008
			c0.746,0.011,1.116-0.182,1.111-0.578c-0.006-0.397-0.532-0.755-1.578-1.072c-1.046-0.311-1.833-0.656-2.359-1.038
			c-0.526-0.381-0.797-0.891-0.813-1.529c0-1.562,1.108-2.367,3.325-2.414v1.763c-0.628,0.026-0.942,0.22-0.942,0.579
			c0.016,0.354,0.384,0.634,1.103,0.837c0.73,0.199,1.517,0.524,2.359,0.974C82.378,20.717,82.805,21.325,82.805,22.099z"/>
		<path fill-rule="evenodd" clip-rule="evenodd" d="M83.699,16.327h0.958v1.852h-0.958V16.327z M87.684,18.179v-1.852h1.038v1.852
			H87.684z M84.946,13.92h2.391v7.735c0,0.752,0.319,1.127,0.958,1.127c0.22,0,0.491-0.023,0.813-0.071l0.016,1.666
			c-0.113,0.021-0.265,0.042-0.458,0.063s-0.43,0.047-0.709,0.073c-2.007-0.011-3.011-0.913-3.011-2.705V13.92z"/>
		<path fill-rule="evenodd" clip-rule="evenodd" d="M93.101,17.067c0.451-0.585,1.121-0.859,2.012-0.821v2.036
			c-0.457-0.155-0.859-0.188-1.208-0.097c-0.348,0.092-0.617,0.274-0.805,0.548V17.067z M90.3,24.287v-7.944h2.423v7.944H90.3z"/>
		<path fill-rule="evenodd" clip-rule="evenodd" d="M95.991,21.97c-0.032-1.626,1.369-2.627,4.202-3.003v1.529
			c-1.111,0.29-1.686,0.693-1.722,1.208c0.016,0.666,0.26,0.987,0.732,0.966c0.408,0,0.738-0.04,0.99-0.12v1.488
			c-0.349,0.236-0.812,0.354-1.393,0.354C96.922,24.398,95.985,23.59,95.991,21.97z M100.716,18.637
			c0.021-0.536-0.249-0.792-0.813-0.765c-0.691,0-1.054,0.266-1.086,0.797h-2.423c-0.011-1.686,1.183-2.532,3.583-2.544
			c2.163,0.006,3.233,0.813,3.212,2.423v2.504c0,1.787,0.104,2.866,0.313,3.235h-2.438c-0.231-0.311-0.347-0.687-0.347-1.127V18.637
			z"/>
		<rect x="104.854" y="12.647" fill-rule="evenodd" clip-rule="evenodd" width="2.423" height="11.64"/>
	</g>
	<g>
		<path fill-rule="evenodd" clip-rule="evenodd" fill="#CF0A2C" d="M9.542,9.536c-0.788,0.784-1.753,0.646-2.524,0.646H3.355
			c-1.539,0-2.861,1.279-2.861,2.964v6.669c0,1.538,1.469,3.748,3.594,3.748h6.594c2.418,0,3.192-1.697,3.192-3.236v-3.304
			c0,0,0-1.593,0.604-2.311c0.717-0.851,1.757-0.83,2.528-0.83h3.664c1.538,0,2.86-1.278,2.86-2.964V4.25
			c0-1.539-1.469-3.749-3.594-3.749h-6.594c-2.417,0-3.192,1.698-3.192,3.236v2.773C10.151,6.511,10.42,8.661,9.542,9.536z"/>
	</g>
</g>
</svg>
