<?xml version="1.0" encoding="utf-8"?>
<!-- Generator: Adobe Illustrator 16.0.4, SVG Export Plug-In . SVG Version: 6.00 Build 0)  -->
<!DOCTYPE svg PUBLIC "-//W3C//DTD SVG 1.1//EN" "http://www.w3.org/Graphics/SVG/1.1/DTD/svg11.dtd">
<svg version="1.1" id="Layer_1" xmlns="http://www.w3.org/2000/svg" xmlns:xlink="http://www.w3.org/1999/xlink" x="0px" y="0px"
	 width="127.5px" height="48.357px" viewBox="0 0 127.5 48.357" enable-background="new 0 0 127.5 48.357" xml:space="preserve">
<g>
	<path fill-rule="evenodd" clip-rule="evenodd" d="M11.292,32.97c1.092,0.363,1.637,1.119,1.639,2.263
		c0,0.551-0.147,1.039-0.441,1.46c-0.288,0.415-0.679,0.709-1.171,0.885c-0.49,0.168-1.189,0.25-2.098,0.25H3.75v-0.217
		c0.174-0.048,0.292-0.109,0.352-0.186c0.059-0.077,0.089-0.213,0.089-0.404v-7.739c0-0.191-0.03-0.325-0.089-0.405
		c-0.06-0.082-0.177-0.142-0.352-0.183v-0.222h5.602c0.55,0,1.005,0.044,1.362,0.132c0.362,0.087,0.681,0.229,0.958,0.432
		c0.632,0.45,0.949,1.102,0.949,1.946C12.62,31.883,12.177,32.544,11.292,32.97L11.292,32.97z M5.271,32.51h3.62
		c0.513,0,0.897-0.016,1.149-0.047c0.256-0.032,0.492-0.094,0.708-0.179c0.267-0.109,0.473-0.28,0.619-0.507
		c0.147-0.229,0.22-0.496,0.22-0.796c0-0.402-0.131-0.745-0.391-1.028c-0.212-0.223-0.487-0.375-0.826-0.46
		c-0.337-0.086-0.852-0.129-1.549-0.129H5.271V32.51L5.271,32.51z M5.271,36.94h3.772c0.54,0,0.942-0.018,1.203-0.049
		c0.262-0.039,0.506-0.106,0.731-0.206c0.274-0.127,0.488-0.32,0.639-0.577c0.157-0.254,0.235-0.551,0.235-0.889
		c0-0.45-0.136-0.831-0.406-1.146c-0.226-0.26-0.513-0.435-0.861-0.527c-0.35-0.095-0.886-0.146-1.61-0.146H5.271V36.94L5.271,36.94
		z"/>
	<path d="M14.953,37.055v-6.129c0-0.19-0.029-0.327-0.088-0.404c-0.062-0.077-0.177-0.139-0.352-0.184v-0.185h1.865v0.185
		c-0.175,0.045-0.292,0.106-0.352,0.184c-0.058,0.077-0.089,0.214-0.089,0.404v6.129c0,0.188,0.031,0.322,0.089,0.403
		c0.059,0.076,0.176,0.141,0.352,0.187v0.183h-1.865v-0.183c0.175-0.046,0.29-0.11,0.352-0.187
		C14.923,37.377,14.953,37.244,14.953,37.055L14.953,37.055z"/>
	<path fill-rule="evenodd" clip-rule="evenodd" d="M22.481,29.99c1.371,0,2.477,0.355,3.316,1.068
		c0.896,0.753,1.342,1.751,1.342,2.987c0,0.774-0.219,1.482-0.66,2.124c-0.831,1.218-2.159,1.826-3.984,1.826
		c-1.362,0-2.464-0.358-3.302-1.07c-0.896-0.76-1.342-1.736-1.342-2.935c0-0.808,0.217-1.535,0.653-2.18
		c0.464-0.68,1.114-1.177,1.948-1.487C21.025,30.11,21.701,29.998,22.481,29.99L22.481,29.99z M22.481,30.784
		c-1.12,0-2.021,0.342-2.704,1.027c-0.597,0.595-0.896,1.322-0.896,2.18c0,0.86,0.299,1.587,0.896,2.179
		c0.683,0.686,1.59,1.027,2.718,1.027c1.127,0,2.035-0.342,2.717-1.027c0.597-0.592,0.895-1.306,0.896-2.138
		c0-0.898-0.299-1.64-0.896-2.221C24.525,31.135,23.614,30.793,22.481,30.784L22.481,30.784z"/>
	<path d="M36.842,30.723l-0.86,1.473l-0.157-0.104c0.032-0.119,0.047-0.209,0.047-0.274c0-0.095-0.091-0.202-0.275-0.322
		c-0.74-0.474-1.606-0.712-2.601-0.712c-0.972,0-1.788,0.269-2.443,0.801c-0.733,0.599-1.102,1.383-1.102,2.351
		c0,1.053,0.407,1.89,1.219,2.517c0.638,0.499,1.398,0.745,2.285,0.745c1,0,1.868-0.287,2.607-0.868
		c0.29-0.228,0.435-0.396,0.435-0.5c0-0.08-0.04-0.194-0.118-0.353l0.16-0.101l1.072,1.371l-0.144,0.122
		c-0.162-0.141-0.275-0.211-0.345-0.211c-0.038,0-0.092,0.03-0.164,0.089c-0.566,0.438-1.133,0.755-1.701,0.952
		c-0.564,0.196-1.198,0.297-1.899,0.297c-1.225,0-2.235-0.329-3.028-0.988c-0.4-0.33-0.719-0.719-0.958-1.171
		c-0.303-0.576-0.454-1.196-0.454-1.858c0-1.256,0.494-2.269,1.479-3.038c0.821-0.633,1.854-0.95,3.097-0.95
		c1.102,0,2.154,0.267,3.157,0.809c0.088,0.044,0.156,0.066,0.2,0.066c0.098,0,0.206-0.077,0.324-0.233L36.842,30.723L36.842,30.723
		z"/>
	<path d="M38.976,37.055v-6.129c0-0.19-0.031-0.327-0.089-0.404c-0.06-0.077-0.177-0.139-0.352-0.184v-0.185H40.4v0.185
		c-0.174,0.045-0.292,0.106-0.351,0.184c-0.059,0.077-0.088,0.214-0.088,0.404v6.129c0,0.188,0.029,0.322,0.088,0.403
		c0.06,0.076,0.177,0.141,0.351,0.187v0.183h-1.866v-0.183c0.175-0.046,0.292-0.11,0.352-0.187
		C38.945,37.377,38.976,37.244,38.976,37.055L38.976,37.055z"/>
	<path d="M43.483,34.239v2.843h4.762c0.192,0,0.329-0.028,0.406-0.088c0.083-0.059,0.146-0.18,0.187-0.357h0.193v1.631h-0.193
		c-0.041-0.173-0.101-0.288-0.179-0.35c-0.077-0.059-0.213-0.09-0.407-0.09h-6.192v-0.183c0.179-0.046,0.297-0.11,0.351-0.187
		c0.061-0.081,0.09-0.215,0.09-0.403v-6.129c0-0.19-0.029-0.327-0.09-0.404c-0.059-0.077-0.177-0.139-0.351-0.184v-0.185h6.146
		c0.193,0,0.328-0.032,0.406-0.09c0.078-0.059,0.14-0.177,0.187-0.351h0.184v1.63h-0.184c-0.047-0.178-0.109-0.294-0.187-0.355
		c-0.078-0.059-0.213-0.088-0.406-0.088h-4.721v2.591h3.008c0.192,0,0.328-0.029,0.406-0.091c0.077-0.06,0.14-0.175,0.186-0.35
		h0.185v1.633h-0.185c-0.046-0.178-0.111-0.298-0.192-0.356c-0.079-0.06-0.212-0.088-0.4-0.088H43.483L43.483,34.239z"/>
	<path d="M51.72,31.351v5.704c0,0.188,0.029,0.322,0.083,0.403c0.06,0.076,0.179,0.141,0.357,0.187v0.183h-1.699v-0.183
		c0.177-0.046,0.296-0.11,0.351-0.187c0.059-0.081,0.089-0.215,0.089-0.403v-6.129c0-0.19-0.031-0.327-0.089-0.404
		c-0.06-0.077-0.177-0.139-0.351-0.184v-0.185h2.504v0.185c-0.239,0.077-0.357,0.195-0.357,0.356c0,0.137,0.087,0.302,0.261,0.492
		l4.55,5.075v-5.336c0-0.19-0.031-0.327-0.091-0.404c-0.06-0.077-0.176-0.139-0.351-0.184v-0.185h1.7v0.185
		c-0.174,0.045-0.292,0.106-0.351,0.184c-0.06,0.077-0.09,0.214-0.09,0.404v6.129c0,0.188,0.028,0.322,0.084,0.403
		c0.059,0.076,0.178,0.141,0.357,0.187v0.183h-2.016v-0.183c0.238-0.058,0.358-0.154,0.358-0.281c0-0.094-0.11-0.268-0.331-0.516
		L51.72,31.351L51.72,31.351z"/>
	<path d="M68.567,30.723l-0.86,1.473l-0.159-0.104c0.032-0.119,0.048-0.209,0.05-0.274c0-0.095-0.093-0.202-0.276-0.322
		c-0.739-0.474-1.606-0.712-2.601-0.712c-0.972,0-1.788,0.269-2.443,0.801c-0.732,0.599-1.101,1.383-1.101,2.351
		c0,1.053,0.406,1.89,1.219,2.517c0.636,0.499,1.398,0.745,2.284,0.745c1,0,1.869-0.287,2.607-0.868
		c0.289-0.228,0.434-0.396,0.434-0.5c0-0.08-0.04-0.194-0.116-0.353l0.158-0.101l1.073,1.371l-0.144,0.122
		c-0.161-0.141-0.275-0.211-0.344-0.211c-0.038,0-0.092,0.03-0.165,0.089c-0.564,0.438-1.132,0.755-1.701,0.952
		c-0.564,0.196-1.198,0.297-1.898,0.297c-1.226,0-2.234-0.329-3.028-0.988c-0.4-0.33-0.719-0.719-0.958-1.171
		c-0.302-0.576-0.454-1.196-0.454-1.858c0-1.256,0.493-2.269,1.479-3.038c0.822-0.633,1.853-0.95,3.097-0.95
		c1.101,0,2.154,0.267,3.159,0.809c0.087,0.044,0.154,0.066,0.199,0.066c0.096,0,0.205-0.077,0.324-0.233L68.567,30.723
		L68.567,30.723z"/>
	<path d="M70.701,37.055v-6.129c0-0.19-0.031-0.327-0.091-0.404c-0.06-0.077-0.177-0.139-0.352-0.184v-0.185h1.866v0.185
		c-0.174,0.045-0.292,0.106-0.351,0.184c-0.062,0.077-0.09,0.214-0.09,0.404v6.129c0,0.188,0.029,0.322,0.09,0.403
		c0.059,0.076,0.177,0.141,0.351,0.187v0.183h-1.866v-0.183c0.175-0.046,0.292-0.11,0.352-0.187
		C70.669,37.377,70.7,37.244,70.701,37.055L70.701,37.055z"/>
	<path fill-rule="evenodd" clip-rule="evenodd" d="M79.267,35.671h-4.04l-0.584,1.288c-0.074,0.158-0.11,0.279-0.11,0.356
		c0,0.154,0.118,0.266,0.357,0.329v0.183h-1.9v-0.183c0.184-0.03,0.326-0.103,0.428-0.214c0.106-0.113,0.229-0.328,0.372-0.645
		l2.554-5.524c0.142-0.307,0.212-0.515,0.212-0.631c0-0.157-0.115-0.256-0.345-0.293v-0.185h2.237v0.185
		c-0.229,0.051-0.344,0.147-0.344,0.293c0,0.089,0.092,0.33,0.275,0.735l2.449,5.311c0.166,0.353,0.308,0.597,0.427,0.727
		c0.119,0.131,0.271,0.214,0.456,0.241v0.183h-2.01v-0.183c0.214-0.046,0.323-0.125,0.323-0.234c0-0.055-0.056-0.207-0.166-0.451
		L79.267,35.671L79.267,35.671z M78.943,34.924l-1.685-3.759l-1.701,3.759H78.943L78.943,34.924z"/>
	<path d="M4.51,41.846v1.597h2.037c0.097,0,0.165-0.015,0.204-0.044c0.041-0.031,0.072-0.089,0.092-0.174h0.111v0.884H6.843
		c-0.02-0.087-0.051-0.146-0.092-0.176c-0.04-0.028-0.107-0.045-0.204-0.045H4.51v1.786c0,0.095,0.014,0.163,0.042,0.201
		c0.03,0.038,0.09,0.07,0.178,0.095v0.107H3.75V45.97c0.088-0.024,0.146-0.057,0.176-0.095c0.029-0.038,0.044-0.106,0.044-0.201
		v-3.87c0-0.097-0.015-0.163-0.044-0.202c-0.031-0.041-0.088-0.071-0.176-0.091v-0.109h3.82c0.095,0,0.163-0.016,0.202-0.044
		c0.042-0.03,0.073-0.092,0.093-0.181h0.11v0.886h-0.11c-0.02-0.089-0.05-0.146-0.093-0.172c-0.039-0.03-0.106-0.045-0.202-0.045
		H4.51L4.51,41.846z"/>
	<path d="M9.024,42.626v1.971c0,0.306,0.016,0.516,0.045,0.632c0.03,0.113,0.096,0.213,0.195,0.287
		c0.207,0.164,0.561,0.245,1.06,0.245c0.554,0,0.928-0.099,1.123-0.301c0.072-0.074,0.117-0.166,0.14-0.276
		c0.023-0.112,0.035-0.309,0.035-0.587v-1.971c0-0.091-0.015-0.161-0.044-0.199c-0.03-0.041-0.089-0.071-0.175-0.094V42.24h0.85
		v0.094c-0.087,0.022-0.146,0.053-0.175,0.092c-0.03,0.038-0.046,0.108-0.046,0.201v2.072c0,0.351-0.029,0.598-0.09,0.743
		c-0.101,0.246-0.284,0.428-0.553,0.547c-0.269,0.115-0.638,0.174-1.108,0.174c-0.674,0-1.147-0.125-1.417-0.375
		c-0.132-0.117-0.219-0.252-0.266-0.401c-0.042-0.148-0.064-0.377-0.064-0.688v-2.072c0-0.093-0.015-0.163-0.046-0.201
		c-0.029-0.039-0.087-0.069-0.175-0.092V42.24h0.932v0.094c-0.087,0.022-0.145,0.053-0.175,0.094
		C9.041,42.465,9.024,42.536,9.024,42.626L9.024,42.626z"/>
	<path d="M13.635,42.838v2.854c0,0.093,0.013,0.16,0.042,0.202c0.029,0.039,0.088,0.07,0.178,0.095v0.089h-0.85v-0.089
		c0.089-0.024,0.147-0.056,0.174-0.095c0.03-0.042,0.046-0.109,0.046-0.202v-3.065c0-0.093-0.016-0.163-0.046-0.201
		c-0.03-0.039-0.088-0.069-0.174-0.092V42.24h1.252v0.094c-0.121,0.039-0.179,0.098-0.179,0.176c0,0.071,0.043,0.152,0.131,0.248
		l2.274,2.537v-2.668c0-0.093-0.015-0.163-0.045-0.201c-0.029-0.039-0.088-0.069-0.174-0.092V42.24h0.85v0.094
		c-0.087,0.022-0.146,0.053-0.175,0.092c-0.031,0.038-0.045,0.108-0.045,0.201v3.065c0,0.093,0.012,0.16,0.04,0.202
		c0.031,0.039,0.09,0.07,0.18,0.095v0.089h-1.009v-0.089c0.119-0.031,0.179-0.079,0.179-0.143c0-0.05-0.055-0.133-0.165-0.257
		L13.635,42.838L13.635,42.838z"/>
	<path fill-rule="evenodd" clip-rule="evenodd" d="M18.16,45.692v-3.065c0-0.091-0.015-0.161-0.045-0.199
		c-0.026-0.041-0.085-0.071-0.175-0.094V42.24h1.948c0.52,0,0.908,0.062,1.164,0.182c0.316,0.156,0.563,0.407,0.742,0.762
		c0.156,0.306,0.235,0.631,0.235,0.979c0,0.402-0.105,0.776-0.31,1.11c-0.179,0.296-0.406,0.503-0.682,0.624
		c-0.272,0.123-0.655,0.182-1.148,0.182h-1.948v-0.089c0.09-0.024,0.148-0.056,0.175-0.095C18.145,45.852,18.16,45.785,18.16,45.692
		L18.16,45.692z M18.653,45.706h1.208c0.456,0,0.79-0.062,1.001-0.187c0.234-0.133,0.408-0.348,0.523-0.638
		c0.085-0.217,0.126-0.457,0.126-0.72c0-0.471-0.121-0.846-0.363-1.125c-0.131-0.154-0.296-0.264-0.494-0.327
		c-0.195-0.062-0.46-0.095-0.794-0.095h-1.208V45.706L18.653,45.706z"/>
	<path fill-rule="evenodd" clip-rule="evenodd" d="M25.502,45h-2.02l-0.293,0.645c-0.037,0.079-0.054,0.139-0.054,0.177
		c0,0.078,0.059,0.131,0.179,0.168v0.089h-0.95v-0.089c0.091-0.018,0.162-0.055,0.213-0.108c0.054-0.056,0.115-0.166,0.185-0.323
		l1.278-2.762c0.07-0.153,0.105-0.26,0.105-0.315c0-0.079-0.058-0.129-0.171-0.146V42.24h1.118v0.094
		c-0.115,0.024-0.171,0.074-0.171,0.146c0,0.044,0.045,0.168,0.137,0.366l1.224,2.657c0.083,0.175,0.154,0.299,0.213,0.364
		c0.059,0.065,0.134,0.104,0.227,0.121v0.089H25.72v-0.089c0.107-0.024,0.161-0.065,0.161-0.119c0-0.027-0.027-0.103-0.083-0.226
		L25.502,45L25.502,45z M25.341,44.625l-0.844-1.878l-0.849,1.878H25.341L25.341,44.625z"/>
	<path d="M31.238,42.526l-0.43,0.736l-0.079-0.055c0.016-0.059,0.022-0.104,0.022-0.136c0-0.047-0.045-0.101-0.136-0.161
		c-0.37-0.234-0.803-0.354-1.302-0.354c-0.487,0-0.893,0.133-1.22,0.401c-0.368,0.3-0.551,0.689-0.551,1.177
		c0,0.522,0.202,0.942,0.609,1.257c0.319,0.249,0.7,0.37,1.142,0.37c0.501,0,0.934-0.144,1.304-0.432
		c0.146-0.117,0.218-0.199,0.218-0.253c0-0.039-0.019-0.095-0.058-0.174l0.079-0.051l0.536,0.687l-0.073,0.061
		c-0.079-0.069-0.137-0.106-0.171-0.106c-0.019,0-0.046,0.016-0.083,0.046c-0.282,0.217-0.564,0.375-0.851,0.476
		c-0.282,0.1-0.597,0.148-0.949,0.148c-0.611,0-1.116-0.167-1.513-0.495c-0.199-0.164-0.359-0.357-0.479-0.587
		c-0.151-0.287-0.227-0.596-0.227-0.928c0-0.629,0.247-1.133,0.739-1.518c0.411-0.319,0.928-0.477,1.548-0.477
		c0.551,0,1.078,0.134,1.58,0.404c0.043,0.022,0.077,0.033,0.1,0.033c0.047,0,0.102-0.038,0.161-0.116L31.238,42.526L31.238,42.526z
		"/>
	<path d="M32.305,45.692v-3.065c0-0.093-0.016-0.163-0.046-0.201c-0.029-0.039-0.088-0.069-0.174-0.092V42.24h0.933v0.094
		c-0.089,0.022-0.147,0.053-0.176,0.092c-0.03,0.038-0.046,0.108-0.046,0.201v3.065c0,0.093,0.016,0.16,0.046,0.202
		c0.029,0.039,0.087,0.07,0.176,0.095v0.089h-0.933v-0.089c0.086-0.024,0.145-0.056,0.174-0.095
		C32.289,45.852,32.305,45.785,32.305,45.692L32.305,45.692z"/>
	<path fill-rule="evenodd" clip-rule="evenodd" d="M36.068,42.159c0.687,0,1.24,0.179,1.659,0.533
		c0.447,0.378,0.67,0.877,0.67,1.496c0,0.385-0.109,0.739-0.33,1.061c-0.415,0.609-1.079,0.914-1.992,0.914
		c-0.682,0-1.232-0.18-1.651-0.536c-0.447-0.38-0.672-0.868-0.672-1.465c0-0.406,0.109-0.77,0.328-1.092
		c0.231-0.339,0.556-0.59,0.974-0.745C35.34,42.218,35.679,42.163,36.068,42.159L36.068,42.159z M36.068,42.556
		c-0.558,0-1.009,0.172-1.351,0.514c-0.3,0.295-0.447,0.661-0.447,1.092c0,0.427,0.147,0.791,0.447,1.087
		c0.342,0.345,0.795,0.513,1.359,0.513c0.565,0,1.016-0.168,1.359-0.513c0.299-0.296,0.447-0.654,0.447-1.067
		c0-0.45-0.148-0.822-0.447-1.111C37.09,42.733,36.635,42.56,36.068,42.556L36.068,42.556z"/>
	<path d="M39.761,42.838v2.854c0,0.093,0.013,0.16,0.041,0.202c0.03,0.039,0.089,0.07,0.18,0.095v0.089h-0.851v-0.089
		c0.09-0.024,0.149-0.056,0.176-0.095c0.03-0.042,0.044-0.109,0.044-0.202v-3.065c0-0.093-0.014-0.163-0.044-0.201
		c-0.031-0.039-0.088-0.069-0.176-0.092V42.24h1.251v0.094c-0.117,0.039-0.177,0.098-0.177,0.176c0,0.071,0.043,0.152,0.129,0.248
		l2.275,2.537v-2.668c0-0.093-0.014-0.163-0.044-0.201c-0.031-0.039-0.088-0.069-0.176-0.092V42.24h0.851v0.094
		c-0.089,0.022-0.148,0.053-0.177,0.092c-0.029,0.038-0.044,0.108-0.044,0.201v3.065c0,0.093,0.015,0.16,0.042,0.202
		c0.03,0.039,0.089,0.07,0.18,0.095v0.089h-1.01v-0.089c0.121-0.031,0.18-0.079,0.18-0.143c0-0.05-0.054-0.133-0.164-0.257
		L39.761,42.838L39.761,42.838z"/>
	<path d="M49.945,42.526l-0.431,0.736l-0.078-0.055c0.016-0.059,0.023-0.104,0.023-0.136c0-0.047-0.046-0.101-0.136-0.161
		c-0.37-0.234-0.804-0.354-1.301-0.354c-0.487,0-0.895,0.133-1.222,0.401c-0.366,0.3-0.55,0.689-0.55,1.177
		c0,0.522,0.203,0.942,0.608,1.257c0.32,0.249,0.699,0.37,1.142,0.37c0.5,0,0.935-0.144,1.304-0.432
		c0.146-0.117,0.218-0.199,0.218-0.253c0-0.039-0.021-0.095-0.059-0.174l0.079-0.051l0.535,0.687l-0.071,0.061
		c-0.08-0.069-0.137-0.106-0.173-0.106c-0.018,0-0.046,0.016-0.083,0.046c-0.281,0.217-0.565,0.375-0.85,0.476
		c-0.282,0.1-0.599,0.148-0.949,0.148c-0.613,0-1.118-0.167-1.516-0.495c-0.198-0.164-0.358-0.357-0.476-0.587
		c-0.152-0.287-0.229-0.596-0.229-0.928c0-0.629,0.247-1.133,0.74-1.518c0.411-0.319,0.926-0.477,1.549-0.477
		c0.55,0,1.076,0.134,1.579,0.404c0.044,0.022,0.076,0.033,0.101,0.033c0.047,0,0.102-0.038,0.161-0.116L49.945,42.526
		L49.945,42.526z"/>
	<path d="M51.012,45.692v-3.065c0-0.093-0.015-0.163-0.045-0.201c-0.029-0.039-0.087-0.069-0.174-0.092V42.24h0.932v0.094
		c-0.087,0.022-0.146,0.053-0.177,0.092c-0.029,0.038-0.043,0.108-0.043,0.201v3.065c0,0.093,0.014,0.16,0.043,0.202
		c0.031,0.039,0.09,0.07,0.177,0.095v0.089h-0.932v-0.089c0.087-0.024,0.146-0.056,0.174-0.095
		C50.997,45.852,51.012,45.785,51.012,45.692L51.012,45.692z"/>
	<path d="M53.266,44.283v1.423h2.38c0.098,0,0.164-0.016,0.204-0.045c0.04-0.029,0.071-0.088,0.091-0.179h0.098v0.816h-0.098
		c-0.02-0.086-0.05-0.145-0.087-0.175c-0.039-0.03-0.108-0.046-0.203-0.046h-3.098v-0.089c0.091-0.024,0.148-0.056,0.176-0.095
		c0.03-0.042,0.043-0.109,0.043-0.202v-3.065c0-0.093-0.014-0.163-0.043-0.201c-0.031-0.039-0.088-0.069-0.176-0.092V42.24h3.073
		c0.097,0,0.164-0.014,0.203-0.044c0.039-0.031,0.069-0.088,0.092-0.173h0.093v0.812h-0.093c-0.023-0.088-0.053-0.146-0.092-0.179
		c-0.039-0.03-0.106-0.042-0.203-0.042h-2.36v1.295h1.503c0.097,0,0.163-0.015,0.204-0.045c0.038-0.03,0.069-0.088,0.092-0.174
		h0.095v0.815h-0.095c-0.023-0.089-0.055-0.149-0.096-0.178c-0.04-0.03-0.105-0.046-0.2-0.046H53.266L53.266,44.283z"/>
	<path d="M57.384,42.838v2.854c0,0.093,0.013,0.16,0.042,0.202c0.03,0.039,0.089,0.07,0.179,0.095v0.089h-0.851v-0.089
		c0.09-0.024,0.148-0.056,0.176-0.095c0.029-0.042,0.044-0.109,0.044-0.202v-3.065c0-0.093-0.015-0.163-0.044-0.201
		c-0.031-0.039-0.088-0.069-0.176-0.092V42.24h1.253v0.094c-0.119,0.039-0.18,0.098-0.18,0.176c0,0.071,0.043,0.152,0.131,0.248
		l2.274,2.537v-2.668c0-0.093-0.016-0.163-0.045-0.201c-0.029-0.039-0.088-0.069-0.175-0.092V42.24h0.849v0.094
		c-0.086,0.022-0.145,0.053-0.174,0.092c-0.031,0.038-0.047,0.108-0.047,0.201v3.065c0,0.093,0.014,0.16,0.042,0.202
		c0.031,0.039,0.089,0.07,0.179,0.095v0.089h-1.007v-0.089c0.119-0.031,0.178-0.079,0.178-0.143c0-0.05-0.055-0.133-0.165-0.257
		L57.384,42.838L57.384,42.838z"/>
	<path d="M63.467,42.635v3.057c0,0.093,0.015,0.16,0.042,0.202c0.029,0.039,0.089,0.07,0.179,0.095v0.089h-0.934v-0.089
		c0.087-0.024,0.146-0.056,0.175-0.095c0.03-0.042,0.045-0.109,0.045-0.202v-3.057h-1.256c-0.095,0-0.165,0.014-0.202,0.043
		c-0.04,0.031-0.071,0.091-0.093,0.18H61.33v-0.813h0.094c0.022,0.084,0.054,0.143,0.093,0.173c0.038,0.028,0.107,0.042,0.202,0.042
		h3.004c0.097,0,0.165-0.014,0.204-0.042c0.039-0.03,0.069-0.089,0.092-0.173h0.092v0.813H65.02
		c-0.023-0.089-0.054-0.148-0.096-0.18c-0.04-0.029-0.107-0.043-0.2-0.043H63.467L63.467,42.635z"/>
	<path d="M65.804,45.692v-3.065c0-0.093-0.016-0.163-0.044-0.201c-0.031-0.039-0.088-0.069-0.176-0.092V42.24h0.933v0.094
		c-0.087,0.022-0.146,0.053-0.176,0.092c-0.03,0.038-0.045,0.108-0.045,0.201v3.065c0,0.093,0.015,0.16,0.045,0.202
		c0.03,0.039,0.088,0.07,0.176,0.095v0.089h-0.933v-0.089c0.087-0.024,0.145-0.056,0.176-0.095
		C65.788,45.852,65.804,45.785,65.804,45.692L65.804,45.692z"/>
	<path d="M68.057,44.281v1.411c0,0.093,0.015,0.16,0.045,0.202c0.031,0.039,0.088,0.07,0.177,0.095v0.089h-0.934v-0.089
		c0.087-0.024,0.147-0.056,0.176-0.095c0.03-0.042,0.044-0.109,0.045-0.202v-3.065c0-0.093-0.015-0.163-0.045-0.201
		c-0.029-0.039-0.089-0.069-0.176-0.092V42.24h3.132c0.093,0,0.161-0.014,0.2-0.044c0.041-0.031,0.074-0.088,0.096-0.173h0.093
		v0.812h-0.093c-0.022-0.088-0.055-0.146-0.096-0.179c-0.039-0.03-0.107-0.042-0.2-0.042h-2.419v1.291h1.572
		c0.097,0,0.165-0.015,0.204-0.045c0.039-0.032,0.069-0.087,0.092-0.179h0.093v0.815h-0.093c-0.023-0.085-0.054-0.145-0.092-0.175
		c-0.039-0.028-0.107-0.042-0.204-0.042H68.057L68.057,44.281z"/>
	<path d="M71.722,45.692v-3.065c0-0.093-0.016-0.163-0.046-0.201c-0.03-0.039-0.089-0.069-0.174-0.092V42.24h0.932v0.094
		c-0.087,0.022-0.146,0.053-0.175,0.092c-0.031,0.038-0.045,0.108-0.045,0.201v3.065c0,0.093,0.015,0.16,0.045,0.202
		c0.029,0.039,0.088,0.07,0.175,0.095v0.089h-0.932v-0.089c0.085-0.024,0.144-0.056,0.174-0.095
		C71.707,45.852,71.722,45.785,71.722,45.692L71.722,45.692z"/>
	<path d="M77.381,42.526l-0.429,0.736l-0.081-0.055c0.019-0.059,0.025-0.104,0.025-0.136c0-0.047-0.046-0.101-0.138-0.161
		c-0.37-0.234-0.802-0.354-1.3-0.354c-0.486,0-0.894,0.133-1.221,0.401c-0.368,0.3-0.551,0.689-0.551,1.177
		c0,0.522,0.204,0.942,0.61,1.257c0.318,0.249,0.698,0.37,1.14,0.37c0.501,0,0.936-0.144,1.304-0.432
		c0.145-0.117,0.218-0.199,0.218-0.253c0-0.039-0.02-0.095-0.058-0.174l0.078-0.051l0.537,0.687l-0.073,0.061
		c-0.08-0.069-0.137-0.106-0.172-0.106c-0.018,0-0.045,0.016-0.082,0.046c-0.282,0.217-0.566,0.375-0.851,0.476
		c-0.281,0.1-0.599,0.148-0.949,0.148c-0.612,0-1.116-0.167-1.513-0.495c-0.2-0.164-0.359-0.357-0.479-0.587
		c-0.151-0.287-0.228-0.596-0.228-0.928c0-0.629,0.247-1.133,0.74-1.518c0.411-0.319,0.927-0.477,1.548-0.477
		c0.551,0,1.077,0.134,1.579,0.404c0.043,0.022,0.077,0.033,0.1,0.033c0.048,0,0.103-0.038,0.162-0.116L77.381,42.526L77.381,42.526
		z"/>
	<path fill-rule="evenodd" clip-rule="evenodd" d="M80.971,45h-2.02l-0.292,0.645c-0.037,0.079-0.056,0.139-0.056,0.177
		c0,0.078,0.059,0.131,0.179,0.168v0.089h-0.95v-0.089c0.092-0.018,0.164-0.055,0.213-0.108c0.054-0.056,0.116-0.166,0.187-0.323
		l1.276-2.762c0.072-0.153,0.107-0.26,0.107-0.315c0-0.079-0.057-0.129-0.171-0.146V42.24h1.119v0.094
		c-0.114,0.024-0.172,0.074-0.172,0.146c0,0.044,0.046,0.168,0.137,0.366l1.226,2.657c0.082,0.175,0.153,0.299,0.213,0.364
		c0.059,0.065,0.135,0.104,0.228,0.121v0.089h-1.006v-0.089c0.108-0.024,0.163-0.065,0.163-0.119c0-0.027-0.028-0.103-0.083-0.226
		L80.971,45L80.971,45z M80.809,44.625l-0.842-1.878l-0.851,1.878H80.809L80.809,44.625z"/>
	<path d="M86.139,44.386v1.306c0,0.093,0.013,0.16,0.041,0.202c0.031,0.039,0.089,0.07,0.18,0.095v0.089h-0.934v-0.089
		c0.087-0.024,0.146-0.056,0.175-0.095c0.031-0.042,0.045-0.109,0.045-0.202v-1.306l-1.187-1.543
		c-0.146-0.189-0.251-0.316-0.319-0.378c-0.07-0.059-0.15-0.104-0.245-0.132V42.24h1.086v0.094c-0.1,0.016-0.15,0.059-0.15,0.129
		c0,0.064,0.031,0.137,0.093,0.216l1.014,1.327l0.919-1.323c0.066-0.093,0.097-0.162,0.097-0.214c0-0.076-0.052-0.122-0.155-0.135
		V42.24h1.004v0.094c-0.103,0.033-0.198,0.092-0.286,0.176c-0.087,0.084-0.207,0.229-0.356,0.44L86.139,44.386L86.139,44.386z"/>
	<path d="M94.062,42.526l-0.43,0.736l-0.08-0.055c0.016-0.059,0.024-0.104,0.024-0.136c0-0.047-0.045-0.101-0.138-0.161
		c-0.368-0.234-0.801-0.354-1.3-0.354c-0.487,0-0.894,0.133-1.222,0.401c-0.367,0.3-0.549,0.689-0.549,1.177
		c0,0.522,0.202,0.942,0.609,1.257c0.318,0.249,0.698,0.37,1.142,0.37c0.5,0,0.935-0.144,1.304-0.432
		c0.144-0.117,0.217-0.199,0.217-0.253c0-0.039-0.021-0.095-0.059-0.174l0.079-0.051l0.538,0.687l-0.073,0.061
		c-0.08-0.069-0.137-0.106-0.171-0.106c-0.019,0-0.047,0.016-0.083,0.046c-0.282,0.217-0.564,0.375-0.85,0.476
		c-0.282,0.1-0.599,0.148-0.95,0.148c-0.612,0-1.115-0.167-1.513-0.495c-0.2-0.164-0.358-0.357-0.478-0.587
		c-0.151-0.287-0.227-0.596-0.227-0.928c0-0.629,0.246-1.133,0.739-1.518c0.411-0.319,0.927-0.477,1.549-0.477
		c0.551,0,1.077,0.134,1.578,0.404c0.044,0.022,0.078,0.033,0.1,0.033c0.048,0,0.102-0.038,0.161-0.116L94.062,42.526L94.062,42.526
		z"/>
	<path d="M95.545,42.626v1.971c0,0.306,0.015,0.516,0.044,0.632c0.03,0.113,0.097,0.213,0.197,0.287
		c0.206,0.164,0.56,0.245,1.06,0.245c0.554,0,0.927-0.099,1.122-0.301c0.072-0.074,0.119-0.166,0.14-0.276
		c0.025-0.112,0.035-0.309,0.036-0.587v-1.971c0-0.091-0.016-0.161-0.045-0.199c-0.031-0.041-0.089-0.071-0.177-0.094V42.24h0.85
		v0.094c-0.087,0.022-0.145,0.053-0.175,0.092c-0.03,0.038-0.045,0.108-0.045,0.201v2.072c0,0.351-0.031,0.598-0.089,0.743
		c-0.102,0.246-0.285,0.428-0.554,0.547c-0.269,0.115-0.639,0.174-1.108,0.174c-0.674,0-1.147-0.125-1.417-0.375
		c-0.13-0.117-0.219-0.252-0.265-0.401c-0.043-0.148-0.065-0.377-0.065-0.688v-2.072c0-0.093-0.016-0.163-0.046-0.201
		c-0.029-0.039-0.086-0.069-0.174-0.092V42.24h0.932v0.094c-0.087,0.022-0.146,0.053-0.176,0.094
		C95.56,42.465,95.545,42.536,95.545,42.626L95.545,42.626z"/>
	<path d="M100.238,45.706h2.349c0.098,0,0.165-0.016,0.205-0.045c0.042-0.029,0.073-0.088,0.096-0.179h0.092v0.816h-0.092
		c-0.023-0.086-0.055-0.145-0.096-0.175c-0.04-0.03-0.106-0.046-0.205-0.046h-3.062v-0.089c0.088-0.024,0.146-0.056,0.176-0.095
		c0.03-0.042,0.044-0.109,0.044-0.202v-3.065c0-0.093-0.015-0.163-0.044-0.201c-0.031-0.039-0.088-0.069-0.176-0.092V42.24h0.933
		v0.094c-0.086,0.022-0.145,0.053-0.175,0.092c-0.03,0.038-0.045,0.108-0.045,0.201V45.706L100.238,45.706z"/>
	<path d="M105.248,42.635v3.057c0,0.093,0.013,0.16,0.042,0.202c0.029,0.039,0.088,0.07,0.178,0.095v0.089h-0.932v-0.089
		c0.086-0.024,0.146-0.056,0.175-0.095c0.031-0.042,0.043-0.109,0.044-0.202v-3.057H103.5c-0.096,0-0.164,0.014-0.203,0.043
		c-0.038,0.031-0.069,0.091-0.092,0.18h-0.094v-0.813h0.094c0.023,0.084,0.054,0.143,0.092,0.173
		c0.039,0.028,0.106,0.042,0.203,0.042h3.004c0.097,0,0.163-0.014,0.204-0.042c0.038-0.03,0.069-0.089,0.093-0.173h0.093v0.813
		H106.8c-0.024-0.089-0.056-0.148-0.097-0.18c-0.04-0.029-0.104-0.043-0.2-0.043H105.248L105.248,42.635z"/>
	<path d="M108.001,42.626v1.971c0,0.306,0.014,0.516,0.044,0.632c0.029,0.113,0.095,0.213,0.197,0.287
		c0.207,0.164,0.559,0.245,1.059,0.245c0.554,0,0.927-0.099,1.123-0.301c0.07-0.074,0.118-0.166,0.14-0.276
		c0.024-0.112,0.036-0.309,0.036-0.587v-1.971c0-0.091-0.016-0.161-0.046-0.199c-0.03-0.041-0.088-0.071-0.175-0.094V42.24h0.851
		v0.094c-0.088,0.022-0.146,0.053-0.177,0.092c-0.029,0.038-0.043,0.108-0.043,0.201v2.072c0,0.351-0.03,0.598-0.089,0.743
		c-0.102,0.246-0.286,0.428-0.556,0.547c-0.267,0.115-0.635,0.174-1.106,0.174c-0.674,0-1.147-0.125-1.418-0.375
		c-0.13-0.117-0.219-0.252-0.265-0.401c-0.044-0.148-0.066-0.377-0.066-0.688v-2.072c0-0.093-0.014-0.163-0.043-0.201
		c-0.031-0.039-0.088-0.069-0.176-0.092V42.24h0.933v0.094c-0.087,0.022-0.146,0.053-0.176,0.094
		C108.015,42.465,108.001,42.536,108.001,42.626L108.001,42.626z"/>
	<path fill-rule="evenodd" clip-rule="evenodd" d="M112.693,44.342v1.35c0,0.093,0.015,0.16,0.045,0.202
		c0.029,0.039,0.088,0.07,0.176,0.095v0.089h-0.932v-0.089c0.088-0.024,0.147-0.056,0.174-0.095c0.03-0.042,0.046-0.109,0.046-0.202
		v-3.065c0-0.093-0.016-0.163-0.046-0.201c-0.027-0.039-0.088-0.069-0.174-0.092V42.24h2.288c0.258,0,0.469,0.018,0.633,0.057
		c0.163,0.034,0.308,0.099,0.43,0.184c0.266,0.187,0.398,0.461,0.398,0.821c0,0.296-0.092,0.527-0.278,0.699
		c-0.186,0.171-0.46,0.271-0.819,0.306l0.967,1.528c0.035,0.057,0.067,0.093,0.1,0.115c0.034,0.017,0.093,0.033,0.179,0.045v0.083
		h-0.954v-0.089c0.09-0.022,0.135-0.048,0.135-0.087c0-0.029-0.026-0.083-0.078-0.166l-0.889-1.394H112.693L112.693,44.342z
		 M112.693,43.966h1.467c0.235,0,0.411-0.006,0.529-0.022c0.119-0.019,0.22-0.049,0.302-0.097c0.181-0.101,0.272-0.274,0.272-0.525
		c0-0.237-0.085-0.42-0.254-0.539c-0.157-0.114-0.42-0.168-0.795-0.168h-1.521V43.966L112.693,43.966z"/>
	<path fill-rule="evenodd" clip-rule="evenodd" d="M119.423,45h-2.021l-0.292,0.645c-0.037,0.079-0.056,0.139-0.056,0.177
		c0,0.078,0.06,0.131,0.18,0.168v0.089h-0.951v-0.089c0.092-0.018,0.163-0.055,0.213-0.108c0.055-0.056,0.117-0.166,0.187-0.323
		l1.276-2.762c0.072-0.153,0.106-0.26,0.106-0.315c0-0.079-0.058-0.129-0.172-0.146V42.24h1.12v0.094
		c-0.116,0.024-0.173,0.074-0.173,0.146c0,0.044,0.046,0.168,0.137,0.366l1.225,2.657c0.083,0.175,0.153,0.299,0.214,0.364
		c0.058,0.065,0.135,0.104,0.226,0.121v0.089h-1.005v-0.089c0.109-0.024,0.163-0.065,0.163-0.119c0-0.027-0.028-0.103-0.084-0.226
		L119.423,45L119.423,45z M119.26,44.625l-0.843-1.878l-0.85,1.878H119.26L119.26,44.625z"/>
	<path d="M121.751,45.706h2.351c0.096,0,0.164-0.016,0.204-0.045c0.039-0.029,0.071-0.088,0.094-0.179h0.094v0.816h-0.094
		c-0.022-0.086-0.055-0.145-0.094-0.175c-0.04-0.03-0.108-0.046-0.204-0.046h-3.064v-0.089c0.088-0.024,0.147-0.056,0.177-0.095
		c0.028-0.042,0.043-0.109,0.043-0.202v-3.065c0-0.093-0.015-0.163-0.043-0.201c-0.03-0.039-0.089-0.069-0.177-0.092V42.24h0.934
		v0.094c-0.088,0.022-0.146,0.053-0.175,0.092c-0.031,0.038-0.045,0.108-0.045,0.201V45.706L121.751,45.706z"/>
	<path fill-rule="evenodd" clip-rule="evenodd" d="M102.807,17.166c-2.681-4.3-3.202-10.098-0.016-12.677
		c3.529-2.857,9.357-1.508,13.02,3.01c3.659,4.522,3.765,10.502,0.237,13.359c-3.176,2.572-8.126,1.878-11.771-1.606
		c2.65,4.286,2.329,9.252-0.847,11.824c-3.527,2.857-9.357,1.508-13.018-3.012c-3.661-4.521-3.767-10.501-0.238-13.358
		C93.361,12.124,99.116,13.68,102.807,17.166L102.807,17.166z M90.069,28.343c-5.833-7.204-4.726-17.771,2.478-23.602
		c7.202-5.832,17.772-4.722,23.604,2.48c5.836,7.203,4.726,17.771-2.478,23.602C106.472,36.654,95.904,35.544,90.069,28.343
		L90.069,28.343z"/>
</g>
</svg>
