<?xml version="1.0" encoding="utf-8"?>
<!-- Generator: Adobe Illustrator 16.0.4, SVG Export Plug-In . SVG Version: 6.00 Build 0)  -->
<!DOCTYPE svg PUBLIC "-//W3C//DTD SVG 1.1//EN" "http://www.w3.org/Graphics/SVG/1.1/DTD/svg11.dtd">
<svg version="1.1" id="Layer_1" xmlns="http://www.w3.org/2000/svg" xmlns:xlink="http://www.w3.org/1999/xlink" x="0px" y="0px"
	 width="256.991px" height="70.144px" viewBox="0 0 256.991 70.144" enable-background="new 0 0 256.991 70.144"
	 xml:space="preserve">
<g>
	<rect x="84.884" y="8.011" fill="#020203" width="6.177" height="37.931"/>
	<polygon fill="#020203" points="130.347,33.316 105.528,8.01 102.711,8.01 102.711,45.941 108.889,45.941 108.889,20.582 
		133.706,45.941 136.523,45.941 136.523,8.01 130.347,8.01 	"/>
	<path fill="#020203" d="M186.541,26.976c0-7.965,5.418-13.493,13.492-13.493c4.552,0,8.562,1.734,10.676,3.739v-6.828
		c-2.493-1.68-6.395-2.926-10.946-2.926c-11.488,0-19.562,8.074-19.562,19.508c0,11.434,8.074,19.507,19.617,19.507
		c4.822,0,8.832-1.408,11.162-2.926V36.73c-2.222,2.113-6.395,3.738-10.892,3.738C191.959,40.468,186.541,34.941,186.541,26.976"/>
	<polygon fill="#020203" points="246.689,8.01 246.689,23.887 226.207,23.887 226.207,8.01 220.029,8.01 220.029,45.941 
		226.207,45.941 226.207,29.578 246.689,29.578 246.689,45.941 252.866,45.941 252.866,8.01 	"/>
	<polygon fill="#020203" points="158.362,8.01 141.999,45.941 148.48,45.941 159.663,19.467 170.937,45.941 177.545,45.941 
		161.18,8.01 	"/>
	<path fill="#020203" d="M59.208,12.517c-6.24-6.24-14.537-9.677-23.362-9.677c-8.825,0-17.122,3.437-23.362,9.677
		c-6.24,6.241-9.676,14.537-9.676,23.362s3.436,17.122,9.676,23.362c6.241,6.24,14.538,9.677,23.362,9.677
		c8.826,0,17.122-3.437,23.362-9.677c6.241-6.24,9.677-14.537,9.677-23.362S65.449,18.758,59.208,12.517 M35.846,5.874
		c3.295,0,6.507,0.528,9.543,1.542L39.769,22.85c-0.186-0.021-0.367-0.02-0.529,0.011c-0.408,0.076-0.592,0.305-0.675,0.483
		c-0.224,0.481-0.442,0.592-0.878,0.812c-0.186,0.093-0.397,0.2-0.649,0.355c-0.381,0.234-0.492,0.528-0.517,0.734
		c-0.068,0.557,0.39,1.043,0.443,1.097l0.047,0.047l0.062,0.023c0.131,0.046,0.687,0.217,1.264,0.371l-0.444,1.22
		c-0.414-0.036-0.574,0.032-0.831,0.236c-0.072,0.058-0.154,0.123-0.285,0.202c-0.165,0.101-0.294,0.2-0.399,0.28
		c-0.229,0.175-0.229,0.175-0.313,0.127c-0.084-0.048-0.112-0.12-0.154-0.244c-0.126-0.369-0.337-0.45-0.524-0.434
		c-0.05-0.103-0.104-0.291-0.133-0.393c-0.012-0.045-0.025-0.089-0.037-0.13c-0.1-0.327-0.52-0.547-1.006-0.802
		c-0.225-0.118-0.504-0.264-0.587-0.351c-0.027-0.027-0.038-0.045-0.043-0.055c0.008-0.02,0.031-0.058,0.045-0.081
		c0.021-0.036,0.047-0.078,0.067-0.125c0.141-0.329-0.208-0.711-0.49-0.938c0.087-0.068,0.205-0.147,0.342-0.226
		c0.499-0.285,0.538-0.577,0.579-1.212c0.02-0.303-0.133-0.535-0.279-0.701c0.032-0.006,0.068-0.012,0.107-0.018
		c0.034-0.005,0.08-0.012,0.137-0.021c1.187-0.17,2.834-0.462,3.446-1.021c0.618-0.565,0.445-1.076,0.362-1.321
		c-0.004-0.014-0.008-0.027-0.013-0.041c0.083-0.102,0.268-0.279,0.387-0.393c0.166-0.159,0.322-0.308,0.427-0.438
		c0.247-0.302,0.172-0.673,0.106-1c-0.03-0.152-0.062-0.311-0.067-0.468c-0.011-0.285,0.049-0.565,0.118-0.888
		c0.043-0.202,0.087-0.41,0.119-0.639c0.104-0.754-0.686-1.812-0.837-1.92c-0.023-0.017-0.054-0.035-0.09-0.056
		c-0.102-0.057-0.241-0.135-0.352-0.421c-0.056-0.145-0.043-0.193-0.043-0.194c0.009-0.02,0.08-0.076,0.122-0.108
		c0.027-0.021,0.054-0.042,0.081-0.064c0.105-0.087,0.105-0.087,0.218-0.096c0.025-0.002,0.052-0.004,0.082-0.007
		c0.32-0.031,0.46-0.305,0.596-0.57c0.064-0.126,0.137-0.27,0.237-0.418c0.055-0.083,0.201-0.301,0.111-0.533
		c-0.043-0.11-0.119-0.176-0.193-0.217c0.142-0.116,0.412-0.252,0.533-0.312c0.146-0.074,0.266-0.133,0.359-0.201
		c0.137,0.067,0.354,0.165,0.647,0.143c0.186-0.014,0.345-0.098,0.461-0.241c0.076-0.093,0.124-0.203,0.154-0.315
		c0.072,0.02,0.149,0.033,0.229,0.033h0.002c0.208,0,0.399-0.081,0.553-0.234c0.247-0.246,0.363-0.633,0.311-1.034
		C42.097,9.7,41.849,9.32,41.474,9.103c-0.435-0.252-1.301,0.031-1.573,0.187c-0.109,0.062-0.181,0.111-0.239,0.15
		c-0.094,0.064-0.132,0.091-0.29,0.141c-0.088,0.028-0.2,0.011-0.329-0.01c-0.165-0.025-0.352-0.054-0.545,0.011
		c-0.228,0.076-0.374,0.289-0.515,0.495c-0.086,0.125-0.206,0.298-0.287,0.336c-0.127,0.06-0.178,0.067-0.262,0.078
		c-0.091,0.012-0.203,0.027-0.379,0.092c-0.303,0.112-0.39,0.427-0.46,0.679c-0.023,0.082-0.059,0.212-0.092,0.269
		c-0.386,0.004-0.519,0.1-0.705,0.297c-0.059,0.063-0.133,0.14-0.259,0.243c-0.657,0.533-0.55,1.126-0.385,1.687
		c0.045,0.151-0.003,0.354-0.13,0.556c-0.158,0.252-0.391,0.425-0.524,0.447c-0.173,0.028-0.31,0.124-0.385,0.271
		c-0.179,0.349,0.058,0.828,0.386,1.491c0.111,0.224,0.226,0.455,0.313,0.665c0.268,0.645,0.014,1.12-0.246,1.515
		c-0.062,0.095-0.069,0.097-0.268,0.15c-0.207,0.056-0.521,0.141-1.015,0.412l-0.116,0.064c-0.325,0.178-0.521,0.285-0.634,0.3
		c-0.091,0.012-0.214-0.03-0.509-0.135c-0.059-0.021-0.124-0.044-0.194-0.069c-0.295-0.104-0.554-0.1-0.77,0.013
		c-0.355,0.183-0.469,0.582-0.561,0.903c-0.036,0.125-0.085,0.296-0.127,0.348c-0.092,0.111-0.545-0.015-0.715-0.062
		c-0.083-0.022-0.161-0.044-0.229-0.058c-0.101-0.021-0.415-0.225-0.602-0.347c-0.062-0.041-0.124-0.081-0.184-0.119L24.412,8.12
		C27.991,6.646,31.858,5.874,35.846,5.874 M51.045,27.618c0.129,0.107,0.316,0.109,0.446,0.004c0.2-0.162,0.46-0.315,0.593-0.355
		c0.021,0.029,0.044,0.059,0.067,0.089c-0.196,0.01-0.401,0.091-0.49,0.372c-0.113,0.357,0.213,0.61,0.53,0.854
		c0.07,0.054,0.172,0.133,0.241,0.195c-0.189,0.39-0.149,0.788,0.119,1.136c0.085,0.11,0.201,0.223,0.335,0.354
		c0.274,0.266,0.614,0.598,0.668,0.914c0.077,0.466,0.412,0.673,0.634,0.809c0.035,0.022,0.082,0.052,0.115,0.074
		c-0.033,0.07-0.099,0.152-0.164,0.232c-0.176,0.22-0.543,0.674-0.071,1.163c0.164,0.171,0.309,0.259,0.414,0.323
		c0.023,0.015,0.052,0.032,0.07,0.045c0.001,0.025,0,0.082-0.017,0.19c-0.041,0.254-0.033,0.467-0.026,0.638
		c0.012,0.298,0.008,0.39-0.137,0.535c-0.453,0.453-0.285,0.884-0.194,1.115c0.008,0.021,0.017,0.042,0.023,0.062
		c-0.239,0.165-0.234,0.415-0.18,0.609c0.043,0.151,0.108,0.258,0.15,0.327c0.007,0.011,0.016,0.024,0.022,0.035
		c-0.011,0.029-0.041,0.098-0.13,0.23c-0.312,0.463-0.06,0.982,0.143,1.4c0.127,0.262,0.27,0.557,0.215,0.72
		c-0.06,0.177-0.133,0.282-0.191,0.367c-0.072,0.105-0.181,0.264-0.117,0.468c0.07,0.226,0.291,0.309,0.522,0.396
		c0.104,0.039,0.211,0.074,0.314,0.107c0.055,0.018,0.121,0.038,0.184,0.061c-0.029,0.017-0.061,0.034-0.097,0.053
		c-0.849,0.446-1.043,0.605-1.01,1.145c0.003,0.049,0.006,0.104,0.006,0.17c-0.005,0.548,0.019,0.858,0.589,1.393
		c0.382,0.358,0.666,1.46,0.454,1.759c-0.089,0.125-0.204,0.204-0.324,0.286c-0.224,0.152-0.641,0.436-0.337,1.06
		c0.097,0.198,0.268,0.379,0.449,0.571c0.536,0.57,0.729,0.867,0.333,1.327c-0.266,0.308-0.425,0.586-0.566,0.832
		c-0.33,0.573-0.496,0.864-1.799,0.932c-0.228-0.026-0.795,0.039-1.578,1.038c-0.202,0.258-0.379,0.519-0.551,0.771
		c-0.273,0.404-0.614,0.907-0.815,0.938c-0.013,0.002-0.052,0.008-0.136-0.059c-0.688-0.541-0.952-1.074-1.135-1.57
		c-0.2-0.544-0.702-1.728-1.169-2.311c-0.247-0.309-0.645-0.37-0.992-0.151c-0.455,0.286-0.744,1.012-0.419,1.686
		c0.09,0.187,0.205,0.381,0.314,0.568c0.21,0.357,0.498,0.847,0.428,1.06c-0.019,0.059-0.083,0.111-0.188,0.157
		c-0.825,0.36-0.79,0.835-0.754,1.292c0.018,0.242,0.039,0.516-0.036,0.882c-0.23,1.12-0.382,1.546-1.18,1.911
		c-0.389,0.179-0.73,0.544-1.125,0.967c-0.712,0.763-1.519,1.627-2.849,1.712c-1.299,0.081-1.676,0.387-2.005,0.748
		c-0.154,0.169-0.232,0.256-0.633,0.273l-0.071,0.004c-0.746,0.036-1.978,0.095-2.274-0.035c-0.146-0.347-0.619-0.568-1.022-0.587
		c-0.438-0.018-0.784,0.191-0.922,0.563c-0.202,0.545-0.383,0.699-0.499,0.732c-0.146,0.041-0.341-0.077-0.479-0.184
		c-0.295-0.228-0.408-0.353-0.452-0.413c0.054-0.047,0.151-0.113,0.227-0.165c0.389-0.265,0.434-0.592,0.346-0.809
		c-0.169-0.421-0.788-0.543-1.838-0.366c-0.416,0.07-0.894,0.174-1.355,0.274c-0.667,0.145-1.632,0.354-2.022,0.341
		c0.074-0.419,0.123-0.894-0.208-1.16c-0.337-0.271-0.817-0.115-1.149,0.026c-0.247,0.104-0.444,0.206-0.619,0.295
		c-0.59,0.302-0.713,0.364-1.377-0.149c-1.03-0.798-2.117-1.918-2.127-1.93c-0.018-0.018-0.038-0.034-0.059-0.048
		c-0.174-0.116-0.354-0.299-0.387-0.39c0.011-0.01,0.031-0.024,0.065-0.041c0.383-0.196,0.685-0.351,0.716-0.667
		c0.03-0.32-0.213-0.512-0.698-0.893c-0.247-0.192-0.385-0.535-0.531-0.897c-0.221-0.546-0.471-1.165-1.169-1.391
		c-0.568-0.185-0.817-0.854-0.762-2.049c0.009-0.199,0.029-0.358,0.046-0.499c0.065-0.533,0.077-0.84-0.416-1.482
		c-0.139-0.181-0.327-0.649-0.408-1.248c-0.075-0.553-0.029-1.027,0.121-1.238c0.04-0.056,0.114-0.16,0.402-0.063
		c0.44,0.146,0.736,0.28,0.974,0.388c0.609,0.276,0.888,0.374,1.675,0.02c0.277-0.124,0.572-0.216,0.857-0.306
		c0.699-0.218,1.491-0.465,1.363-1.237c-0.119-0.722-0.127-1.138-0.022-1.238c0.006-0.006,0.047-0.014,0.127,0.003
		c0.245,0.052,0.308,0.133,0.396,0.244c0.23,0.293,0.473,0.426,1.036,0.243c0.564-0.184,0.76-0.373,0.968-0.573
		c0.121-0.117,0.247-0.237,0.483-0.392c0.212-0.138,0.346-0.131,0.516-0.122c0.326,0.018,0.644-0.01,0.934-0.515
		c0.245-0.426,0.302-1.063,0.356-1.681c0.036-0.399,0.076-0.853,0.168-1.02c0.228-0.414,0.482-0.939,0.602-1.188l1.043,0.007
		l-0.597,0.836c-0.113,0.153-0.069,0.37,0.095,0.466c0.154,0.092,0.354,0.038,0.442-0.118l0.624-1.18h0.002h2.551l-1.696,2.339
		l-1.32-0.188c-0.179-0.021-0.339,0.109-0.355,0.288c-0.018,0.189,0.131,0.353,0.321,0.351l1.027,0.008l-0.656,0.918l-1.487-0.172
		c-0.178-0.021-0.34,0.109-0.356,0.288c-0.017,0.188,0.132,0.353,0.322,0.351l1.197-0.012l-0.752,1.053l-1.502-0.175
		c-0.179-0.021-0.339,0.11-0.356,0.289c-0.018,0.188,0.132,0.352,0.322,0.35l1.213-0.012l-1.722,2.412l-0.355-1.384
		c-0.047-0.181-0.234-0.285-0.413-0.23c-0.177,0.055-0.273,0.246-0.211,0.42l0.535,1.512l-1.603-0.039
		c-0.185-0.005-0.337,0.146-0.334,0.331c0.003,0.187,0.161,0.332,0.347,0.32l1.436-0.092l-1.026,1.293
		c-0.115,0.146-0.086,0.358,0.064,0.468c0.15,0.109,0.362,0.071,0.464-0.084l0.911-1.376l0.358,1.393
		c0.046,0.181,0.234,0.285,0.412,0.23c0.177-0.055,0.273-0.246,0.211-0.42l-0.535-1.512l1.603,0.039
		c0.186,0.005,0.337-0.146,0.334-0.331c-0.002-0.187-0.161-0.333-0.347-0.32l-1.425,0.091l1.758-2.385l0.366,1.156
		c0.057,0.181,0.258,0.272,0.433,0.198c0.164-0.072,0.238-0.266,0.164-0.429l-0.632-1.375l0.767-1.04l0.361,1.141
		c0.058,0.181,0.258,0.271,0.433,0.197c0.165-0.071,0.239-0.265,0.163-0.428l-0.625-1.36l0.669-0.909l0.326,0.974
		c0.058,0.181,0.259,0.273,0.433,0.197c0.165-0.071,0.239-0.265,0.164-0.428l-0.587-1.196l0.001-0.002l1.964-2.708h0.115h0.021
		h0.121l1.964,2.708l0,0.002l-0.587,1.196c-0.076,0.163-0.001,0.356,0.164,0.428c0.174,0.076,0.375-0.017,0.433-0.197l0.326-0.974
		l0.669,0.909l-0.625,1.36c-0.075,0.163-0.001,0.356,0.164,0.428c0.174,0.074,0.375-0.017,0.432-0.197l0.361-1.141l0.767,1.04
		l-0.632,1.375c-0.075,0.163,0,0.356,0.164,0.429c0.174,0.074,0.375-0.018,0.432-0.198l0.366-1.156l1.758,2.385l-1.426-0.091
		c-0.186-0.013-0.344,0.134-0.347,0.32c-0.003,0.186,0.148,0.336,0.334,0.331l1.602-0.039l-0.535,1.512
		c-0.062,0.174,0.034,0.365,0.211,0.42c0.178,0.055,0.366-0.05,0.412-0.23l0.358-1.393l0.911,1.376
		c0.103,0.155,0.313,0.193,0.464,0.084c0.151-0.109,0.18-0.322,0.064-0.468l-1.025-1.293l1.436,0.092
		c0.186,0.012,0.344-0.134,0.347-0.32c0.002-0.186-0.149-0.336-0.334-0.331l-1.603,0.039l0.535-1.512
		c0.062-0.174-0.034-0.365-0.211-0.42c-0.178-0.055-0.366,0.05-0.413,0.23l-0.355,1.384l-1.722-2.412l1.213,0.012
		c0.19,0.002,0.34-0.161,0.321-0.35c-0.017-0.179-0.177-0.31-0.355-0.289l-1.502,0.175l-0.752-1.053l1.196,0.012
		c0.19,0.002,0.339-0.162,0.322-0.351c-0.017-0.179-0.178-0.31-0.356-0.288l-1.487,0.172l-0.656-0.918l1.027-0.008
		c0.19,0.002,0.339-0.161,0.321-0.351c-0.017-0.179-0.177-0.309-0.355-0.288l-1.321,0.188L35.5,38.697h2.546h0.002l0.624,1.18
		c0.087,0.156,0.288,0.21,0.442,0.118c0.164-0.096,0.207-0.312,0.094-0.466l-0.596-0.836l1.129-0.008l0.734,1.306
		c0.088,0.156,0.288,0.21,0.442,0.118c0.164-0.097,0.207-0.313,0.094-0.466l-0.711-0.962l1.293-0.01l0.742,1.319
		c0.087,0.156,0.288,0.21,0.442,0.118c0.164-0.097,0.207-0.313,0.094-0.466l-0.721-0.976l2.963-0.021l-0.911,1.1
		c-0.119,0.144-0.094,0.357,0.056,0.47c0.148,0.111,0.359,0.076,0.464-0.077l0.909-1.319l0.909,1.319
		c0.105,0.153,0.317,0.188,0.464,0.077c0.149-0.112,0.175-0.326,0.056-0.47l-0.917-1.107l1.649,0.07
		c0.186,0.008,0.341-0.141,0.341-0.326c0-0.187-0.155-0.335-0.341-0.327l-1.649,0.071l0.917-1.108
		c0.119-0.143,0.094-0.356-0.056-0.469c-0.147-0.111-0.359-0.076-0.464,0.076l-0.909,1.319l-0.909-1.319
		c-0.105-0.152-0.316-0.188-0.464-0.076c-0.149,0.112-0.175,0.326-0.056,0.469l0.911,1.101l-2.963-0.021l0.721-0.976
		c0.113-0.153,0.07-0.369-0.094-0.466c-0.154-0.092-0.354-0.038-0.442,0.118l-0.742,1.318l-1.293-0.01l0.711-0.961
		c0.113-0.153,0.069-0.369-0.094-0.466c-0.154-0.092-0.354-0.038-0.442,0.118l-0.734,1.305l-1.129-0.008l0.596-0.836
		c0.113-0.152,0.069-0.369-0.094-0.466c-0.154-0.092-0.354-0.038-0.442,0.119l-0.624,1.179h-2.54l1.743-2.24l1.313,0.231
		c0.178,0.027,0.342-0.098,0.365-0.276c0.024-0.188-0.12-0.355-0.31-0.36l-1.025-0.042l0.687-0.896l1.48,0.222
		c0.178,0.027,0.342-0.098,0.365-0.276c0.024-0.188-0.12-0.355-0.31-0.36l-1.197-0.029l0.787-1.025l1.496,0.224
		c0.178,0.027,0.343-0.098,0.365-0.276c0.024-0.188-0.12-0.356-0.31-0.36l-1.213-0.029l1.802-2.353l0.31,1.395
		c0.04,0.183,0.225,0.293,0.404,0.244c0.179-0.049,0.281-0.236,0.225-0.413l-0.484-1.528l1.601,0.093
		c0.185,0.011,0.342-0.135,0.345-0.32c0.003-0.186-0.15-0.337-0.335-0.331L42.173,29.4l1.068-1.258
		c0.12-0.142,0.098-0.355-0.049-0.47c-0.146-0.114-0.359-0.083-0.467,0.069l-0.957,1.345l-0.312-1.404
		c-0.04-0.182-0.225-0.293-0.404-0.244c-0.179,0.049-0.281,0.236-0.225,0.413l0.484,1.529l-1.6-0.094
		c-0.186-0.011-0.343,0.135-0.345,0.32c-0.003,0.186,0.15,0.337,0.335,0.332l1.429-0.044l-1.837,2.326l-0.327-1.169
		c-0.051-0.183-0.249-0.281-0.425-0.212c-0.167,0.065-0.248,0.256-0.178,0.422l0.585,1.396l-0.801,1.015l-0.322-1.152
		c-0.052-0.183-0.25-0.281-0.426-0.212c-0.167,0.066-0.247,0.256-0.178,0.422l0.58,1.381l-0.7,0.886l-0.293-0.983
		c-0.042-0.153-0.188-0.245-0.338-0.231l1.848-5.051c0.556-0.026,0.927-0.306,1.234-0.538c0.041-0.031,0.082-0.062,0.123-0.092
		c0.054-0.041,0.139-0.098,0.243-0.168c1.131-0.767,1.786-1.312,1.786-1.827c0-0.196,0.027-0.268,0.035-0.285
		c0.033-0.015,0.121-0.025,0.186-0.034c0.266-0.036,0.668-0.089,1.072-0.493c0.247-0.246,0.403-0.189,1.112,0.406
		c0.267,0.224,0.569,0.478,0.924,0.697c0.926,0.575,1.192,0.584,1.618,0.465c0.045-0.013,0.089-0.024,0.137-0.035
		c0.154,0.034,0.321,0.098,0.37,0.145c0.143,0.334,0.614,0.473,0.994,0.433c0.356-0.038,0.608-0.245,0.655-0.541
		c0.02-0.125,0.02-0.239,0.021-0.33c0-0.013,0.001-0.025,0.001-0.038c0.303,0.015,0.308,0.019,0.488,0.2
		c0.26,0.26,1.11,0.629,1.438,0.301c0.066-0.066,0.11-0.147,0.156-0.232c0.019-0.037,0.052-0.097,0.078-0.135
		c0.015,0.001,0.029,0.001,0.045,0.001c0.037,0,0.104,0.002,0.151,0.009c-0.008,0.068-0.047,0.23-0.221,0.541
		C50.883,27.326,50.917,27.509,51.045,27.618 M26.355,34.548c-0.148-0.195-0.395-0.237-0.567-0.251
		c-0.825-0.068-1.473-0.078-1.5-0.078c-0.12-0.002-0.233,0.058-0.298,0.158c-0.348,0.532-0.911,1.112-1.139,1.096
		c-0.032-0.003-0.079-0.064-0.12-0.156c-0.197-0.447-0.154-0.743-0.117-1.004c0.06-0.42,0.054-0.843-0.728-1.005
		c-0.421-0.088-0.784-0.051-1.048-0.023c-0.089,0.01-0.205,0.021-0.271,0.02c-0.003-0.021-0.007-0.052-0.008-0.096
		c-0.004-0.243-0.065-0.521-0.136-0.842c-0.17-0.774-0.382-1.738,0.229-2.359c1.358-1.381,2.384-2.511,2.22-3.434
		c-0.112-0.626,0.008-1.029,0.087-1.121c0.065,0.003,0.151,0.027,0.25,0.055c0.264,0.076,0.626,0.18,1.121,0.034
		c0.786-0.231,1.646-1.445,1.81-1.687c0.118-0.173,0.113-0.325,0.087-0.424c-0.062-0.237-0.277-0.345-0.467-0.438
		c-0.153-0.076-0.328-0.164-0.433-0.306c-0.058-0.078-0.118-0.194-0.076-0.306c0.046-0.119,0.204-0.22,0.424-0.268
		c0.17-0.036,0.323-0.05,0.47-0.062c0.403-0.035,0.859-0.075,1.111-0.689c0.226-0.548,0.525-0.863,0.633-0.89
		c0.052,0.023,0.113,0.056,0.18,0.096l4.654,13.214c-0.158-0.025-0.315,0.07-0.361,0.23l-0.293,0.983l-0.699-0.886l0.58-1.381
		c0.069-0.166-0.011-0.355-0.178-0.422c-0.176-0.069-0.375,0.029-0.425,0.212l-0.323,1.152l-0.801-1.015l0.585-1.396
		c0.07-0.166-0.01-0.356-0.177-0.422c-0.177-0.069-0.375,0.029-0.426,0.212l-0.328,1.169l-1.836-2.326l1.428,0.044
		c0.187,0.005,0.339-0.146,0.336-0.332c-0.003-0.186-0.159-0.331-0.345-0.32l-1.601,0.094l0.484-1.529
		c0.055-0.177-0.047-0.364-0.226-0.413s-0.363,0.062-0.404,0.244l-0.311,1.404l-0.957-1.345c-0.107-0.152-0.32-0.184-0.467-0.069
		c-0.146,0.114-0.168,0.328-0.048,0.47l1.068,1.258l-1.438-0.043c-0.187-0.006-0.34,0.146-0.336,0.331
		c0.004,0.186,0.161,0.331,0.345,0.32l1.601-0.093l-0.484,1.528c-0.056,0.177,0.046,0.364,0.225,0.413
		c0.18,0.049,0.364-0.062,0.405-0.244l0.309-1.395l1.802,2.353L28.214,32.6c-0.19,0.004-0.333,0.172-0.31,0.36
		c0.023,0.179,0.188,0.304,0.366,0.276l1.496-0.224l0.786,1.025l-1.196,0.029c-0.19,0.005-0.333,0.173-0.31,0.36
		c0.022,0.179,0.188,0.304,0.365,0.276l1.48-0.222l0.687,0.896l-1.026,0.042c-0.19,0.005-0.333,0.173-0.309,0.36
		c0.021,0.179,0.187,0.304,0.365,0.276l1.313-0.231l1.742,2.24H31.13l-0.624-1.179c-0.088-0.157-0.288-0.211-0.442-0.119
		c-0.164,0.097-0.208,0.313-0.095,0.466l0.597,0.836l-1.064,0.008l-0.681-1.271c-0.098-1.29-0.358-2.004-0.775-2.121
		c-0.141-0.04-0.414-0.052-0.676,0.314l-0.117,0.165c-0.043,0.062-0.086,0.121-0.122,0.17c-0.121-0.06-0.305-0.135-0.582-0.185
		c-0.056-0.009-0.093-0.02-0.119-0.028c0.002-0.013,0.005-0.026,0.007-0.037C26.461,34.957,26.502,34.743,26.355,34.548
		 M35.46,16.917c-0.096-0.231-0.215-0.473-0.331-0.706c-0.125-0.25-0.3-0.605-0.357-0.802c0.309-0.108,0.627-0.376,0.845-0.724
		c0.238-0.378,0.312-0.778,0.209-1.127c-0.17-0.575-0.117-0.725,0.155-0.945c0.161-0.131,0.257-0.231,0.326-0.305
		c0.026-0.028,0.059-0.063,0.063-0.067c0.006-0.002,0.04-0.012,0.164-0.012c0.519,0,0.66-0.508,0.735-0.781
		c0.021-0.071,0.049-0.174,0.072-0.225c0.076-0.025,0.125-0.031,0.185-0.04c0.109-0.015,0.244-0.032,0.471-0.14
		c0.251-0.119,0.417-0.36,0.563-0.572c0.053-0.077,0.131-0.19,0.174-0.229c0.044-0.005,0.138,0.01,0.203,0.02
		c0.18,0.028,0.403,0.062,0.648-0.016c0.238-0.076,0.337-0.137,0.472-0.229c0.052-0.036,0.106-0.073,0.19-0.121
		c0.241-0.139,0.755-0.233,0.875-0.189c0.185,0.107,0.308,0.3,0.338,0.527c0.023,0.181-0.02,0.357-0.112,0.448
		c-0.102,0.102-0.352-0.131-0.354-0.131c-0.105-0.107-0.267-0.134-0.402-0.068c-0.135,0.066-0.212,0.211-0.193,0.36
		c0.019,0.145,0.004,0.328-0.029,0.396c-0.11,0.001-0.192-0.038-0.288-0.084c-0.123-0.061-0.446-0.22-0.694,0.07
		c-0.042,0.032-0.17,0.096-0.264,0.143c-0.387,0.194-0.87,0.436-0.984,0.865c-0.044,0.17-0.03,0.32,0.043,0.443
		c0.036,0.061,0.081,0.106,0.127,0.14c-0.075,0.126-0.135,0.242-0.185,0.341c-0.036,0.069-0.077,0.15-0.107,0.198c0,0,0,0-0.001,0
		c-0.207,0.016-0.351,0.042-0.608,0.252c-0.021,0.018-0.044,0.036-0.065,0.052c-0.21,0.163-0.561,0.436-0.303,1.106
		c0.201,0.522,0.512,0.697,0.661,0.78c0.005,0.002,0.009,0.005,0.013,0.007c0.154,0.173,0.614,0.898,0.564,1.264
		c-0.028,0.202-0.07,0.398-0.11,0.587c-0.073,0.339-0.148,0.689-0.134,1.062c0.009,0.214,0.048,0.408,0.082,0.579
		c0.029,0.149,0.075,0.374,0.038,0.42c-0.079,0.097-0.227,0.238-0.37,0.375c-0.295,0.282-0.479,0.466-0.563,0.635
		c-0.1,0.199-0.036,0.389,0.011,0.527c0.066,0.195,0.11,0.323-0.172,0.582c-0.238,0.218-0.964,0.542-3.072,0.845
		c-0.06,0.009-0.109,0.016-0.144,0.021c-0.405,0.063-0.775,0.144-0.876,0.447c-0.091,0.277,0.113,0.482,0.248,0.618
		c0.096,0.097,0.214,0.216,0.208,0.301c-0.035,0.539-0.035,0.539-0.228,0.649c-0.853,0.487-0.839,0.787-0.835,0.899
		c0.007,0.163,0.105,0.305,0.263,0.377c0.097,0.045,0.273,0.211,0.362,0.323c-0.097,0.177-0.236,0.535,0.131,0.917
		c0.162,0.169,0.442,0.315,0.767,0.484c0.22,0.116,0.584,0.307,0.667,0.408c0.009,0.031,0.019,0.063,0.029,0.098
		c0.094,0.328,0.201,0.7,0.482,0.854c0.064,0.035,0.134,0.056,0.205,0.062c0.058,0.161,0.167,0.408,0.45,0.569
		c0.489,0.279,0.82,0.025,1.086-0.179c0.096-0.073,0.205-0.157,0.338-0.238c0.168-0.103,0.277-0.188,0.356-0.253
		c0.059-0.046,0.093-0.073,0.141-0.087l-3.023,8.302L29.014,21.15c0.099,0.048,0.191,0.084,0.277,0.102
		c0.049,0.01,0.111,0.027,0.18,0.047c0.398,0.11,1.063,0.296,1.444-0.168c0.135-0.163,0.198-0.385,0.26-0.6
		c0.048-0.171,0.123-0.429,0.209-0.474c0.037-0.019,0.118-0.009,0.218,0.026c0.069,0.024,0.132,0.047,0.19,0.068
		c0.784,0.28,0.884,0.246,1.715-0.21l0.115-0.064c0.423-0.231,0.677-0.3,0.864-0.351c0.237-0.064,0.462-0.125,0.669-0.441
		C35.375,18.748,35.894,17.958,35.46,16.917 M36.262,34.35l0.491,1.09l-0.001,0.001l-1.678,2.157L36.262,34.35z M34.042,37.525
		l-1.621-2.084l-0.001-0.001l0.498-1.106L34.042,37.525z M40.214,23.549c0.283,0.098,0.543,0.237,0.688,0.377
		c0.155,0.15-0.236,0.603-0.495,0.902c-0.146,0.169-0.283,0.329-0.375,0.477c-0.086,0.139-0.153,0.3-0.218,0.454
		c-0.216,0.52-0.334,0.681-0.64,0.631L40.214,23.549z M38.536,26.234c-0.502-0.134-0.997-0.281-1.199-0.348
		c-0.099-0.12-0.263-0.367-0.237-0.571c0.005-0.042,0.021-0.171,0.243-0.308c0.231-0.142,0.431-0.242,0.607-0.331
		c0.467-0.234,0.836-0.421,1.145-1.087c0.014-0.029,0.055-0.118,0.252-0.155c0.066-0.012,0.139-0.016,0.215-0.015L38.536,26.234z
		 M57.064,57.097c-5.668,5.668-13.203,8.789-21.218,8.789c-8.015,0-15.55-3.121-21.217-8.789C8.96,51.43,5.84,43.895,5.84,35.879
		c0-8.015,3.121-15.55,8.789-21.217C17.31,11.98,20.41,9.87,23.78,8.389l4.012,11.392c-0.059,0.009-0.119,0.025-0.178,0.049
		c-0.54,0.223-0.905,1.026-1.005,1.268c-0.087,0.212-0.14,0.224-0.524,0.257c-0.153,0.013-0.344,0.03-0.558,0.076
		c-0.46,0.099-0.8,0.355-0.932,0.704c-0.117,0.312-0.056,0.665,0.168,0.97c0.206,0.277,0.482,0.415,0.685,0.516h0.001
		c-0.358,0.49-0.931,1.137-1.317,1.25c-0.3,0.089-0.51,0.029-0.731-0.034c-0.159-0.046-0.324-0.093-0.509-0.082
		c-0.129,0.008-0.318,0.06-0.481,0.265c-0.265,0.336-0.352,0.979-0.228,1.679c0.114,0.641-1.228,2.005-2.03,2.82
		c-0.877,0.892-0.609,2.11-0.413,2.999c0.06,0.273,0.117,0.532,0.119,0.705c0.002,0.104,0.008,0.422,0.233,0.621
		c0.227,0.2,0.514,0.171,0.818,0.139c0.243-0.024,0.519-0.054,0.833,0.012c0.109,0.023,0.167,0.044,0.197,0.058
		c-0.002,0.042-0.012,0.11-0.02,0.163c-0.042,0.301-0.108,0.755,0.17,1.385c0.194,0.441,0.49,0.555,0.703,0.572
		c0.665,0.057,1.357-0.8,1.671-1.247c0.249,0.007,0.721,0.026,1.265,0.071c0.003,0,0.006,0,0.01,0.001
		c-0.024,0.135-0.046,0.334,0.085,0.524c0.114,0.165,0.31,0.27,0.602,0.321c0.257,0.045,0.379,0.112,0.467,0.161
		c0.446,0.248,0.627-0.008,0.928-0.431l0.057-0.08c0.099,0.271,0.197,0.806,0.242,1.341c-0.031,0.095-0.019,0.202,0.046,0.289
		l0.104,0.142l0.44,0.821l-1.126,0.008l-0.741-1.318c-0.088-0.156-0.288-0.21-0.442-0.118c-0.163,0.097-0.208,0.312-0.094,0.466
		l0.722,0.976l-2.963,0.021l0.912-1.101c0.118-0.143,0.093-0.356-0.056-0.469c-0.148-0.111-0.359-0.076-0.465,0.076l-0.909,1.319
		l-0.909-1.319c-0.105-0.152-0.316-0.188-0.465-0.076c-0.149,0.112-0.174,0.326-0.056,0.469l0.917,1.108l-1.648-0.071
		c-0.186-0.008-0.341,0.141-0.341,0.327c0,0.186,0.155,0.334,0.341,0.326l1.648-0.07l-0.917,1.107
		c-0.119,0.144-0.093,0.357,0.056,0.47c0.148,0.111,0.359,0.076,0.465-0.077l0.909-1.319l0.909,1.319
		c0.106,0.153,0.317,0.188,0.465,0.077c0.148-0.112,0.174-0.326,0.056-0.47l-0.912-1.1l2.963,0.021l-0.722,0.976
		c-0.113,0.152-0.069,0.369,0.094,0.466c0.154,0.092,0.354,0.038,0.442-0.118l0.741-1.319l1.163,0.009
		c-0.082,0.167-0.178,0.36-0.277,0.552l-0.304,0.411c-0.083,0.111-0.081,0.257-0.011,0.363c-0.046,0.241-0.072,0.521-0.099,0.826
		c-0.046,0.517-0.099,1.102-0.267,1.393C27.69,42.4,27.684,42.4,27.499,42.39c-0.21-0.011-0.529-0.027-0.933,0.234
		c-0.293,0.19-0.457,0.348-0.588,0.475c-0.179,0.174-0.288,0.277-0.7,0.411c-0.132,0.043-0.196,0.049-0.221,0.049
		c-0.014-0.015-0.033-0.039-0.048-0.059c-0.115-0.146-0.308-0.392-0.801-0.496c-0.387-0.082-0.625,0.05-0.756,0.176
		c-0.392,0.375-0.312,1.093-0.185,1.858c0.027,0.159-0.348,0.289-0.88,0.455c-0.291,0.091-0.621,0.193-0.936,0.335
		c-0.53,0.24-0.595,0.21-1.099-0.018c-0.239-0.108-0.566-0.257-1.042-0.415c-0.678-0.227-1.038,0.104-1.193,0.321
		c-0.591,0.83-0.165,2.71,0.302,3.319c0.341,0.444,0.327,0.556,0.276,0.97c-0.019,0.146-0.041,0.327-0.051,0.552
		c-0.072,1.533,0.347,2.457,1.244,2.748c0.362,0.116,0.52,0.451,0.736,0.986c0.167,0.412,0.355,0.879,0.749,1.188
		c0.114,0.089,0.237,0.186,0.327,0.262c-0.08,0.045-0.173,0.093-0.231,0.123c-0.355,0.181-0.441,0.433-0.451,0.611
		c-0.026,0.476,0.471,0.866,0.673,1.005c0.177,0.182,1.183,1.2,2.176,1.968c0.971,0.751,1.396,0.592,2.124,0.22
		c0.165-0.084,0.351-0.179,0.575-0.273c0.258-0.11,0.383-0.12,0.43-0.119c0.032,0.124-0.032,0.459-0.063,0.627l-0.005,0.028
		c-0.033,0.175,0.018,0.343,0.141,0.461c0.331,0.322,1.055,0.205,2.751-0.165c0.454-0.099,0.923-0.201,1.323-0.268
		c0.465-0.079,0.76-0.079,0.93-0.058c-0.261,0.179-0.494,0.358-0.503,0.673c-0.01,0.345,0.278,0.64,0.747,1.002
		c0.291,0.225,0.573,0.338,0.841,0.338c0.087,0,0.174-0.013,0.258-0.036c0.532-0.153,0.804-0.736,0.962-1.161
		c0.012-0.034,0.034-0.092,0.16-0.105c0.197-0.021,0.431,0.09,0.484,0.158c0.172,0.567,1.085,0.55,2.953,0.461l0.071-0.004
		c0.639-0.03,0.875-0.235,1.117-0.502c0.192-0.211,0.411-0.45,1.532-0.521c1.608-0.102,2.595-1.16,3.316-1.933
		c0.344-0.368,0.642-0.687,0.905-0.808c1.135-0.52,1.338-1.254,1.574-2.408c0.095-0.462,0.068-0.816,0.048-1.074
		c-0.031-0.403-0.034-0.436,0.336-0.597c0.297-0.13,0.491-0.327,0.574-0.583c0.166-0.514-0.168-1.081-0.491-1.631
		c-0.108-0.184-0.21-0.357-0.288-0.518c-0.156-0.324-0.011-0.587,0.037-0.66c0.077-0.117,0.161-0.153,0.177-0.153
		c0.002,0.001,0.009,0.007,0.02,0.021c0.337,0.421,0.797,1.404,1.06,2.114c0.208,0.565,0.531,1.229,1.358,1.88
		c0.214,0.169,0.442,0.236,0.676,0.199c0.501-0.078,0.866-0.615,1.287-1.237c0.164-0.242,0.335-0.493,0.522-0.732
		c0.573-0.731,0.915-0.771,0.954-0.772c0.023,0.003,0.047,0.004,0.071,0.004c1.602-0.076,1.979-0.536,2.408-1.284
		c0.132-0.229,0.268-0.467,0.489-0.724c0.85-0.985,0.067-1.817-0.354-2.264c-0.138-0.146-0.28-0.297-0.329-0.398
		c-0.018-0.037-0.027-0.062-0.031-0.078c0.03-0.026,0.088-0.066,0.132-0.096c0.144-0.099,0.339-0.232,0.501-0.461
		c0.475-0.669,0.005-2.155-0.545-2.673c-0.374-0.351-0.373-0.43-0.369-0.877c0-0.088-0.004-0.16-0.007-0.219
		c-0.002-0.034-0.005-0.074-0.004-0.097c0.084-0.092,0.5-0.312,0.641-0.386c0.336-0.176,0.675-0.403,0.646-0.756
		c-0.033-0.381-0.444-0.514-0.843-0.643c-0.082-0.026-0.167-0.054-0.246-0.083c0.055-0.093,0.114-0.213,0.166-0.365
		c0.146-0.435-0.063-0.868-0.248-1.25c-0.137-0.283-0.279-0.575-0.192-0.705c0.294-0.437,0.325-0.695,0.122-1.023
		c-0.014-0.023-0.027-0.043-0.038-0.064c0.192-0.141,0.215-0.339,0.195-0.493c-0.016-0.125-0.058-0.233-0.096-0.329
		c-0.078-0.199-0.092-0.235,0.038-0.365c0.368-0.367,0.354-0.732,0.341-1.056c-0.006-0.155-0.012-0.315,0.018-0.5
		c0.088-0.547-0.059-0.747-0.379-0.942c-0.085-0.053-0.174-0.107-0.277-0.214c-0.016-0.017-0.025-0.028-0.03-0.036
		c0.019-0.047,0.093-0.139,0.143-0.201c0.114-0.143,0.256-0.318,0.313-0.544c0.115-0.454-0.248-0.677-0.443-0.798
		c-0.199-0.122-0.288-0.189-0.312-0.327c-0.09-0.544-0.541-0.981-0.87-1.302c-0.109-0.107-0.213-0.208-0.269-0.279
		c-0.101-0.131-0.14-0.263,0-0.48c0.219-0.34-0.068-0.64-0.341-0.862c0.225-0.014,0.324-0.165,0.35-0.215
		c0.148-0.279-0.062-0.551-0.329-0.896c-0.067-0.087-0.131-0.169-0.177-0.237c-0.086-0.126-0.219-0.208-0.375-0.231
		c-0.109-0.016-0.226,0-0.344,0.034c-0.002-0.124-0.031-0.232-0.088-0.331c-0.188-0.325-0.57-0.332-0.755-0.335
		c-0.025-0.001-0.047-0.001-0.065-0.003c-0.387-0.034-0.582,0.312-0.679,0.491c-0.147-0.028-0.39-0.118-0.49-0.219
		c-0.305-0.306-0.431-0.379-0.973-0.405c-0.085-0.005-0.344-0.017-0.529,0.158c-0.179,0.169-0.181,0.394-0.183,0.575
		c0,0.058,0,0.116-0.006,0.174c-0.087,0.021-0.262,0.001-0.336-0.042c-0.184-0.382-0.762-0.506-0.94-0.535
		c-0.038-0.006-0.078-0.006-0.116,0.001c-0.108,0.019-0.196,0.043-0.266,0.062c-0.202,0.057-0.303,0.085-1.061-0.386
		c-0.312-0.193-0.581-0.42-0.843-0.639c-0.617-0.519-1.316-1.105-2.057-0.364c-0.236,0.235-0.447,0.264-0.669,0.293
		c-0.42,0.056-0.83,0.18-0.829,1.004c-0.027,0.135-0.307,0.463-1.479,1.257c-0.114,0.077-0.207,0.14-0.265,0.184
		c-0.044,0.032-0.087,0.065-0.131,0.098c-0.183,0.139-0.345,0.259-0.531,0.33l0.373-1.021c0.005,0.002,0.009,0.002,0.014,0.004
		c0.107,0.023,0.205,0.035,0.295,0.035c0.655,0,0.902-0.591,1.072-0.999c0.058-0.14,0.113-0.271,0.175-0.371
		c0.067-0.108,0.191-0.252,0.322-0.402c0.402-0.466,1.01-1.17,0.458-1.703c-0.202-0.195-0.531-0.38-0.893-0.506L46.035,7.64
		c4.099,1.476,7.857,3.85,11.029,7.022c5.667,5.667,8.789,13.203,8.789,21.217C65.853,43.895,62.731,51.43,57.064,57.097"/>
	<path fill="#020203" d="M30.51,19.146c0.257-0.184-0.043-0.419-0.052-0.658c-0.039-0.209,0.2-0.705-0.207-0.604
		c-0.217,0.062-0.384,0.157-0.478,0.388c-0.036,0.088-0.291,0.093-0.236,0.277C29.568,18.965,30.155,19.202,30.51,19.146"/>
	<path fill="#020203" d="M29.131,19.805c0.169,0.057,0.438,0.437,0.53,0.097c0.043-0.186,0.042-0.348-0.09-0.512
		c-0.05-0.062,0.05-0.253-0.107-0.289c-0.319-0.147-0.735,0.188-0.84,0.472C28.655,19.839,28.952,19.714,29.131,19.805"/>
	<path fill="#020203" d="M31.402,18.6c0.3,0.154,0.621,0.319,0.992,0.319c0.373,0,0.798-0.166,1.307-0.675
		c0.97-0.969-0.363-2.918-0.627-3.285c-0.096-0.264-0.292-0.444-0.556-0.507c-0.433-0.104-0.937,0.121-1.192,0.388
		c-0.116,0.12-0.168,0.276-0.153,0.452c0.054,0.604,0.946,1.259,0.984,1.287c0.055,0.041,0.067,0.064,0.067,0.063
		c-0.005,0.045-0.138,0.216-0.522,0.384c-0.671,0.293-0.821,0.634-0.829,0.868C30.866,18.087,30.953,18.369,31.402,18.6
		 M31.934,17.56c0.304-0.133,0.822-0.42,0.87-0.855c0.014-0.13-0.007-0.381-0.304-0.598c-0.442-0.321-0.75-0.741-0.748-0.87
		c0.139-0.139,0.44-0.264,0.628-0.218c0.059,0.014,0.117,0.044,0.152,0.161l0.015,0.049l0.03,0.041
		c0.362,0.487,1.27,2.004,0.712,2.563c-0.715,0.715-1.056,0.54-1.62,0.25c-0.17-0.087-0.212-0.156-0.214-0.17
		C31.456,17.873,31.57,17.718,31.934,17.56"/>
	<path fill="#020203" d="M33.637,14.362c0.058,0,0.114-0.004,0.168-0.012c0.458-0.068,0.756-0.391,0.777-0.842l0.009-0.185
		c0.041-0.79,0.068-1.311-0.549-1.657c-0.308-0.173-0.637-0.144-0.903,0.081c-0.485,0.411-0.708,1.456-0.525,1.967
		C32.771,14.154,33.227,14.362,33.637,14.362 M33.515,12.193c0.044-0.037,0.083-0.056,0.125-0.056c0.035,0,0.072,0.013,0.117,0.038
		c0.279,0.156,0.293,0.313,0.252,1.118L34,13.481c-0.003,0.062-0.013,0.252-0.28,0.292c-0.209,0.031-0.489-0.066-0.556-0.255
		C33.064,13.244,33.217,12.445,33.515,12.193"/>
	<path fill="#020203" d="M38.114,9.326c0.175,0.13-0.036,0.183,0.316,0.101c0.351-0.082,0.292-0.104,0.462-0.108
		c0.17-0.004,0.159,0.119,0.358-0.027c0.198-0.146,0.345-0.117,0.24-0.245c-0.105-0.129-0.079-0.228,0.088-0.194
		c0.167,0.035,0.199,0.09,0.281,0.036c0.082-0.054,0.088-0.083,0.187-0.077c0.1,0.006,0.148,0.025,0.089-0.055
		c-0.06-0.08-0.082-0.053-0.059-0.119c0.023-0.066-0.006-0.2-0.089-0.205c0,0-0.197-0.048-0.232-0.063
		c-0.035-0.016-0.156-0.02-0.221-0.002c-0.064,0.018-0.066,0.121-0.213,0.134c-0.146,0.013-0.515,0.088-0.515,0.088
		S38.787,8.56,38.6,8.701c-0.188,0.14-0.287,0.229-0.322,0.281c-0.035,0.053-0.082,0.082-0.111,0.146
		C38.137,9.193,37.938,9.197,38.114,9.326"/>
	<path fill="#020203" d="M36.181,10.277c0.243,0.183,0.231-0.058,0.334-0.08c0.103-0.021,0.173-0.065,0.272,0
		c0.1,0.066,0.273,0.115,0.344,0.046s0.1-0.178,0.335-0.236c0.235-0.058,0.188-0.176,0.378-0.325
		c0.19-0.148,0.227-0.061,0.131-0.219c-0.095-0.159-0.406-0.068-0.406-0.068s-0.157-0.022-0.222,0
		c-0.065,0.021-0.195-0.065-0.265-0.055c-0.07,0.01-0.113,0.164-0.248,0.321c-0.135,0.156-0.276-0.026-0.368-0.133
		c-0.091-0.106-0.242,0.057-0.292,0.155c-0.048,0.098-0.184,0.138-0.259,0.23C35.84,10.004,35.938,10.095,36.181,10.277"/>
	<path fill="#020203" d="M40.985,8.214c-0.058,0.088-0.168,0.098-0.05,0.153c0.118,0.055,0.203,0.252,0.323,0.119
		c0.121-0.134,0.061-0.209,0.201-0.229c0.14-0.02,0.261-0.013,0.275-0.082c0.016-0.07,0.076-0.251-0.104-0.255
		c-0.181-0.004-0.272,0.082-0.352,0.05c-0.079-0.031-0.291,0.035-0.407,0.115C40.818,8.124,41.042,8.127,40.985,8.214"/>
	<path fill="#020203" d="M42.121,8.5c0.228,0.227,0.338-0.158,0.408-0.247c0.069-0.09,0-0.132,0-0.207
		c0-0.077-0.151-0.166-0.332-0.166c-0.269,0-0.228,0.138-0.181,0.283C42.063,8.309,41.893,8.273,42.121,8.5"/>
	<rect x="85.829" y="50.6" width="1.31" height="4.916"/>
	<polygon points="92.617,50.6 93.926,50.6 93.926,55.515 93.23,55.515 90.341,52.834 90.341,55.515 89.032,55.515 89.032,50.6 
		89.728,50.6 92.617,53.282 	"/>
	<path d="M95.372,55.36v-1.143c0.281,0.249,0.843,0.384,1.227,0.384c0.395,0,0.603-0.146,0.603-0.405c0-0.77-1.84-1.019-1.84-2.349
		c0-0.779,0.614-1.352,1.768-1.352c0.562,0,1.008,0.125,1.237,0.271v1.112c-0.239-0.239-0.696-0.364-1.071-0.364
		c-0.384,0-0.593,0.146-0.593,0.406c0,0.727,1.85,0.841,1.85,2.285c0,0.853-0.655,1.414-1.767,1.414
		C96.286,55.62,95.673,55.505,95.372,55.36"/>
	<polygon points="103.511,51.722 102.014,51.722 102.014,55.515 100.694,55.515 100.694,51.722 99.198,51.722 99.198,50.6 
		103.511,50.6 	"/>
	<rect x="104.655" y="50.6" width="1.31" height="4.916"/>
	<polygon points="111.421,51.722 109.924,51.722 109.924,55.515 108.604,55.515 108.604,51.722 107.108,51.722 107.108,50.6 
		111.421,50.6 	"/>
	<path d="M112.441,53.437v-2.838h1.309v2.734c0,0.654,0.395,1.081,1.081,1.081c0.697,0,1.092-0.427,1.092-1.081v-2.734h1.309v2.838
		c0,1.279-0.842,2.183-2.401,2.183C113.282,55.62,112.441,54.716,112.441,53.437"/>
	<polygon points="122.565,51.722 121.068,51.722 121.068,55.515 119.748,55.515 119.748,51.722 118.252,51.722 118.252,50.6 
		122.565,50.6 	"/>
	<path d="M123.251,53.052c0-1.506,1.091-2.557,2.64-2.557s2.64,1.051,2.64,2.557c0,1.507-1.091,2.567-2.64,2.567
		S123.251,54.559,123.251,53.052 M127.18,53.052c0-0.8-0.53-1.351-1.289-1.351c-0.77,0-1.289,0.551-1.289,1.351
		c0,0.801,0.519,1.362,1.289,1.362C126.65,54.415,127.18,53.853,127.18,53.052"/>
	<path d="M135.216,55.516l-0.406-0.904h-1.632l-0.405,0.904h-1.383l2.234-4.916h0.8l2.235,4.916H135.216z M133.543,53.791h0.904
		L134,52.772L133.543,53.791z"/>
	<polygon points="141.213,50.6 142.522,50.6 142.522,55.515 141.827,55.515 138.938,52.834 138.938,55.515 137.628,55.515 
		137.628,50.6 138.325,50.6 141.213,53.282 	"/>
	<polygon points="147.98,51.722 146.484,51.722 146.484,55.515 145.163,55.515 145.163,51.722 143.667,51.722 143.667,50.6 
		147.98,50.6 	"/>
	<path d="M152.024,55.516l-0.406-0.904h-1.632l-0.404,0.904h-1.383l2.234-4.916h0.8l2.234,4.916H152.024z M152.253,48.178
		l-0.936,1.86h-1.06l0.625-1.86H152.253z M150.351,53.791h0.905l-0.447-1.019L150.351,53.791z"/>
	<path d="M157.606,55.515l-1.227-1.798h-0.634v1.798h-1.31V50.6h2.328c1.154,0,1.705,0.654,1.705,1.507
		c0,0.603-0.281,1.039-0.8,1.268l1.496,2.141H157.606z M155.746,51.753v1.112h0.779c0.344,0,0.603-0.197,0.603-0.562
		c0-0.363-0.259-0.551-0.603-0.551H155.746z"/>
	<polygon points="163.78,51.722 162.284,51.722 162.284,55.515 160.964,55.515 160.964,51.722 159.468,51.722 159.468,50.6 
		163.78,50.6 	"/>
	<rect x="164.925" y="50.6" width="1.31" height="4.916"/>
	<path d="M167.773,53.063c0-1.507,1.101-2.567,2.66-2.567c0.635,0,1.226,0.177,1.59,0.405v1.33c-0.312-0.28-0.895-0.529-1.486-0.529
		c-0.874,0-1.414,0.54-1.414,1.361c0,0.811,0.53,1.352,1.435,1.352c0.613,0,1.184-0.239,1.496-0.529v1.319
		c-0.342,0.228-0.925,0.415-1.59,0.415C168.885,55.62,167.773,54.56,167.773,53.063"/>
	<path d="M173.293,53.052c0-1.506,1.091-2.557,2.64-2.557c1.549,0,2.64,1.051,2.64,2.557c0,1.507-1.091,2.567-2.64,2.567
		C174.384,55.62,173.293,54.559,173.293,53.052 M177.221,53.052c0-0.8-0.53-1.351-1.289-1.351c-0.769,0-1.289,0.551-1.289,1.351
		c0,0.801,0.52,1.362,1.289,1.362C176.691,54.415,177.221,53.853,177.221,53.052"/>
	<path d="M182.003,53.063c0-1.507,1.102-2.567,2.661-2.567c0.634,0,1.226,0.177,1.59,0.405v1.33
		c-0.311-0.28-0.894-0.529-1.486-0.529c-0.874,0-1.414,0.54-1.414,1.361c0,0.811,0.529,1.352,1.434,1.352
		c0.613,0,1.185-0.239,1.496-0.529v1.319c-0.342,0.228-0.925,0.415-1.59,0.415C183.115,55.62,182.003,54.56,182.003,53.063"/>
	<polygon points="191.494,50.6 192.804,50.6 192.804,55.515 191.494,55.515 191.494,53.572 189.187,53.572 189.187,55.515 
		187.877,55.515 187.877,50.6 189.187,50.6 189.187,52.45 191.494,52.45 	"/>
	<rect x="194.696" y="50.6" width="1.31" height="4.916"/>
	<polygon points="199.207,54.393 200.953,54.393 200.953,55.515 197.897,55.515 197.897,50.6 199.207,50.6 	"/>
	<polygon points="203.583,54.393 205.329,54.393 205.329,55.515 202.273,55.515 202.273,50.6 205.298,50.6 205.298,51.722 
		203.583,51.722 203.583,52.595 205.163,52.595 205.163,53.468 203.583,53.468 	"/>
	<polygon points="210.527,50.6 211.837,50.6 211.837,55.515 211.14,55.515 208.251,52.834 208.251,55.515 206.941,55.515 
		206.941,50.6 207.639,50.6 210.527,53.282 	"/>
	<path d="M213.376,53.052c0-1.506,1.091-2.557,2.64-2.557s2.64,1.051,2.64,2.557c0,1.507-1.091,2.567-2.64,2.567
		S213.376,54.559,213.376,53.052 M217.304,53.052c0-0.8-0.529-1.351-1.288-1.351c-0.77,0-1.289,0.551-1.289,1.351
		c0,0.801,0.52,1.362,1.289,1.362C216.774,54.415,217.304,53.853,217.304,53.052"/>
	<polygon points="91.753,64.206 90.527,64.206 90.35,61.909 88.947,64.206 88.375,64.206 86.982,61.94 86.807,64.206 85.569,64.206 
		85.996,59.29 86.754,59.29 88.676,62.5 90.579,59.29 91.337,59.29 	"/>
	<rect x="93.387" y="59.29" width="1.31" height="4.916"/>
	<polygon points="100.174,59.29 101.484,59.29 101.484,64.206 100.787,64.206 97.898,61.524 97.898,64.206 96.588,64.206 
		96.588,59.29 97.285,59.29 100.174,61.971 	"/>
	<rect x="103.376" y="59.29" width="1.31" height="4.916"/>
	<path d="M106.131,64.05v-1.144c0.281,0.249,0.842,0.384,1.227,0.384c0.395,0,0.603-0.146,0.603-0.404c0-0.77-1.84-1.02-1.84-2.35
		c0-0.779,0.614-1.352,1.768-1.352c0.561,0,1.008,0.125,1.237,0.271v1.113c-0.239-0.239-0.697-0.365-1.071-0.365
		c-0.384,0-0.593,0.146-0.593,0.406c0,0.728,1.85,0.842,1.85,2.286c0,0.853-0.655,1.414-1.767,1.414
		C107.045,64.31,106.433,64.196,106.131,64.05"/>
	<polygon points="114.27,60.412 112.773,60.412 112.773,64.206 111.453,64.206 111.453,60.412 109.957,60.412 109.957,59.29 
		114.27,59.29 	"/>
	<polygon points="116.723,63.083 118.469,63.083 118.469,64.206 115.414,64.206 115.414,59.29 118.438,59.29 118.438,60.412 
		116.723,60.412 116.723,61.285 118.302,61.285 118.302,62.159 116.723,62.159 	"/>
	<path d="M123.251,64.206l-1.227-1.798h-0.633v1.798h-1.31V59.29h2.327c1.155,0,1.705,0.654,1.705,1.507
		c0,0.603-0.28,1.039-0.8,1.268l1.496,2.142H123.251z M121.391,60.444v1.112h0.779c0.344,0,0.603-0.198,0.603-0.562
		c0-0.364-0.259-0.551-0.603-0.551H121.391z"/>
	<rect x="125.861" y="59.29" width="1.309" height="4.916"/>
	<path d="M128.709,61.743c0-1.507,1.091-2.558,2.64-2.558s2.64,1.051,2.64,2.558s-1.091,2.566-2.64,2.566
		S128.709,63.25,128.709,61.743 M132.638,61.743c0-0.801-0.531-1.351-1.289-1.351c-0.769,0-1.289,0.55-1.289,1.351
		c0,0.8,0.52,1.361,1.289,1.361C132.107,63.104,132.638,62.542,132.638,61.743"/>
	<path d="M142.554,61.743c0,1.496-1.018,2.463-2.556,2.463h-2.224V59.29h2.224C141.536,59.29,142.554,60.256,142.554,61.743
		 M139.883,63.052c0.8,0,1.33-0.541,1.33-1.31s-0.53-1.299-1.33-1.299h-0.8v2.608H139.883z"/>
	<polygon points="145.351,63.083 147.097,63.083 147.097,64.206 144.041,64.206 144.041,59.29 147.065,59.29 147.065,60.412 
		145.351,60.412 145.351,61.285 146.93,61.285 146.93,62.159 145.351,62.159 	"/>
	<path d="M154.124,64.206l-1.227-1.798h-0.634v1.798h-1.31V59.29h2.328c1.154,0,1.705,0.654,1.705,1.507
		c0,0.603-0.281,1.039-0.8,1.268l1.496,2.142H154.124z M152.264,60.444v1.112h0.779c0.344,0,0.603-0.198,0.603-0.562
		c0-0.364-0.259-0.551-0.603-0.551H152.264z"/>
	<polygon points="158.043,63.083 159.79,63.083 159.79,64.206 156.734,64.206 156.734,59.29 159.758,59.29 159.758,60.412 
		158.043,60.412 158.043,61.285 159.623,61.285 159.623,62.159 158.043,62.159 	"/>
	<polygon points="162.71,63.083 164.457,63.083 164.457,64.206 161.401,64.206 161.401,59.29 162.71,59.29 	"/>
	<path d="M168.678,64.206l-0.406-0.903h-1.632l-0.405,0.903h-1.382l2.234-4.916h0.8l2.234,4.916H168.678z M167.004,62.481h0.904
		l-0.447-1.02L167.004,62.481z"/>
	<path d="M170.736,61.752c0-1.506,1.101-2.567,2.661-2.567c0.635,0,1.226,0.178,1.59,0.406v1.33c-0.312-0.281-0.895-0.53-1.486-0.53
		c-0.874,0-1.414,0.541-1.414,1.361c0,0.812,0.53,1.352,1.435,1.352c0.612,0,1.184-0.239,1.496-0.529v1.319
		c-0.342,0.229-0.925,0.416-1.59,0.416C171.848,64.31,170.736,63.25,170.736,61.752"/>
	<rect x="176.609" y="59.29" width="1.31" height="4.916"/>
	<path d="M179.457,61.743c0-1.507,1.091-2.558,2.64-2.558c1.549,0,2.64,1.051,2.64,2.558s-1.091,2.566-2.64,2.566
		C180.548,64.309,179.457,63.25,179.457,61.743 M183.386,61.743c0-0.801-0.53-1.351-1.289-1.351c-0.769,0-1.289,0.55-1.289,1.351
		c0,0.8,0.52,1.361,1.289,1.361C182.855,63.104,183.386,62.542,183.386,61.743"/>
	<polygon points="189.862,59.29 191.172,59.29 191.172,64.206 190.475,64.206 187.586,61.524 187.586,64.206 186.277,64.206 
		186.277,59.29 186.973,59.29 189.862,61.971 	"/>
	<polygon points="194.374,63.083 196.12,63.083 196.12,64.206 193.064,64.206 193.064,59.29 196.089,59.29 196.089,60.412 
		194.374,60.412 194.374,61.285 195.953,61.285 195.953,62.159 194.374,62.159 	"/>
	<path d="M197.284,64.05v-1.144c0.281,0.249,0.843,0.384,1.227,0.384c0.396,0,0.603-0.146,0.603-0.404c0-0.77-1.84-1.02-1.84-2.35
		c0-0.779,0.613-1.352,1.768-1.352c0.562,0,1.008,0.125,1.237,0.271v1.113c-0.239-0.239-0.696-0.365-1.07-0.365
		c-0.385,0-0.594,0.146-0.594,0.406c0,0.728,1.851,0.842,1.851,2.286c0,0.853-0.655,1.414-1.767,1.414
		C198.198,64.31,197.586,64.196,197.284,64.05"/>
	<polygon points="205.413,63.083 207.159,63.083 207.159,64.206 204.104,64.206 204.104,59.29 207.128,59.29 207.128,60.412 
		205.413,60.412 205.413,61.285 206.993,61.285 206.993,62.159 205.413,62.159 	"/>
	<polygon points="213.323,64.206 211.713,64.206 210.61,62.709 209.529,64.206 207.971,64.206 209.853,61.69 208.074,59.29 
		209.696,59.29 210.693,60.641 211.671,59.29 213.22,59.29 211.442,61.659 	"/>
	<polygon points="217.98,60.412 216.484,60.412 216.484,64.206 215.164,64.206 215.164,60.412 213.668,60.412 213.668,59.29 
		217.98,59.29 	"/>
	<polygon points="220.434,63.083 222.18,63.083 222.18,64.206 219.124,64.206 219.124,59.29 222.148,59.29 222.148,60.412 
		220.434,60.412 220.434,61.285 222.014,61.285 222.014,62.159 220.434,62.159 	"/>
	<path d="M226.961,64.206l-1.227-1.798h-0.634v1.798h-1.31V59.29h2.328c1.154,0,1.705,0.654,1.705,1.507
		c0,0.603-0.28,1.039-0.8,1.268l1.496,2.142H226.961z M225.101,60.444v1.112h0.779c0.345,0,0.604-0.198,0.604-0.562
		c0-0.364-0.259-0.551-0.604-0.551H225.101z"/>
	<rect x="229.571" y="59.29" width="1.31" height="4.916"/>
	<path d="M232.42,61.743c0-1.507,1.092-2.558,2.64-2.558c1.549,0,2.64,1.051,2.64,2.558s-1.091,2.566-2.64,2.566
		C233.512,64.309,232.42,63.25,232.42,61.743 M236.349,61.743c0-0.801-0.53-1.351-1.289-1.351c-0.769,0-1.288,0.55-1.288,1.351
		c0,0.8,0.52,1.361,1.288,1.361C235.818,63.104,236.349,62.542,236.349,61.743"/>
	<path d="M242.408,64.206l-1.227-1.798h-0.634v1.798h-1.31V59.29h2.328c1.153,0,1.705,0.654,1.705,1.507
		c0,0.603-0.281,1.039-0.801,1.268l1.496,2.142H242.408z M240.548,60.444v1.112h0.779c0.344,0,0.604-0.198,0.604-0.562
		c0-0.364-0.26-0.551-0.604-0.551H240.548z"/>
	<polygon points="246.327,63.083 248.073,63.083 248.073,64.206 245.018,64.206 245.018,59.29 248.042,59.29 248.042,60.412 
		246.327,60.412 246.327,61.285 247.907,61.285 247.907,62.159 246.327,62.159 	"/>
	<path d="M249.238,64.05v-1.144c0.28,0.249,0.843,0.384,1.227,0.384c0.396,0,0.603-0.146,0.603-0.404c0-0.77-1.84-1.02-1.84-2.35
		c0-0.779,0.614-1.352,1.768-1.352c0.562,0,1.009,0.125,1.237,0.271v1.113c-0.239-0.239-0.696-0.365-1.071-0.365
		c-0.384,0-0.593,0.146-0.593,0.406c0,0.728,1.851,0.842,1.851,2.286c0,0.853-0.655,1.414-1.767,1.414
		C250.153,64.31,249.54,64.196,249.238,64.05"/>
</g>
</svg>
