<?xml version="1.0" encoding="utf-8"?>
<!-- Generator: Adobe Illustrator 16.0.4, SVG Export Plug-In . SVG Version: 6.00 Build 0)  -->
<!DOCTYPE svg PUBLIC "-//W3C//DTD SVG 1.1//EN" "http://www.w3.org/Graphics/SVG/1.1/DTD/svg11.dtd">
<svg version="1.1" id="Capa_1" xmlns="http://www.w3.org/2000/svg" xmlns:xlink="http://www.w3.org/1999/xlink" x="0px" y="0px"
	 width="106.525px" height="32.148px" viewBox="-3.398 4.503 106.525 32.148" enable-background="new -3.398 4.503 106.525 32.148"
	 xml:space="preserve">
<g>
	<path d="M17.876,32.772L17.876,32.772c-0.317,0-0.584-0.168-0.613-0.187c-0.249-0.154-0.628-0.387-0.89-0.533
		c-0.038-0.017-0.135-0.062-0.234-0.121l0,0h-0.006c-0.016-0.01-0.03-0.021-0.041-0.033c-0.094-0.067-0.16-0.131-0.19-0.189
		c-0.105-0.209-0.05-0.4-0.044-0.423c0.011-0.029,0.031-0.052,0.061-0.062c0.027-0.012,0.061-0.01,0.087,0.009l0.587,0.35
		c0.115-0.294-0.041-0.658-0.107-0.792c-1.047,0.519-2.123,0.825-2.6,0.922c-0.077,0.019-0.148,0.026-0.214,0.026
		c-0.319,0-0.459-0.179-0.514-0.286c-0.02-0.039-0.028-0.069-0.031-0.078l-0.146-0.398c-0.008-0.015-0.017-0.027-0.022-0.039
		l-0.082,0.028c-0.909,0.29-2.032,0.448-3.158,0.452H9.508H9.299c-1.118,0-2.229-0.16-3.135-0.444L6.021,31.37
		c-0.008,0.035-0.11,0.372-0.548,0.372c-0.066,0-0.14-0.01-0.217-0.026c-0.477-0.099-1.552-0.405-2.599-0.922
		c-0.066,0.132-0.222,0.498-0.107,0.79l0.586-0.35c0.027-0.017,0.061-0.021,0.087-0.009c0.028,0.009,0.05,0.033,0.059,0.062
		c0.005,0.022,0.061,0.216-0.044,0.422c-0.033,0.063-0.099,0.131-0.195,0.195c-0.003,0.004-0.025,0.017-0.174,0.103
		c-0.278,0.162-0.795,0.459-0.991,0.584c-0.01,0.009-0.29,0.188-0.614,0.188c-0.181,0-0.344-0.056-0.481-0.165
		c-0.81-0.647-0.212-2.801-0.066-3.282c-0.061-0.08-0.108-0.154-0.149-0.223c-0.314-0.543-0.112-0.809-0.011-0.896l1.346-1.305
		c0.02-0.022,0.043-0.049,0.074-0.073c0.017-0.013,0.038-0.029,0.061-0.042c0.063-0.041,0.124-0.067,0.185-0.075
		c0.104-0.015,0.207,0.016,0.296,0.09c0.215,0.175,0.295,0.665,0.326,0.959c0.971,0.751,2.444,1.213,3.523,1.473l0.229-0.494
		c0.093-0.183,0.302-0.306,0.531-0.306h0.005l0.152,0.019c0,0,0.014,0.004,0.02,0.008v0.015v-0.015
		c0.591,0.152,1.293,0.236,2.025,0.236h0.173h0.174c0.732,0,1.432-0.084,2.023-0.234l0.03-0.01l0.149-0.015
		c0.231,0,0.44,0.119,0.534,0.305l0.243,0.521c1.117-0.261,2.639-0.729,3.636-1.501c0.031-0.288,0.113-0.782,0.325-0.954
		c0.09-0.074,0.19-0.105,0.295-0.093c0.061,0.01,0.121,0.033,0.184,0.074c0.028,0.019,0.049,0.034,0.069,0.051
		c0.025,0.021,0.043,0.043,0.061,0.058l1.354,1.312c0.102,0.093,0.297,0.36-0.014,0.898c-0.041,0.072-0.091,0.146-0.149,0.223
		c0.146,0.481,0.744,2.635-0.066,3.281c-0.138,0.11-0.3,0.164-0.481,0.164 M0.871,29.519c-0.105,0.379-0.303,1.175-0.303,1.866
		c0,0.528,0.112,0.887,0.338,1.067c0.1,0.078,0.217,0.117,0.355,0.117c0.261,0,0.499-0.148,0.51-0.154l0.02-0.011
		c0.275-0.172,0.508-0.312,0.696-0.421c0.032-0.019,0.066-0.039,0.096-0.06c-0.046-0.021-0.087-0.056-0.124-0.097
		c-0.002-0.003-0.005-0.007-0.011-0.011c0,0-0.016-0.022-0.019-0.026c-0.017-0.022-0.031-0.048-0.042-0.068
		c-0.058-0.109-0.085-0.236-0.085-0.374c0-0.268,0.108-0.517,0.168-0.64c-0.011-0.007-0.022-0.015-0.035-0.025l-0.017-0.012
		C1.745,30.312,1.226,29.928,0.871,29.519 M16.556,31.924c0.032,0.021,0.066,0.041,0.098,0.06c0.27,0.156,0.57,0.345,0.683,0.413
		l0.031,0.019c0,0,0.248,0.154,0.509,0.154c0.135,0,0.256-0.041,0.355-0.117c0.226-0.181,0.338-0.541,0.338-1.067
		c0-0.695-0.198-1.487-0.303-1.866c-0.355,0.409-0.878,0.796-1.553,1.154c-0.016,0.01-0.032,0.017-0.049,0.024
		c0.058,0.115,0.174,0.375,0.174,0.65c0,0.138-0.03,0.265-0.085,0.374c-0.014,0.024-0.025,0.046-0.039,0.064v0.008l-0.008,0.008
		c0,0-0.005,0.011-0.007,0.015c-0.003,0.002-0.006,0.008-0.011,0.011h-0.003c-0.036,0.043-0.077,0.076-0.124,0.101 M2.673,31.746
		c0.034,0.019,0.072,0.025,0.116,0.025c0.052,0,0.099-0.011,0.126-0.019c0.099-0.063,0.135-0.107,0.149-0.134
		c0.019-0.041,0.032-0.085,0.038-0.13c-0.033,0.021-0.074,0.048-0.124,0.074c-0.091,0.056-0.201,0.123-0.306,0.186 M16.233,31.755
		c0.028,0.01,0.072,0.019,0.124,0.019c0.045,0,0.083-0.007,0.116-0.024c-0.11-0.066-0.223-0.132-0.317-0.189
		c-0.041-0.025-0.08-0.048-0.112-0.066c0.005,0.039,0.017,0.081,0.038,0.13c0.014,0.024,0.05,0.068,0.148,0.132 M1.977,27.11
		c0,0-0.005,0.006-0.008,0.01l-1.274,1.234C0.63,28.41,0.601,28.48,0.601,28.577c0,0.119,0.049,0.268,0.14,0.428
		c0.036,0.063,0.08,0.13,0.133,0.201C1,29.377,1.157,29.55,1.346,29.716l0.149,0.118c0.072,0.056,0.146,0.115,0.22,0.172
		c0.239,0.171,0.514,0.342,0.817,0.502c1.079,0.568,2.277,0.911,2.758,1.013c0.198,0.041,0.35,0.017,0.446-0.072
		c-0.003-0.008-0.008-0.015-0.008-0.024v-0.011c-0.069-0.166-0.141-0.391-0.121-0.526c0-0.019,0.005-0.033,0.01-0.043l0.011-0.024
		l0.65-1.401c-1.525-0.368-2.701-0.854-3.488-1.439c-0.341-0.256-0.603-0.521-0.771-0.792l-0.013-0.021L1.979,27.12
		c0,0-0.003-0.008-0.005-0.01 M13.315,31.325c0.011,0.037,0.08,0.212,0.352,0.212c0.053,0,0.111-0.005,0.174-0.019
		c0.481-0.102,1.679-0.442,2.758-1.011c0.303-0.16,0.578-0.328,0.817-0.502l0.372-0.296c0.187-0.162,0.344-0.337,0.471-0.51
		c0.056-0.076,0.097-0.14,0.133-0.2c0.093-0.16,0.14-0.31,0.14-0.426c0-0.096-0.03-0.17-0.091-0.224c0,0-0.066-0.067-0.171-0.169
		c-0.009,0.009-0.017,0.021-0.027,0.027c-0.02,0.019-0.088,0.092-0.174,0.173h-0.002c-0.017,0.021-0.033,0.034-0.055,0.034
		c-0.011,0-0.025-0.006-0.033-0.014c-0.01-0.011-0.019-0.027-0.016-0.048l-0.202-0.078l-0.181,0.186l0.058,0.144
		c0.008,0.021,0.017,0.035,0.025,0.045c0,0,0.003-0.002,0.006-0.006l0.014-0.015c0,0,0.019-0.019,0.044-0.019
		c0.014,0,0.028,0.005,0.038,0.017c0.011,0.011,0.017,0.022,0.017,0.035c0,0.017-0.008,0.033-0.021,0.048
		c-0.014,0.014-0.03,0.03-0.05,0.045c-0.017,0.019-0.033,0.033-0.047,0.049c-0.002,0.001-0.005,0.007-0.011,0.011
		c-0.005,0.004-0.011,0.011-0.017,0.019c-0.011,0.015-0.027,0.03-0.043,0.049l-0.031,0.033c-0.058,0.048-0.084,0.063-0.129,0.072
		c-0.017,0.002-0.032,0.006-0.055,0.006c-0.058,0-0.126-0.015-0.223-0.039c-0.044-0.012-0.094-0.024-0.132-0.035
		c-0.022-0.006-0.041-0.012-0.052-0.016l-0.063,0.049c0.049,0.06,0.112,0.14,0.148,0.175c0.01,0.011,0.016,0.015,0.019,0.019
		c0,0,0,0,0.008-0.004c0.02-0.011,0.039-0.026,0.047-0.029c0.022-0.021,0.066-0.019,0.083,0.011
		c0.005,0.008,0.025,0.043-0.021,0.078c-0.044,0.037-0.108,0.084-0.14,0.107l-0.02,0.016c0,0-0.017,0.013-0.031,0.023
		c-0.027,0.021-0.063,0.053-0.087,0.075c-0.031,0.023-0.064,0.021-0.085,0c-0.011-0.012-0.014-0.024-0.011-0.039
		c0-0.018,0.011-0.03,0.028-0.041c0.007-0.006,0.019-0.017,0.021-0.022l0,0c0,0-0.003-0.012-0.014-0.024
		c-0.024-0.043-0.082-0.117-0.148-0.199l-0.144-0.182c-0.096-0.123-0.118-0.148-0.139-0.175c-0.008-0.012-0.014-0.012-0.014-0.012
		s-0.008,0-0.022,0.004c0,0-0.014,0.01-0.025,0.021c0.006,0.01,0.008,0.017,0.014,0.024c0.014,0.026,0.028,0.048,0.036,0.062v0.009
		c0.021,0.045,0,0.065-0.014,0.074c-0.008,0.004-0.017,0.008-0.028,0.008c-0.027,0-0.043-0.022-0.052-0.033l-0.008-0.012
		c0,0-0.006-0.003-0.014-0.003c-0.014,0-0.041,0.007-0.093,0.037l-0.103,0.06l0.231,0.371c0.046,0.075,0.104,0.166,0.138,0.21
		c0.011,0.014,0.014,0.018,0.017,0.018c0,0,0.003,0,0.008,0c0.011-0.006,0.036-0.019,0.053-0.028
		c0.03-0.021,0.066-0.011,0.083,0.013c0.005,0.012,0.007,0.026,0.005,0.039c-0.003,0.018-0.017,0.034-0.036,0.045
		c-0.044,0.028-0.091,0.054-0.126,0.074c-0.022,0.01-0.039,0.021-0.052,0.03c-0.011,0.009-0.036,0.022-0.061,0.039
		c-0.027,0.019-0.058,0.037-0.079,0.052c-0.034,0.022-0.069,0.017-0.085-0.011c-0.009-0.016-0.011-0.028-0.006-0.041
		c0.003-0.012,0.011-0.028,0.033-0.039c0.02-0.012,0.025-0.017,0.025-0.021h0.003c0,0,0-0.01-0.011-0.026
		c-0.02-0.039-0.063-0.111-0.112-0.189l-0.243-0.395l-0.124,0.08c-0.06,0.039-0.066,0.052-0.066,0.063c0,0.021,0,0.027,0,0.033
		c0.011,0.043-0.014,0.063-0.025,0.069c-0.006,0.001-0.017,0.003-0.024,0.003c-0.014,0-0.028-0.003-0.036-0.011
		c0.017,0.048-0.011,0.07-0.022,0.076h-0.005c0,0-0.013,0.008-0.021,0.008c-0.014,0-0.036-0.006-0.052-0.039
		c-0.003-0.004-0.017-0.024-0.042-0.036c-0.035-0.017-0.074-0.009-0.118,0.012c-0.058,0.031-0.105,0.085-0.08,0.136
		c0.011,0.024,0.028,0.052,0.154,0.056h0.061c0.19,0.004,0.3,0.06,0.364,0.181c0.046,0.097,0.041,0.189-0.017,0.295
		c-0.043,0.076-0.126,0.127-0.187,0.156c-0.085,0.045-0.16,0.067-0.215,0.069c-0.003,0-0.008,0-0.011,0
		c-0.044,0-0.061-0.033-0.069-0.051c-0.025-0.046-0.05-0.104-0.061-0.132l-0.005-0.013c-0.022-0.049,0-0.078,0.021-0.09
		c0.008-0.003,0.017-0.003,0.025-0.003c0.014,0,0.036,0.003,0.052,0.031c0.005,0.011,0.017,0.028,0.031,0.043
		c0.022,0.021,0.049,0.031,0.083,0.031c0.033,0,0.069-0.011,0.102-0.027c0.042-0.019,0.068-0.049,0.08-0.078
		c0.008-0.026,0.006-0.055-0.005-0.078c-0.014-0.028-0.033-0.063-0.151-0.069l-0.085-0.005c-0.176-0.008-0.279-0.06-0.333-0.175
		c-0.072-0.146,0.011-0.318,0.201-0.413c0.074-0.037,0.141-0.06,0.182-0.065c0.027-0.005,0.055,0.002,0.069,0.028v0.006
		c0,0-0.005-0.021-0.005-0.022c-0.014-0.035,0-0.058,0.017-0.073c0.014-0.007,0.024-0.011,0.033-0.013
		c0.008,0,0.017-0.002,0.03-0.009c0.036-0.016,0.077-0.041,0.107-0.06l0.441-0.271c0.033-0.022,0.055-0.039,0.069-0.049
		c0.005-0.004,0.011-0.007,0.014-0.013c0.006-0.006,0.011-0.012,0.017-0.013c0.008-0.008,0.016-0.01,0.024-0.01
		c0.003-0.002,0.005-0.006,0.011-0.009c0.036-0.026,0.077-0.06,0.108-0.082c0.013-0.012,0.024-0.019,0.03-0.024
		c0.017-0.013,0.044-0.035,0.074-0.062c0.034-0.024,0.063-0.052,0.08-0.064c0.063-0.051,0.148-0.11,0.243-0.119
		c0.005,0,0.01,0,0.016,0c0.061,0,0.141,0.023,0.193,0.091c0.058,0.07,0.072,0.165,0.041,0.309c0.151,0.029,0.272,0.056,0.369,0.067
		c0.024,0,0.046,0,0.063,0c0-0.019-0.008-0.038-0.02-0.06l-0.297-0.759c-0.013-0.03-0.03-0.074,0-0.104
		c0.014-0.015,0.031-0.022,0.05-0.022c0.014,0,0.027,0.004,0.046,0.012c0.036,0.013,0.179,0.064,0.341,0.126
		c0.151,0.056,0.317,0.117,0.41,0.15c0.042,0.018,0.077,0.022,0.1,0.022c0.02,0,0.025-0.005,0.031-0.009
		c0.01-0.008,0.021-0.015,0.03-0.024l0,0c-0.308-0.299-0.82-0.796-1.026-0.995c-0.003-0.001-0.006-0.003-0.008-0.007v0.006
		l-0.042,0.072c-0.167,0.268-0.427,0.533-0.771,0.788c-0.809,0.604-2.021,1.097-3.604,1.469l0.578,1.244c0,0,0.011,0.024,0.022,0.05
		l-0.174-0.628c-0.016-0.053,0.008-0.086,0.036-0.097c0.008,0,0.014-0.004,0.019-0.004c0.022,0,0.045,0.011,0.069,0.022h0.006
		c0.02,0.015,0.253,0.141,0.485,0.257c0.052,0.027,0.129,0.066,0.195,0.102c0.02,0.012,0.041,0.022,0.061,0.032l-0.132-0.409
		c-0.02-0.058-0.028-0.058-0.037-0.058c-0.008,0-0.021,0-0.052,0.011c-0.008,0-0.017,0.002-0.022,0.002
		c-0.024,0-0.043-0.015-0.052-0.037c-0.002-0.015,0-0.026,0.003-0.037c0.011-0.022,0.036-0.03,0.052-0.035
		c0.033-0.01,0.069-0.019,0.097-0.024c0.028-0.008,0.046-0.015,0.061-0.017c0.02-0.006,0.063-0.022,0.118-0.039
		c0.011,0,0.02-0.004,0.031-0.004c0.025,0,0.044,0.011,0.049,0.033c0.006,0.016,0.003,0.03,0,0.041
		c-0.008,0.015-0.021,0.026-0.041,0.032c-0.011,0.001-0.017,0.005-0.031,0.011c-0.005,0.002-0.011,0.01,0.003,0.062l0.196,0.722
		c0.016,0.054-0.008,0.085-0.036,0.093c-0.038,0.011-0.066,0-0.088-0.012c-0.11-0.052-0.333-0.163-0.454-0.227
		c-0.105-0.052-0.212-0.109-0.284-0.148l0.118,0.364c0.025,0.074,0.039,0.082,0.039,0.082c0.016,0,0.032-0.002,0.052-0.008
		c0.033-0.011,0.069,0.006,0.077,0.035c0.003,0.012,0,0.024-0.002,0.035c-0.008,0.019-0.025,0.028-0.05,0.034
		c-0.055,0.017-0.102,0.027-0.132,0.037c-0.011,0.002-0.021,0.004-0.027,0.007c-0.002,0-0.008,0.004-0.02,0.006
		c-0.02,0.006-0.049,0.017-0.083,0.028c-0.011,0.107-0.049,0.23-0.083,0.323 M16.627,28.6l0.195,0.249c0,0,0.03-0.021,0.055-0.041
		c0.036-0.025,0.038-0.033,0.044-0.048c0.011-0.035,0.014-0.089-0.035-0.152c-0.039-0.049-0.08-0.074-0.126-0.074
		c-0.047,0-0.083,0.025-0.097,0.037C16.648,28.581,16.637,28.593,16.627,28.6 M17.453,28.161l0.074,0.169l0.096-0.099L17.453,28.161
		z M5.812,30.935L5.812,30.935c0,0.038,0.027,0.156,0.061,0.271c0.017-0.051,0.041-0.114,0.066-0.188
		c0.008-0.029,0.017-0.052,0.025-0.068c0.002-0.012,0.008-0.022,0.013-0.035c-0.013-0.006-0.024-0.008-0.038-0.016
		c0,0-0.008,0-0.02,0c-0.041,0-0.091,0.022-0.107,0.034 M9.513,31.214h0.209c1.102,0,2.194-0.152,3.083-0.434
		c0.046-0.013,0.09-0.031,0.138-0.046l0.014-0.008c0.021-0.007,0.041-0.013,0.063-0.021c0.01-0.005,0.024-0.009,0.041-0.011
		c0.017,0,0.031,0,0.043,0c-0.071-0.158-0.261-0.562-0.442-0.956c-0.059-0.12-0.113-0.241-0.166-0.354l-0.258-0.555
		c-0.059-0.115-0.196-0.189-0.35-0.191l-0.111,0.013c0,0-0.008,0-0.011,0.004h-0.005c-0.611,0.16-1.33,0.246-2.078,0.246H9.511
		H9.338c-0.752,0-1.47-0.086-2.082-0.242H7.242L7.13,28.641c-0.154,0-0.292,0.078-0.353,0.199c0,0-0.1,0.21-0.229,0.492L6.53,29.369
		c-0.011,0.022-0.022,0.049-0.034,0.071l-0.253,0.546c-0.138,0.298-0.265,0.571-0.331,0.711c0.034,0,0.063,0.004,0.088,0.015
		l0.094,0.029c0.032,0.012,0.063,0.022,0.096,0.034c0.008,0,0.017,0.005,0.028,0.007c0.886,0.281,1.982,0.436,3.08,0.436h0.209
		L9.513,31.214z M13.174,30.913l0.034,0.089c0.005-0.029,0.008-0.052,0.008-0.067l0,0C13.216,30.935,13.194,30.92,13.174,30.913
		 M5.305,30.946c0,0-0.02,0-0.031-0.008l-0.118-0.037c-0.075-0.025-0.113-0.044-0.144-0.08c-0.046-0.052-0.077-0.128-0.118-0.264
		c-0.011-0.039-0.025-0.084-0.037-0.119c-0.011-0.035-0.022-0.074-0.027-0.091l-0.074-0.024l-0.017,0.052
		c-0.028,0.092-0.052,0.17-0.061,0.214c-0.008,0.037-0.003,0.041,0,0.043c0.017,0.008,0.041,0.019,0.055,0.021
		c0.017,0.008,0.031,0.019,0.036,0.031c0.005,0.012,0.005,0.028,0,0.039c-0.008,0.022-0.027,0.036-0.052,0.036
		c-0.008,0-0.017,0-0.027-0.006c-0.059-0.019-0.127-0.045-0.166-0.058l-0.02-0.006c0,0-0.021-0.006-0.038-0.011
		c-0.034-0.012-0.08-0.022-0.114-0.034c-0.008,0-0.032-0.011-0.043-0.033c-0.005-0.013-0.008-0.025,0-0.041
		c0.011-0.029,0.038-0.044,0.077-0.029c0.011,0.004,0.022,0.006,0.033,0.006c0.008-0.01,0.017-0.032,0.022-0.036
		c0.02-0.044,0.049-0.136,0.083-0.237l0.085-0.268c0.066-0.203,0.074-0.234,0.085-0.277c0.007-0.032,0.005-0.035-0.011-0.043
		c-0.005-0.004-0.022-0.011-0.039-0.019C4.592,29.648,4.597,29.611,4.6,29.6c0.008-0.025,0.027-0.039,0.052-0.039
		c0.008,0,0.02,0,0.031,0.006c0.038,0.014,0.083,0.026,0.115,0.041c0.025,0.008,0.043,0.017,0.055,0.019
		c0.022,0.008,0.056,0.019,0.088,0.026c0.036,0.011,0.069,0.019,0.088,0.025c0.083,0.03,0.173,0.063,0.23,0.147
		c0.039,0.05,0.067,0.148,0.033,0.245c-0.035,0.109-0.112,0.188-0.247,0.251l0.019,0.054c0.05,0.14,0.088,0.255,0.126,0.337
		c0.039,0.086,0.077,0.104,0.094,0.115c0.008,0.006,0.017,0.008,0.022,0.011h0.005c0,0,0.021,0.014,0.027,0.022
		c0.011,0.014,0.011,0.03,0.008,0.047c-0.008,0.021-0.027,0.039-0.052,0.039 M4.798,30.175c0.017,0.009,0.038,0.021,0.063,0.027
		c0.025,0.008,0.039,0.012,0.049,0.012c0.005,0,0.011,0,0.02-0.006c0.028-0.009,0.077-0.043,0.111-0.146
		c0.063-0.193-0.072-0.246-0.088-0.249c-0.017-0.008-0.028-0.01-0.039-0.012l-0.118,0.372L4.798,30.175z M9.396,30.63L9.396,30.63
		c-0.047,0-0.094-0.004-0.129-0.007c-0.028,0-0.053-0.002-0.066-0.002H9.192c0,0-0.022,0-0.039,0c-0.036,0-0.082,0-0.113,0l0,0
		c-0.025,0-0.041-0.012-0.049-0.021c-0.008-0.012-0.014-0.024-0.011-0.037c0-0.028,0.021-0.053,0.06-0.053h0.011c0,0,0.02,0,0.022,0
		l0,0c0,0,0.004-0.011,0.007-0.033c0.005-0.052,0.008-0.148,0.011-0.264l0.011-0.498H8.966c-0.072,0-0.08,0.011-0.085,0.019
		c-0.008,0.015-0.014,0.025-0.017,0.033c-0.01,0.041-0.041,0.046-0.055,0.046c-0.014,0-0.027-0.005-0.035-0.017
		c-0.006-0.005-0.008-0.007-0.011-0.013C8.754,29.786,8.746,29.79,8.74,29.79H8.734c0,0-0.024-0.006-0.033-0.017
		c-0.017-0.018-0.014-0.039-0.014-0.047c0-0.011,0-0.026,0-0.03c-0.006-0.019-0.006-0.021-0.044-0.031
		c-0.014-0.002-0.127-0.019-0.229-0.035c-0.094-0.015-0.195-0.028-0.262-0.039l0.005,0.031c0.014,0.074,0.034,0.17,0.053,0.271
		c0.189,0.028,0.47,0.067,0.493,0.067c0.021,0,0.027,0,0.03,0c0.005-0.004,0.008-0.008,0.008-0.01
		c0.008-0.009,0.022-0.019,0.042-0.019h0.004c0,0,0.022,0.006,0.031,0.014c0.011,0.011,0.017,0.027,0.014,0.044
		c0,0.006,0,0.014-0.006,0.03c-0.003,0.015-0.008,0.037-0.017,0.068c-0.005,0.024-0.014,0.074-0.014,0.086
		c-0.004,0.058-0.043,0.063-0.055,0.063H8.734c0,0-0.024-0.01-0.033-0.021c-0.008-0.01-0.014-0.021-0.011-0.034
		c0-0.007,0-0.011,0-0.019c0-0.007,0-0.015,0-0.025c0-0.006,0-0.016-0.03-0.019c-0.019-0.004-0.245-0.041-0.421-0.063
		c0.022,0.111,0.042,0.214,0.056,0.282c0,0.008,0.002,0.017,0.005,0.024c0.011,0.028,0.028,0.039,0.033,0.043l0.281,0.031
		c0,0,0.034,0.002,0.049,0.002c0.025,0,0.039-0.002,0.045-0.004c0.013-0.007,0.024-0.015,0.038-0.062V30.37
		c0,0,0.02-0.047,0.058-0.047h0.005c0.017,0.002,0.05,0.017,0.042,0.08c-0.003,0.026-0.022,0.121-0.034,0.152
		c-0.011,0.022-0.028,0.054-0.074,0.054c-0.008,0-0.022,0-0.038-0.002c-0.069-0.009-0.129-0.015-0.182-0.021L8.47,30.578
		c-0.025-0.002-0.055-0.008-0.088-0.01c-0.021-0.003-0.043-0.005-0.069-0.009c-0.055-0.004-0.156-0.019-0.22-0.026
		c-0.019-0.004-0.074-0.015-0.069-0.066c0-0.019,0.014-0.037,0.031-0.041l-0.041-0.24l-0.243-0.044l-0.085,0.146
		c-0.014,0.022-0.021,0.047-0.025,0.056c0,0,0.003,0,0.005,0h0.02c0.037,0.01,0.052,0.033,0.049,0.065
		c-0.004,0.029-0.027,0.046-0.055,0.046c-0.006,0-0.011,0-0.016,0c-0.022-0.004-0.05-0.011-0.074-0.017
		c-0.022-0.006-0.042-0.009-0.059-0.013c-0.002,0-0.01,0-0.021,0c-0.028-0.004-0.071-0.008-0.119-0.017
		c-0.03-0.006-0.044-0.022-0.049-0.035c-0.008,0.001-0.017,0.001-0.025,0.001c-0.016,0-0.038-0.005-0.066-0.013
		c-0.071-0.022-0.138-0.045-0.209-0.07c-0.024-0.008-0.049-0.015-0.074-0.022c-0.027-0.01-0.055-0.021-0.08-0.026
		c-0.007-0.004-0.024-0.007-0.041-0.011l-0.022-0.006c0,0-0.027-0.009-0.041-0.011c-0.014-0.002-0.031-0.008-0.044-0.01
		c-0.022-0.007-0.036-0.019-0.044-0.033c-0.006-0.015-0.008-0.028-0.003-0.041c0.008-0.031,0.042-0.045,0.074-0.033
		c0.022,0.004,0.031,0.004,0.031,0.004s0.008-0.012,0.016-0.03c0.017-0.045,0.045-0.123,0.073-0.214l0.099-0.319
		c0.044-0.144,0.055-0.173,0.063-0.211c0.004-0.015-0.001-0.029-0.014-0.037c-0.019-0.015-0.01-0.005-0.024-0.011
		c-0.02-0.006-0.033-0.017-0.039-0.029c-0.008-0.016-0.008-0.028-0.002-0.045c0.005-0.022,0.025-0.037,0.05-0.037
		c0.008,0,0.019,0,0.03,0.007c0.034,0.012,0.072,0.022,0.105,0.034c0.021,0.007,0.044,0.013,0.055,0.019
		c0.014,0.002,0.038,0.011,0.069,0.019c0.035,0.011,0.077,0.022,0.102,0.029c0.016,0.008,0.035,0.012,0.046,0.033
		c0.006,0.012,0.008,0.028,0.003,0.041c-0.011,0.03-0.042,0.049-0.077,0.034c-0.011-0.004-0.028-0.008-0.036-0.008
		c-0.003,0-0.005,0-0.005,0s-0.008,0.004-0.017,0.026c-0.011,0.031-0.022,0.061-0.058,0.175l-0.028,0.087l-0.066,0.222
		c-0.031,0.097-0.069,0.214-0.061,0.237c0.003,0.01,0.024,0.026,0.121,0.056c0.055,0.018,0.091,0.026,0.115,0.012
		c0.009-0.006,0.028-0.028,0.034-0.047c0.005-0.013,0.022-0.042,0.055-0.042h0.017c0.014,0.009,0.025,0.019,0.03,0.029
		c0.008,0.015,0.008,0.033,0,0.06c-0.003,0.011-0.025,0.066-0.047,0.109l0,0c0,0,0.008,0,0.014,0c0.005,0,0.011,0,0.017,0
		c0.03,0,0.046-0.017,0.083-0.076l0.459-0.755c0.02-0.033,0.041-0.066,0.077-0.066h0.008c0.024,0.003,0.201,0.033,0.372,0.061
		c0.129,0.022,0.261,0.045,0.275,0.045h0.003c0,0,0.021,0,0.03,0h0.008c0,0,0,0,0.003,0c0.005,0,0.014-0.004,0.025-0.004h0.008
		c0,0,0.027,0.012,0.036,0.024c0.005,0,0.011-0.002,0.017-0.002c0.014,0,0.024,0.006,0.033,0.01
		c0.008,0.002,0.017,0.004,0.028,0.007c0.032,0.006,0.08,0.008,0.115,0.008l0.512,0.015c0.022,0,0.041,0,0.061-0.004
		c0.011,0,0.017,0,0.022-0.002c0.009,0,0.014,0,0.02,0h0.003c0,0,0.021,0.006,0.03,0.012c0.011-0.01,0.025-0.012,0.047-0.013
		c0.03,0,0.074,0,0.11-0.004c0.022,0,0.041,0,0.055,0c0.011,0,0.034,0,0.055-0.004c0.034,0,0.072-0.004,0.103-0.004
		c0,0,0.005,0,0.008,0c0.027,0,0.044,0.012,0.052,0.024c0.008-0.039,0.036-0.045,0.046-0.045h0.005c0,0,0.017,0,0.025,0.002
		c0.008,0,0.017,0.008,0.03,0.008h0.005c0.028,0,0.067-0.004,0.111-0.01l0.493-0.058c0.032-0.004,0.058-0.007,0.074-0.015
		c0.008,0,0.014-0.004,0.02-0.004c0.007-0.004,0.013-0.007,0.021-0.007h0.005c0,0,0.025,0.003,0.034,0.011
		c0.008-0.011,0.024-0.019,0.049-0.022c0.02-0.004,0.046-0.009,0.077-0.015c0.032-0.006,0.066-0.012,0.085-0.015
		c0.017,0,0.043-0.008,0.074-0.014c0.027-0.005,0.058-0.011,0.08-0.017c0.008,0,0.013,0,0.019,0c0.036,0,0.053,0.022,0.056,0.041
		c0.003,0.015,0,0.03-0.008,0.045c-0.005,0.007-0.02,0.022-0.042,0.025c-0.008,0-0.016,0.004-0.024,0.008s-0.011,0.006-0.011,0.006
		s0,0.005,0,0.029c0.005,0.035,0.011,0.069,0.035,0.212l0.053,0.286c0.021,0.116,0.041,0.226,0.058,0.277
		c0.005,0.019,0.008,0.021,0.008,0.022c0,0,0,0,0.007,0c0.017,0,0.042,0,0.059-0.004c0.007,0,0.021,0,0.03,0c0,0,0,0,0.003,0
		c0.005,0,0.011-0.004,0.017-0.007c0.025-0.012,0.033-0.032,0.041-0.101l0.113-0.878c0.003-0.033,0.011-0.085,0.052-0.097
		c0.005,0,0.011,0,0.017,0c0.033,0,0.052,0.024,0.072,0.049c0.021,0.029,0.096,0.136,0.184,0.262
		c0.113,0.16,0.245,0.352,0.314,0.448c0.061,0.085,0.09,0.093,0.096,0.093c0.014,0,0.028-0.002,0.042-0.004c0.003,0,0.008,0,0.014,0
		c0.027,0,0.049,0.016,0.055,0.045c0.003,0.015,0,0.029-0.006,0.037c-0.014,0.022-0.036,0.028-0.074,0.039l-0.031,0.008
		c-0.046,0.011-0.118,0.027-0.201,0.046h-0.005c0,0-0.021,0.008-0.03,0.008c-0.031,0-0.047-0.021-0.053-0.037
		c-0.005-0.019,0-0.037,0.011-0.049l-0.135-0.2l-0.239,0.056l-0.02,0.169c0,0.024,0,0.047,0,0.063c0,0,0.005,0,0.008,0l0.017-0.006
		c0,0,0.013,0,0.019,0c0.028,0,0.047,0.017,0.055,0.041c0.003,0.015,0.006,0.056-0.043,0.068c-0.025,0.006-0.049,0.012-0.074,0.018
		c-0.022,0.005-0.044,0.007-0.061,0.011h-0.011c-0.025,0.011-0.074,0.024-0.124,0.037c-0.017,0.004-0.028,0.004-0.039,0
		c-0.046,0.01-0.093,0.019-0.132,0.022c-0.027,0.004-0.049,0.009-0.061,0.011c-0.014,0-0.038,0.01-0.063,0.016
		c-0.032,0.007-0.066,0.013-0.094,0.019c-0.005,0-0.01,0-0.016,0c-0.031,0-0.053-0.016-0.059-0.045
		c-0.006-0.026,0.011-0.06,0.053-0.065c0.014,0,0.021-0.005,0.027-0.009h0.003c0,0,0-0.014,0-0.026
		c-0.003-0.052-0.024-0.163-0.043-0.279l-0.063-0.344c-0.017-0.095-0.022-0.124-0.031-0.158c-0.005-0.021-0.011-0.025-0.02-0.025
		c-0.004,0-0.016,0-0.03,0c-0.022,0.004-0.028,0-0.039,0c0,0.005,0,0.015,0,0.019c0.002,0.039,0.008,0.082,0.011,0.104v0.008
		c0,0.054-0.032,0.063-0.046,0.063h-0.005c-0.03,0-0.049-0.021-0.055-0.06v-0.013c-0.008-0.022-0.047-0.032-0.11-0.024l-0.11,0.011
		l0.058,0.483c0.014,0.111,0.028,0.218,0.039,0.273c0.006,0.021,0.007,0.028,0.007,0.028s0,0,0.006,0c0.02,0,0.042,0,0.056-0.004
		h0.007c0.031,0,0.056,0.019,0.062,0.048c0.003,0.026-0.014,0.056-0.059,0.063c-0.046,0.004-0.093,0.01-0.129,0.013
		c-0.027,0-0.052,0.006-0.066,0.006c-0.014,0-0.035,0.004-0.063,0.012c-0.033,0.003-0.069,0.011-0.096,0.013
		c-0.006,0-0.009,0-0.011,0c-0.042,0-0.059-0.028-0.062-0.051v-0.003c0-0.026,0.017-0.053,0.056-0.06
		c0.013,0,0.027-0.004,0.03-0.004c0,0,0-0.01,0-0.037c0-0.052-0.013-0.154-0.027-0.271l-0.059-0.485l-0.138,0.021
		c-0.071,0.009-0.076,0.021-0.079,0.029c-0.008,0.014-0.011,0.026-0.011,0.036c-0.006,0.05-0.042,0.054-0.053,0.054
		c-0.01,0-0.049,0-0.058-0.056c0-0.019,0-0.078,0.003-0.123c-0.011,0.011-0.024,0.017-0.044,0.019c-0.008,0-0.014,0-0.028,0.008
		c-0.005,0-0.008,0.002-0.008,0.002s0,0.005-0.003,0.031c0,0.041,0,0.078,0.011,0.275l0.011,0.23c0.005,0.111,0.011,0.225,0.02,0.28
		c0.003,0.017,0.005,0.019,0.005,0.021c0,0,0,0,0.009,0c0.013,0,0.038,0.004,0.055,0h0.005c0.03,0,0.052,0.021,0.058,0.049v0.007
		c0,0.028-0.02,0.056-0.063,0.06c-0.052,0-0.103,0.002-0.143,0.002c-0.022,0-0.042,0-0.055,0c-0.011,0-0.033,0-0.058,0.006
		c-0.033,0.002-0.074,0.004-0.102,0.007H9.748c-0.041,0-0.061-0.023-0.063-0.048v-0.008c0-0.023,0.02-0.052,0.058-0.056
		c0.017,0,0.028,0,0.033-0.004c0,0,0.003-0.005,0.005-0.027c0-0.052,0-0.156-0.007-0.281l-0.014-0.28
		c-0.008-0.156-0.011-0.188-0.014-0.225c-0.002-0.026-0.005-0.028-0.017-0.03c-0.005,0-0.019,0-0.027,0H9.696
		c0,0-0.017,0-0.022-0.004c0,0.017,0,0.035,0,0.056c0,0.026,0,0.055-0.003,0.067c-0.005,0.062-0.043,0.063-0.052,0.063
		c-0.022,0-0.052-0.01-0.055-0.065V29.79c0-0.019-0.033-0.039-0.102-0.041l-0.113-0.008l-0.014,0.487c0,0.089-0.006,0.216,0,0.275
		c0,0.025,0.005,0.031,0.005,0.031s0,0,0.006,0c0.01,0,0.035,0.006,0.055,0.006c0.035,0,0.061,0.027,0.061,0.056
		c0,0.029-0.022,0.054-0.066,0.054 M9.753,30.56v0.026l0,0V30.56L9.753,30.56 M10.478,30.511v0.026V30.511L10.478,30.511z
		 M7.859,30.015l0.132,0.024l-0.031-0.197l-0.099,0.173H7.859z M11.867,29.667l-0.02,0.201l0.129-0.032L11.867,29.667z
		 M14.634,30.619L14.634,30.619c-0.234,0-0.389-0.179-0.449-0.329c-0.088-0.229-0.038-0.528,0.283-0.654
		c0.075-0.028,0.146-0.045,0.215-0.045c0.19,0,0.347,0.113,0.424,0.314c0.113,0.29,0,0.566-0.275,0.673
		c-0.066,0.029-0.132,0.043-0.198,0.043 M14.581,29.768c-0.03,0-0.058,0.006-0.087,0.017c-0.039,0.013-0.088,0.047-0.116,0.104
		c-0.03,0.068-0.021,0.161,0.025,0.276c0.069,0.171,0.19,0.279,0.322,0.279c0.033,0,0.064-0.006,0.097-0.019
		c0.028-0.012,0.074-0.037,0.1-0.097c0.03-0.071,0.021-0.171-0.028-0.294c-0.066-0.167-0.184-0.271-0.312-0.271 M3.956,30.467
		L3.956,30.467c-0.072,0-0.143-0.016-0.215-0.045c-0.138-0.056-0.237-0.15-0.287-0.271c-0.055-0.138-0.049-0.314,0.02-0.469
		c0.075-0.173,0.259-0.375,0.522-0.375c0.075,0,0.149,0.019,0.223,0.048c0.149,0.06,0.254,0.156,0.303,0.281
		c0.052,0.128,0.044,0.28-0.025,0.437c-0.107,0.242-0.316,0.395-0.545,0.395 M4.03,29.459c-0.121,0-0.226,0.097-0.306,0.28
		c-0.066,0.149-0.077,0.298-0.033,0.407c0.03,0.071,0.083,0.125,0.157,0.154c0.016,0.01,0.046,0.017,0.079,0.017
		c0.122,0,0.229-0.102,0.314-0.297c0.066-0.149,0.077-0.29,0.033-0.395c-0.027-0.066-0.079-0.121-0.145-0.148
		c-0.034-0.014-0.064-0.019-0.097-0.019 M3.091,30.064L3.091,30.064c-0.069,0-0.14-0.019-0.212-0.059
		c-0.008-0.004-0.02-0.01-0.033-0.02c-0.014-0.007-0.031-0.019-0.047-0.025c-0.032-0.022-0.063-0.039-0.083-0.049
		c-0.002,0-0.01-0.003-0.019-0.007c-0.014-0.006-0.031-0.016-0.047-0.022c-0.016-0.008-0.03-0.017-0.044-0.022
		c-0.014-0.008-0.028-0.013-0.038-0.019c0,0-0.005-0.004-0.008-0.004c-0.02,0-0.039-0.007-0.074-0.033
		c-0.045-0.03-0.126-0.082-0.207-0.14H2.274c-0.019-0.017-0.06-0.046-0.033-0.087c0.014-0.019,0.031-0.026,0.05-0.026l0.063-0.266
		l-0.209-0.138l-0.151,0.115c-0.028,0.022-0.048,0.041-0.052,0.05c-0.004,0.004-0.004,0.004,0,0
		c0.004-0.009,0.002,0.002,0.007,0.004l0.017,0.015c0,0,0.025,0.017,0.031,0.035c0.003,0.014,0,0.028-0.008,0.039
		c-0.017,0.022-0.036,0.026-0.046,0.026c-0.017,0-0.028-0.007-0.039-0.015c-0.017-0.012-0.035-0.026-0.055-0.039
		s-0.042-0.03-0.058-0.041c-0.006-0.006-0.017-0.011-0.034-0.022c-0.027-0.017-0.063-0.039-0.1-0.062
		c-0.007-0.003-0.03-0.019-0.032-0.042c0-0.012,0-0.022,0.005-0.032c-0.008,0.004-0.017,0.008-0.028,0.008
		c-0.033,0-0.058-0.022-0.096-0.056c-0.05-0.047-0.091-0.086-0.127-0.121c-0.019-0.021-0.035-0.033-0.052-0.05
		c-0.043-0.045-0.08-0.082-0.124-0.123c-0.011-0.012-0.036-0.032-0.061-0.056c-0.014-0.012-0.028-0.022-0.039-0.037
		c-0.013-0.012-0.024-0.021-0.035-0.03c-0.046-0.046-0.022-0.078-0.014-0.087c0.008-0.012,0.022-0.017,0.039-0.017
		c0.019,0,0.035,0.011,0.046,0.021c0.014,0.016,0.027,0.022,0.035,0.028c0,0,0.008-0.004,0.036-0.024
		c0.038-0.033,0.104-0.105,0.182-0.186l0.185-0.197c0.141-0.148,0.167-0.179,0.195-0.216c0.022-0.025,0.022-0.029,0.008-0.048
		c-0.005-0.01-0.014-0.021-0.025-0.03c-0.043-0.043-0.022-0.076-0.011-0.083c0.008-0.012,0.022-0.018,0.039-0.018
		c0.021,0,0.041,0.016,0.055,0.026c0.028,0.026,0.058,0.056,0.086,0.084c0.021,0.022,0.043,0.044,0.055,0.056
		c0.008,0.007,0.022,0.019,0.038,0.035c0.036,0.029,0.08,0.07,0.108,0.097c0.046,0.045,0.028,0.076,0.017,0.088
		c-0.011,0.011-0.025,0.017-0.039,0.017c-0.022,0-0.038-0.012-0.049-0.022c-0.014-0.014-0.028-0.024-0.039-0.03
		c-0.007-0.005-0.01-0.005-0.01-0.005s-0.008,0-0.03,0.021c-0.031,0.03-0.061,0.062-0.201,0.211l-0.171,0.18
		c-0.083,0.092-0.162,0.173-0.165,0.201c0,0.017,0.013,0.043,0.093,0.117c0.053,0.045,0.086,0.076,0.116,0.076
		c0.019,0,0.049-0.013,0.063-0.024c0.011-0.009,0.024-0.021,0.043-0.021c0.014,0,0.028,0.006,0.039,0.017
		c0.013,0.018,0.03,0.045-0.005,0.082c-0.008,0.01-0.061,0.056-0.103,0.09c0.014,0,0.025,0.007,0.031,0.011l0.011,0.004
		c0,0,0.013,0.009,0.019,0.011c0.008,0.008,0.02,0.008,0.028,0.008c0.025,0,0.055-0.019,0.094-0.045L2.618,28.6
		c0.03-0.022,0.052-0.035,0.077-0.035c0.011,0,0.021,0,0.03,0.01c0.036,0.02,0.028,0.066,0.022,0.097
		c-0.009,0.037-0.036,0.169-0.072,0.323c-0.043,0.195-0.099,0.44-0.124,0.565c-0.025,0.118-0.003,0.141,0.002,0.15
		c0.009,0.011,0.02,0.019,0.03,0.024c0.011,0,0.025,0,0.039,0.011c0.011,0.006,0.022,0.011,0.033,0.015c0,0,0.008-0.009,0.025-0.033
		c0.034-0.05,0.088-0.152,0.141-0.253l0.112-0.216c0.1-0.189,0.116-0.22,0.133-0.258c0.013-0.034,0.013-0.034,0-0.047
		c-0.006-0.008-0.02-0.015-0.037-0.022c-0.052-0.029-0.038-0.068-0.032-0.08c0.007-0.017,0.027-0.027,0.046-0.027
		c0.014,0,0.025,0.005,0.041,0.011c0.03,0.017,0.063,0.035,0.091,0.052s0.052,0.03,0.063,0.034c0.036,0.019,0.063,0.033,0.091,0.044
		c0.02,0.008,0.038,0.019,0.055,0.026c0.102,0.052,0.163,0.119,0.187,0.193c0.025,0.078,0,0.144-0.019,0.177
		c-0.047,0.091-0.119,0.132-0.196,0.156c0.069,0.099,0.108,0.236,0.039,0.37c-0.058,0.111-0.168,0.178-0.294,0.178 M3.083,29.492
		l-0.138,0.261c-0.038,0.074-0.035,0.081-0.024,0.095c0.019,0.023,0.041,0.035,0.063,0.05c0.008,0.004,0.03,0.013,0.058,0.013
		c0.044,0,0.08-0.027,0.107-0.079c0.022-0.041,0.069-0.153,0.014-0.265c-0.011-0.019-0.024-0.039-0.066-0.063
		C3.091,29.5,3.086,29.496,3.08,29.496 M3.146,29.367c0,0,0.014,0.01,0.025,0.014c0.033,0.019,0.049,0.022,0.066,0.019
		c0.034-0.01,0.063-0.039,0.088-0.086c0.027-0.05,0.032-0.107,0.022-0.148c-0.009-0.028-0.025-0.049-0.05-0.062H3.29
		c0,0-0.003-0.006-0.006-0.006l-0.139,0.269L3.146,29.367z M2.283,29.052L2.4,29.128l0.052-0.205l-0.167,0.129H2.283z
		 M16.872,26.943c-0.041,0-0.08,0.017-0.118,0.05c-0.094,0.076-0.174,0.294-0.226,0.608c0.223-0.205,0.352-0.374,0.424-0.489
		l0.02-0.029c0,0,0.005-0.012,0.01-0.019c0.022-0.063-0.03-0.099-0.052-0.11c-0.014-0.006-0.024-0.009-0.035-0.009
		c-0.008,0-0.014,0-0.022,0 M2.169,27.067L2.2,27.116c0.069,0.113,0.198,0.282,0.424,0.487c-0.049-0.312-0.129-0.534-0.223-0.608
		c-0.046-0.039-0.094-0.052-0.143-0.047c-0.011,0-0.025,0.006-0.035,0.008c-0.014,0.01-0.062,0.039-0.056,0.086l0,0
		c0,0,0.002,0.017,0.005,0.025 M14.383,27.46c-0.284,0-0.869-0.476-1.37-1.114c-1.044,0.662-2.249,1.011-3.494,1.011
		c-1.307,0-2.565-0.383-3.645-1.108l-0.008,0.013c-0.487,0.681-1.071,1.147-1.332,1.189c-0.058,0.01-0.111,0-0.149-0.027
		c-0.212-0.152,0.102-1.045,0.625-1.774l0.041-0.06c-0.049-0.046-0.099-0.093-0.148-0.143c-1.234-1.231-1.913-2.871-1.913-4.613
		v-7.898l-0.658-0.719l-0.215,0.116l-0.08,0.041c-0.061,0.033-0.138,0.036-0.212,0.014c-0.085-0.028-0.16-0.088-0.195-0.16
		c-0.063-0.121-0.049-0.295,0.061-0.385l-0.333-0.353c-0.069,0.038-0.168,0.09-0.168,0.09c-0.061,0.033-0.135,0.036-0.209,0.014
		c-0.088-0.028-0.166-0.091-0.204-0.165c-0.038-0.075-0.046-0.17-0.022-0.253c0.011-0.03,0.025-0.061,0.044-0.085
		c-0.097-0.024-0.188-0.066-0.272-0.124C0.226,10.726,0.052,10.344,0,9.786c-0.005-0.05,0.028-0.097,0.075-0.114
		c0.03-0.01,0.066-0.002,0.094,0.017C0.16,9.631,0.157,9.576,0.157,9.516c0-0.283,0.083-0.581,0.245-0.887
		c0.022-0.041,0.066-0.063,0.113-0.055c0.044,0.008,0.08,0.043,0.087,0.091c0.003,0.021,0.006,0.041,0.011,0.063
		c0.031-0.111,0.074-0.218,0.135-0.326c0.091-0.162,0.138-0.39,0.138-0.682c0-0.335-0.061-0.627-0.063-0.63c0-0.008,0-0.017,0-0.025
		c0-0.036,0.02-0.069,0.048-0.087c0.032-0.022,0.085-0.022,0.118,0C1.014,6.994,1.561,7.382,1.891,7.99
		C1.916,7.87,1.949,7.735,1.994,7.589c0.014-0.044,0.055-0.077,0.101-0.077c0.047,0,0.088,0.03,0.102,0.074
		C2.329,8.018,2.406,8.228,2.552,8.42c0.255,0.335,0.407,0.589,0.399,0.845c0.02-0.008,0.042-0.011,0.063-0.014
		C3.1,9.241,3.191,9.268,3.257,9.32C3.323,9.373,3.369,9.46,3.38,9.548c0,0.014,0,0.028,0,0.039c0,0.063-0.02,0.121-0.055,0.165
		L3.208,9.901l0.284,0.394c0.043-0.039,0.101-0.059,0.165-0.063c0.088-0.005,0.176,0.024,0.234,0.082
		c0.163,0.16,0.135,0.328,0.06,0.421l-0.049,0.063c0,0-0.085,0.108-0.157,0.196l0.531,0.71h10.958
		c0.182-0.262,0.466-0.732,0.446-1.074c0-0.031,0.008-0.06,0.031-0.08c0.019-0.02,0.046-0.034,0.076-0.034
		c0.02,0,0.438,0,0.73-0.184c-0.187-0.135-0.699-0.501-0.699-0.501l-0.163-0.115c-0.046-0.034-0.107-0.047-0.165-0.039
		c-0.058,0.011-0.108,0.042-0.141,0.088c-0.069,0.097-0.047,0.229,0.055,0.309c0.046,0.038,0.115,0.063,0.173,0.063
		c0.02,0,0.039-0.003,0.053-0.008c0.046-0.02,0.104,0,0.129,0.044c0.027,0.044,0.02,0.102-0.022,0.135
		c-0.132,0.116-0.3,0.179-0.473,0.179c-0.151,0-0.297-0.047-0.418-0.135c-0.19-0.135-0.3-0.355-0.3-0.589
		c0-0.151,0.047-0.297,0.135-0.418c0.025-0.035,0.058-0.071,0.097-0.104c-0.044-0.028-0.08-0.05-0.08-0.05
		c-0.27-0.192-0.542-0.493-0.542-0.729c0-0.059,0.016-0.11,0.046-0.154c0.055-0.074,0.143-0.113,0.258-0.113
		c0.198,0,0.479,0.113,0.733,0.295l0.074,0.06c0.02-0.049,0.043-0.087,0.069-0.124c0.135-0.187,0.355-0.3,0.589-0.3
		c0.15,0,0.296,0.047,0.418,0.135c0.189,0.135,0.299,0.355,0.299,0.589c0,0.08-0.013,0.163-0.041,0.243v0.007
		c-0.022,0.053-0.083,0.08-0.135,0.064c-0.055-0.017-0.085-0.074-0.072-0.13c0.024-0.087-0.008-0.181-0.083-0.233
		c-0.046-0.033-0.105-0.047-0.163-0.039c-0.058,0.009-0.11,0.042-0.144,0.088c-0.024,0.037-0.038,0.077-0.038,0.121
		c0,0.071,0.036,0.138,0.094,0.188c0,0,0.705,0.507,0.889,0.639c0.132-0.188,0.655-0.914,0.655-0.914
		c0.008-0.008,0.041-0.059,0.041-0.122c0-0.008,0-0.017,0-0.027c-0.011-0.069-0.061-0.138-0.149-0.202
		c-0.058-0.041-0.112-0.058-0.165-0.043c-0.071,0.017-0.141,0.08-0.199,0.187c-0.019,0.034-0.055,0.056-0.093,0.056
		c-0.039,0-0.074-0.022-0.094-0.058c-0.005-0.011-0.154-0.303,0.08-0.641c0.143-0.209,0.39-0.254,0.575-0.254
		c0.093,0,0.162,0.011,0.176,0.014c0,0,0.055,0.008,0.143,0.008c0.191,0,0.564-0.034,0.919-0.261
		c0.037-0.022,0.085-0.022,0.121,0.002C19,7.566,19.016,7.611,19.005,7.655c-0.149,0.589,0.096,1.082,0.099,1.087
		c0.024,0.047,0.25,0.473,0.016,0.787c-0.193,0.259-0.433,0.287-0.525,0.287c-0.031,0-0.05,0-0.058-0.003
		c-0.039-0.005-0.073-0.033-0.083-0.072c-0.014-0.035-0.005-0.076,0.021-0.104c0.083-0.091,0.122-0.179,0.116-0.251
		c-0.005-0.052-0.039-0.102-0.097-0.143c-0.071-0.049-0.138-0.076-0.198-0.076c-0.103,0-0.16,0.071-0.171,0.084l-0.651,0.911
		c0.181,0.133,0.892,0.639,0.892,0.639c0.041,0.025,0.088,0.039,0.135,0.039c0.071,0,0.135-0.034,0.174-0.088
		c0.032-0.046,0.046-0.104,0.038-0.163c-0.008-0.058-0.041-0.107-0.088-0.144c-0.072-0.052-0.176-0.052-0.25-0.001
		c-0.047,0.03-0.114,0.019-0.146-0.025c-0.014-0.02-0.022-0.042-0.022-0.063c0-0.031,0.014-0.063,0.039-0.083
		c0,0,0.005-0.005,0.007-0.005c0.127-0.103,0.287-0.157,0.449-0.157c0.151,0,0.297,0.047,0.421,0.135
		c0.157,0.113,0.262,0.278,0.292,0.469c0.006,0.038,0.011,0.08,0.011,0.118c0,0.151-0.046,0.294-0.135,0.418
		c-0.025,0.037-0.058,0.072-0.094,0.105l0.08,0.049c0.27,0.195,0.54,0.493,0.54,0.73c0,0.058-0.016,0.11-0.047,0.153
		c-0.041,0.059-0.104,0.094-0.187,0.108c-0.202,0.033-0.515-0.08-0.807-0.289c0,0-0.035-0.028-0.074-0.061
		c-0.02,0.046-0.044,0.088-0.069,0.124c-0.135,0.187-0.355,0.3-0.588,0.3c-0.152,0-0.298-0.047-0.422-0.135
		c-0.272-0.196-0.374-0.55-0.247-0.859c0.02-0.046,0.072-0.074,0.121-0.063c0.05,0.011,0.086,0.058,0.083,0.11
		c-0.003,0.061,0.052,0.149,0.124,0.192c0.042,0.028,0.088,0.042,0.138,0.042c0.071,0,0.132-0.034,0.174-0.088
		c0.027-0.035,0.041-0.08,0.041-0.126c0-0.071-0.033-0.138-0.09-0.179c0,0-0.65-0.465-0.859-0.617
		c-0.02,0.075-0.028,0.152-0.028,0.226c0,0.272,0.088,0.521,0.088,0.521c0.005,0.013,0.005,0.024,0.005,0.038
		c0,0.017-0.003,0.034-0.011,0.049c-0.014,0.028-0.038,0.047-0.066,0.056c-0.407,0.11-0.839,0.71-0.963,0.892l-0.005,0.008
		c0,0-0.033,0.047-0.036,0.055l-0.038,0.055v8.146c0,1.744-0.684,3.384-1.914,4.615c-0.071,0.071-0.14,0.138-0.212,0.201
		c0.462,0.71,0.801,1.612,0.57,1.781c-0.03,0.021-0.066,0.031-0.11,0.031 M5.214,25.694c-0.017,0.021-0.027,0.039-0.027,0.039
		c-0.46,0.64-0.653,1.262-0.658,1.463c0.157-0.053,0.682-0.426,1.164-1.099l0.008-0.013c-0.173-0.125-0.338-0.254-0.49-0.39
		 M13.202,26.181c0.499,0.631,0.994,0.973,1.143,1.014l0,0c0-0.166-0.151-0.75-0.595-1.436
		C13.571,25.913,13.386,26.053,13.202,26.181 M3.317,12.048v8.745c0,0.916,0.195,1.795,0.578,2.611
		c0.11,0.223,0.229,0.444,0.353,0.655c0.247,0.397,0.544,0.773,0.883,1.112c1.17,1.166,2.723,1.811,4.377,1.811
		c1.655,0,3.208-0.646,4.374-1.811c1.17-1.168,1.814-2.724,1.817-4.375v-8.746H3.317V12.048z M12.12,26.373l-0.104-0.077
		c-0.058-0.041-0.292-0.212-0.369-0.266c-0.077,0.054-0.309,0.225-0.366,0.266l-0.104,0.075l0.038-0.121
		c0.022-0.067,0.11-0.338,0.137-0.429c-0.077-0.056-0.313-0.229-0.371-0.27l-0.105-0.078h0.129c0.072,0,0.364,0,0.46,0
		c0.03-0.089,0.121-0.368,0.14-0.437l0.038-0.125l0.182,0.562c0.093,0,0.379,0,0.451,0h0.126l-0.102,0.074
		c-0.058,0.041-0.289,0.212-0.366,0.268c0.031,0.091,0.118,0.366,0.141,0.435l0.038,0.123H12.12z M7.837,26.373l-0.104-0.075
		c-0.059-0.041-0.292-0.212-0.369-0.266c-0.078,0.054-0.309,0.225-0.367,0.266l-0.105,0.075l0.042-0.119
		c0.021-0.067,0.11-0.34,0.14-0.432c-0.077-0.054-0.314-0.227-0.372-0.27l-0.104-0.076h0.129c0.072,0,0.364,0,0.459,0l0.182-0.56
		l0.038,0.125c0.022,0.067,0.113,0.346,0.14,0.439c0.094,0,0.383,0,0.452,0h0.126l-0.103,0.072
		c-0.055,0.043-0.289,0.212-0.365,0.268c0.03,0.091,0.118,0.366,0.141,0.435l0.041,0.121L7.837,26.373z M9.508,25.357
		c-2.516,0-4.566-2.049-4.569-4.563v-7.124h9.14v7.121c-0.003,2.518-2.051,4.563-4.57,4.563 M5.28,14.008v6.783
		c0,2.328,1.899,4.223,4.228,4.223s4.225-1.896,4.229-4.225V16.89l-0.053,0.025c-0.233,0.109-0.289,0.25-0.363,0.429
		c-0.041,0.099-0.082,0.204-0.146,0.3c-0.096,0.144-0.27,0.245-0.465,0.272c-0.157,0.021-0.319-0.008-0.455-0.083
		c-0.055,0.083-0.079,0.167-0.079,0.25c0,0.267,0.075,0.43,0.291,0.62c0.017-0.077,0.05-0.146,0.08-0.19l0.212-0.3l0.044,0.363
		c0.016,0.138,0.041,0.151,0.121,0.193c0.046,0.024,0.115,0.061,0.184,0.126c0.097,0.093,0.149,0.209,0.149,0.33
		c0,0.08-0.021,0.16-0.061,0.24c0.069,0.146,0.102,0.294,0.102,0.454c0,0.249-0.088,0.455-0.259,0.601
		c-0.204,0.176-0.47,0.22-0.668,0.226c-0.003,0.035-0.008,0.071-0.014,0.103c0.06-0.002,0.115-0.022,0.137-0.03l0.249-0.104
		L12.69,20.98c-0.021,0.102-0.077,0.189-0.162,0.256c0.01,0.019,0.016,0.041,0.016,0.063c0,0.058-0.032,0.104-0.058,0.137
		c-0.058,0.082-0.192,0.223-0.432,0.223c-0.072,0-0.149-0.015-0.228-0.039c-0.014,0.017-0.022,0.032-0.028,0.045
		c-0.011,0.021-0.014,0.039-0.014,0.046s0,0.015,0.005,0.019c0.02,0.041,0.105,0.078,0.143,0.085h0.014l0.003,0.007
		c0.049,0.015,0.104,0.026,0.16,0.032c0.167,0.017,0.291,0.046,0.363,0.14c0.036,0.048,0.053,0.102,0.053,0.171
		c0,0.048-0.008,0.097-0.017,0.145v0.007c0,0,0,0.008-0.006,0.022c0.118-0.011,0.259-0.097,0.261-0.101l0.066-0.041v0.078
		c-0.003,0.015-0.021,0.387-0.259,0.494l-0.005,0.034c-0.017,0.13-0.08,0.223-0.184,0.279c0,0.011,0,0.019,0,0.019
		c-0.014,0.108-0.083,0.184-0.198,0.225c-0.014,0.028-0.033,0.062-0.033,0.062c-0.108,0.203-0.278,0.305-0.507,0.305
		c-0.08,0-0.151-0.011-0.206-0.019h-0.017c-0.024-0.007-0.049-0.011-0.063-0.011c-0.104,0-0.179,0.03-0.218,0.082
		c-0.02,0.026-0.024,0.048-0.027,0.063c0.066,0.063,0.104,0.153,0.104,0.25c0,0.013,0,0.029,0,0.044
		c-0.008,0.082-0.041,0.152-0.093,0.205l0,0c0,0.082-0.025,0.148-0.067,0.184c-0.072,0.065-0.167,0.097-0.278,0.097
		c-0.087,0-0.154-0.022-0.156-0.022l-0.064-0.019l0.045-0.046c0,0,0.071-0.078,0.08-0.154c-0.053-0.034-0.094-0.08-0.119-0.132
		c-0.049,0.015-0.099,0.019-0.149,0.013c-0.013,0-0.03-0.009-0.046-0.013c-0.017,0.045-0.033,0.11-0.044,0.151l-0.011,0.058
		l-0.049-0.03c0,0-0.223-0.138-0.234-0.327v-0.011c0-0.041,0.011-0.119,0.088-0.195c0-0.005,0-0.013,0-0.021
		c0.005-0.033,0.014-0.065,0.03-0.097c-0.049-0.032-0.09-0.078-0.118-0.13c-0.034,0.019-0.072,0.054-0.097,0.078l-0.046,0.05
		l-0.025-0.063c0,0-0.101-0.286,0.061-0.463c0.056-0.06,0.141-0.078,0.257-0.06c0.063-0.034,0.135-0.044,0.206-0.037
		c0.149,0.021,0.226,0.136,0.27,0.205c0.011,0.003,0.034,0.007,0.069,0.015l0,0c0,0,0.046-0.007,0.115-0.056
		c0.218-0.166,0.474-0.591,0.507-0.842c0-0.006,0-0.011,0-0.013c0-0.072-0.087-0.125-0.361-0.21l-0.109-0.034
		c-0.063-0.019-0.121-0.039-0.18-0.061c0,0.011,0,0.022,0,0.033c-0.002,0.145-0.079,0.26-0.118,0.309v0.177l-0.03-0.139
		l-0.053,0.054l-0.013-0.085c-0.008-0.05-0.042-0.19-0.113-0.24c-0.03-0.015-0.066-0.026-0.066-0.026
		c-0.011,0-0.055-0.015-0.104-0.037c-0.017-0.005-0.033-0.013-0.053-0.022c-0.049,0.104-0.118,0.177-0.207,0.222l-0.035,0.063
		c-0.069,0.125-0.168,0.203-0.289,0.232c-0.011,0.019-0.022,0.034-0.022,0.034c-0.038,0.063-0.088,0.107-0.148,0.136
		c-0.061,0.041-0.162,0.109-0.162,0.109c-0.108,0.075-0.226,0.112-0.358,0.112c-0.085,0-0.168-0.015-0.237-0.03
		C8.619,23.009,8.559,23,8.506,23.001c-0.182,0.011-0.363,0.083-0.443,0.147c0.02,0.033,0.041,0.082,0.046,0.141v0.007
		c0,0,0,0.019,0,0.03c0,0.076-0.027,0.151-0.077,0.214c-0.055,0.069-0.135,0.113-0.22,0.126c0.008,0.035,0.036,0.08,0.053,0.099
		l0.041,0.056L7.84,23.836c0,0-0.028,0.003-0.066,0.003c-0.091,0-0.255-0.026-0.344-0.208c-0.017-0.034-0.017-0.067-0.017-0.101
		c0-0.026,0.006-0.054,0.017-0.089c-0.003-0.009-0.006-0.019-0.008-0.03c-0.058,0.004-0.116,0-0.168-0.026
		c-0.008,0.022-0.021,0.067-0.03,0.134v0.007l-0.008,0.045L7.17,23.561c0,0-0.201-0.06-0.239-0.301c0-0.011,0-0.019,0-0.03
		c0-0.074,0.038-0.148,0.107-0.21c0.003-0.028,0.011-0.052,0.022-0.076l-0.025-0.022c0,0-0.107-0.104-0.115-0.29
		c0-0.033,0.006-0.063,0.008-0.078c0.022-0.104,0.11-0.175,0.232-0.199c0.06-0.063,0.137-0.106,0.222-0.114
		c0.179-0.019,0.345,0.104,0.377,0.279c0.008,0.003,0.03,0.019,0.08,0.019c0.031,0,0.066-0.006,0.105-0.015
		c0.085-0.021,0.19-0.065,0.294-0.126c0.353-0.203,0.532-0.444,0.551-0.472c0.027-0.044,0.038-0.074,0.038-0.101
		c0-0.037-0.035-0.082-0.1-0.158c-0.101-0.128-0.236-0.296-0.344-0.597c-0.005-0.02-0.011-0.037-0.016-0.052
		c-0.142,0.1-0.279,0.106-0.306,0.106h-0.08l0.041-0.065c0,0,0.149-0.231,0.045-0.389c-0.072-0.108-0.08-0.246-0.025-0.369
		C8.084,20.209,8.189,20.1,8.442,20.1c0.017,0,0.031,0,0.047,0c0.215-0.26,0.539-0.326,0.636-0.341
		c0.184-0.028,0.394-0.105,0.522-0.16c-0.23-0.135-0.421-0.297-0.553-0.47c-0.061,0.01-0.124,0.019-0.19,0.027
		c0.022,0.028,0.055,0.063,0.107,0.111l0.174,0.153l-0.217,0.083c-0.044,0.017-0.1,0.028-0.154,0.028
		c-0.083,0-0.201-0.022-0.308-0.119c-0.017,0.005-0.028,0.011-0.028,0.011c-0.039,0.014-0.083,0.02-0.129,0.02
		c-0.088,0-0.251-0.028-0.358-0.201l-0.061-0.102c-0.024-0.042-0.045-0.065-0.063-0.069c-0.182-0.038-0.331-0.083-0.402-0.101
		l-0.17-0.052c-0.1-0.034-0.204-0.053-0.287-0.053c-0.017,0-0.031,0-0.042,0c0,0.055-0.013,0.103-0.036,0.149
		c-0.039,0.08-0.11,0.143-0.195,0.174c-0.083,0.027-0.171,0.027-0.251-0.003c0,0.024,0.003,0.055,0.014,0.113l0.011,0.066
		L6.45,19.348c-0.097-0.019-0.278-0.118-0.289-0.341c0-0.024,0.003-0.049,0.008-0.066c0.013-0.063,0.046-0.118,0.099-0.16
		c0-0.01,0.005-0.021,0.008-0.03l0,0c-0.052-0.025-0.096-0.061-0.132-0.108c-0.028,0.02-0.069,0.053-0.103,0.114l-0.035,0.068
		l-0.038-0.066c-0.028-0.047-0.075-0.125-0.075-0.254c0-0.068,0.019-0.118,0.036-0.148c0.02-0.044,0.052-0.079,0.097-0.104H5.388
		c-0.05,0-0.091-0.042-0.091-0.091v-1.974c0-0.027,0.014-0.055,0.036-0.072c0.021-0.017,0.283-0.217,0.297-0.229l0,0
		c0,0,0.017-0.011,0.025-0.013c0.129-0.053,0.258-0.099,0.391-0.136h0.014c0.011-0.173,0.152-0.308,0.326-0.308
		c0.077,0,0.147,0.021,0.204,0.061c0.066-0.077,0.165-0.124,0.275-0.124c0.102,0,0.192,0.035,0.256,0.099
		c0.061-0.049,0.143-0.078,0.237-0.078c0.195,0,0.353,0.157,0.353,0.35c0,0.014,0,0.025,0,0.037l0.179,0.055l0.02,0.011l0.28,0.201
		c0.025,0.02,0.039,0.044,0.039,0.074v0.515c0,0,0.019,0.017,0.033,0.024c0.061-0.167,0.223-0.448,0.608-0.448
		c0.062,0,0.127,0.008,0.193,0.022c-0.014-0.059-0.022-0.114-0.022-0.163c0-0.025,0-0.047,0.005-0.071
		c-0.069-0.003-0.132-0.02-0.187-0.045c-0.14-0.068-0.229-0.187-0.253-0.347c-0.052-0.352,0.259-0.602,0.272-0.611l0.069-0.055
		v0.088c0,0,0,0.286,0.125,0.41c-0.028-0.055-0.044-0.114-0.05-0.168c0-0.011,0-0.022,0-0.033c0-0.05,0.011-0.099,0.033-0.146
		c-0.022-0.042-0.036-0.091-0.036-0.137c0-0.056,0.017-0.105,0.047-0.149c0.08-0.111,0.322-0.143,0.743-0.111
		c0.114-0.043,0.309-0.043,0.592,0.006c0.077-0.124,0.204-0.198,0.344-0.201h0.006c0.055,0,0.11,0.011,0.162,0.033
		c0.059-0.005,0.113-0.014,0.113-0.014c0.166-0.02,0.184-0.022,0.35-0.103c0.223-0.132,0.325-0.316,0.325-0.319l0.042-0.074
		l0.035,0.077c0,0,0.058,0.132,0.066,0.294c0.003,0.096-0.019,0.198-0.069,0.308c0.113-0.033,0.272-0.104,0.336-0.138l0.061-0.03
		V14.6c0,0,0,0.222-0.157,0.448c0.336,0.278,0.375,0.592,0.375,0.606l0.007,0.077h0.02l-0.038,0.066
		c-0.008,0.013-0.188,0.327-0.532,0.33c0.094,0.223,0.32,0.344,0.322,0.344l0.069,0.036l-0.069,0.038c0,0-0.165,0.088-0.317,0.088
		c0.006,0.043,0.008,0.08,0.008,0.115c-0.005,0.391-0.261,0.614-0.272,0.622l-0.058,0.05l-0.011-0.074
		c-0.009-0.053-0.014-0.088-0.017-0.113l-0.005,0.017c-0.006,0.02-0.008,0.039-0.008,0.055c0.002,0.144,0.16,0.26,0.223,0.3
		c0.039-0.066,0.083-0.132,0.137-0.198c-0.021-0.061-0.052-0.154-0.052-0.237c0-0.063,0.011-0.129,0.033-0.195
		c0.061-0.174,0.204-0.325,0.396-0.413c0.355-0.166,0.358-0.347,0.358-0.35v-0.097l0.069,0.063c0,0,0.033,0.031,0.061,0.08
		c0.18-0.25,0.473-0.29,0.642-0.29c0.066,0,0.109,0.006,0.109,0.006l0.094,0.014l-0.072,0.061c0,0-0.312,0.261-0.316,0.484
		c0,0,0,0.006,0,0.011v0.008c0.004,0.058,0.007,0.11,0.007,0.166c0,0.033,0,0.063-0.003,0.096c0.072-0.03,0.157-0.046,0.24-0.046
		c0.113,0,0.209,0.03,0.272,0.085l0.045,0.038v-2.876H5.271L5.28,14.008z M10.73,23.741c0.017,0,0.033,0.002,0.052,0.011h0.008
		c0.028,0.024,0.047,0.052,0.049,0.085c0,0.03-0.007,0.062-0.03,0.084l-0.008,0.007c-0.046,0.026-0.074,0.067-0.08,0.115
		c-0.011,0.078,0.036,0.149,0.11,0.173l0.016,0.006l0.009,0.015c0.017,0.026,0.033,0.099,0.011,0.173
		c0.025-0.005,0.049-0.017,0.063-0.035c0.02-0.026,0.022-0.063,0.008-0.113l-0.008-0.034l0.033-0.013
		c0.047-0.022,0.075-0.063,0.08-0.123c0.007-0.082-0.031-0.134-0.066-0.156c-0.044-0.026-0.047-0.109-0.031-0.175
		c0.017-0.061,0.094-0.264,0.416-0.271h0.006c0.03,0,0.066,0.008,0.107,0.015c0.053,0.007,0.113,0.015,0.176,0.015
		c0.118,0,0.209-0.033,0.278-0.108c-0.02,0-0.038,0.004-0.058,0.004c-0.055,0-0.094-0.011-0.097-0.013l-0.033-0.011l0.005-0.032
		c0.016-0.126,0.144-0.145,0.256-0.164c0.072-0.011,0.129-0.022,0.163-0.045c-0.025,0.004-0.05,0.006-0.074,0.006
		c-0.091,0-0.149-0.021-0.171-0.043L11.905,23.1v-0.022c0.011-0.074,0.097-0.082,0.185-0.089c0.126-0.011,0.229-0.032,0.275-0.117
		c-0.02,0.006-0.039,0.009-0.058,0.009c-0.055,0-0.091-0.022-0.097-0.026l-0.022-0.013v-0.028c0.02-0.119,0.122-0.143,0.209-0.164
		c0.088-0.022,0.174-0.044,0.212-0.147c-0.071,0.021-0.143,0.032-0.198,0.032c-0.083,0-0.104-0.032-0.107-0.06V22.47v-0.002
		c0.005-0.067,0.014-0.125,0.024-0.175c0.014-0.089,0.025-0.149,0-0.182c-0.024-0.032-0.101-0.054-0.236-0.067
		c-0.075-0.009-0.143-0.021-0.204-0.039l-0.045-0.011l0,0c-0.063-0.024-0.173-0.074-0.22-0.171c-0.032-0.065-0.03-0.14,0.006-0.221
		c0.025-0.056,0.063-0.108,0.125-0.167l0.019-0.019l0.025,0.011c0.091,0.037,0.176,0.059,0.25,0.059c0.144,0,0.226-0.07,0.271-0.126
		c-0.011,0-0.02,0-0.028,0c-0.148,0-0.243-0.043-0.294-0.077l-0.08-0.054l0.097-0.021c0.014-0.002,0.03-0.005,0.044-0.005
		c0.129-0.004,0.338-0.034,0.421-0.171c-0.041,0.011-0.093,0.019-0.149,0.019c-0.063,0-0.121-0.011-0.167-0.033l-0.034-0.019
		l0.011-0.034c0.034-0.097,0.049-0.214,0.046-0.346v-0.046l0.045,0.003c0.032,0,0.063,0.002,0.096,0.002
		c0.174,0,0.414-0.031,0.586-0.178c0.126-0.111,0.195-0.271,0.195-0.463c0-0.157-0.038-0.303-0.115-0.441l-0.014-0.024l0.017-0.022
		c0.038-0.052,0.151-0.243-0.02-0.404c-0.049-0.047-0.096-0.075-0.144-0.097c-0.08-0.041-0.148-0.08-0.189-0.204
		c-0.014,0.06-0.008,0.137,0.063,0.198c0.141,0.118,0.126,0.198,0.105,0.237l-0.028,0.046l-0.038-0.035
		c-0.099-0.097-0.212-0.183-0.311-0.26c-0.33-0.258-0.449-0.476-0.449-0.833c0-0.163,0.069-0.322,0.201-0.471l0.028-0.031
		l0.031,0.028c0.124,0.107,0.264,0.129,0.358,0.129c0.17,0,0.335-0.077,0.416-0.198c0.055-0.083,0.093-0.177,0.129-0.267
		c0.046-0.119,0.096-0.24,0.181-0.325c-0.115,0.031-0.255,0.102-0.344,0.267l0,0c0,0-0.063,0.1-0.168,0.152l-0.36,0.185l0.316-0.253
		c0.231-0.184,0.234-0.542,0.217-0.737c-0.017-0.163,0.08-0.312,0.16-0.408c-0.287,0.097-0.375,0.328-0.444,0.578
		c-0.03,0.111-0.184,0.198-0.309,0.215l-0.093,0.014l0.052-0.077c0.038-0.055,0.085-0.094,0.107-0.11l0.005-0.006
		c0,0,0.011-0.008,0.017-0.014c0.047-0.041,0.103-0.085,0.113-0.226c-0.056,0.058-0.146,0.126-0.297,0.192
		c-0.14,0.063-0.243,0.168-0.286,0.3c-0.045,0.124-0.031,0.256,0.038,0.38l0.014,0.027l-0.022,0.022
		c-0.19,0.201-0.278,0.401-0.278,0.63c0,0.496,0.212,0.762,0.532,1.008c0.27,0.209,0.576,0.449,0.576,0.828
		c0,0.126-0.036,0.218-0.113,0.286c-0.099,0.086-0.25,0.113-0.358,0.121c-0.09,0-0.192-0.052-0.218-0.181
		c-0.016-0.083-0.084-0.369-0.313-0.579c-0.069-0.071-0.126-0.121-0.183-0.17c-0.159-0.139-0.291-0.251-0.459-0.727l-0.072,0.014
		c0,0-0.432,0.077-0.667-0.262c-0.052,0.056-0.118,0.108-0.204,0.163c0,0-0.005,0.008-0.005,0.039c0,0.066,0.036,0.156,0.047,0.184
		l0.107,0.231l-0.253-0.031c-0.278-0.035-0.405-0.189-0.455-0.278c-0.017-0.031-0.027-0.061-0.038-0.094
		c-0.166,0.16-0.377,0.245-0.589,0.231C9.046,18.877,9,18.889,8.96,18.918c-0.02,0.014-0.036,0.039-0.052,0.069
		c0.091-0.008,0.17-0.021,0.245-0.041l0.031-0.008L9.2,18.963c0.121,0.19,0.376,0.462,0.919,0.668
		c0.812,0.312,0.806,0.576,0.737,0.799v0.011c0,0-0.077,0.207-0.322,0.459c-0.154,0.16-0.297,0.411-0.24,0.636l0.008,0.034
		l-0.031,0.013c-0.087,0.045-0.151,0.097-0.176,0.153c0,0,0,0.005-0.003,0.005c0,0.002,0,0.002,0,0.006
		c-0.022,0.059-0.002,0.121,0.047,0.173c0.017,0.017,0.036,0.033,0.058,0.046c0.021,0.015,0.044,0.026,0.072,0.037
		c0.044,0.019,0.079,0.026,0.079,0.026s0.066,0.017,0.127,0.056c0.013,0.011,0.024,0.019,0.035,0.03
		c-0.008-0.047-0.035-0.097-0.104-0.132s-0.103-0.076-0.103-0.121c0-0.028,0.014-0.069,0.077-0.104l0.028-0.017l0.021,0.021
		c0.061,0.06,0.146,0.111,0.26,0.16c0.074,0.034,0.153,0.063,0.239,0.089h0.005c0.037,0.013,0.069,0.022,0.103,0.034
		c0.247,0.076,0.525,0.164,0.49,0.424c-0.05,0.379-0.518,1.097-0.828,1.056c-0.105-0.015-0.163-0.037-0.188-0.078
		c-0.043-0.074-0.083-0.13-0.149-0.14c-0.043-0.005-0.091,0.009-0.126,0.036l-0.017,0.015l-0.021-0.005
		c-0.074-0.022-0.127-0.017-0.157,0.017c-0.011,0.013-0.02,0.034-0.025,0.048c0.044-0.019,0.091-0.022,0.132-0.007l0.033,0.011
		v0.033c-0.011,0.085,0.052,0.162,0.138,0.173c0.055,0.009,0.11-0.013,0.146-0.052h0.003c0,0,0.038-0.036,0.083-0.036
		c0.033,0,0.063,0.015,0.082,0.045c0.02,0.031,0.02,0.074,0,0.108c-0.019,0.037-0.058,0.056-0.107,0.052
		c-0.129-0.011-0.215,0.043-0.226,0.13c0,0.017,0,0.033,0,0.05l0.005,0.028l-0.025,0.015c-0.043,0.03-0.069,0.06-0.072,0.093
		c0,0.02,0.006,0.041,0.017,0.059c0.02-0.044,0.052-0.08,0.097-0.1l0.022-0.007l0.019,0.015c0.022,0.013,0.048,0.024,0.075,0.026
		c0.005,0,0.014,0,0.022,0c0.08,0,0.148-0.056,0.163-0.139c0-0.009,0-0.021,0-0.032c0-0.026-0.006-0.06,0.016-0.087
		c0.017-0.03,0.047-0.05,0.083-0.05 M7.68,22.955c0.036,0,0.066,0.015,0.091,0.044c0.025,0.03,0.031,0.071,0.02,0.112
		c-0.011,0.037-0.039,0.063-0.071,0.074c-0.069,0.022-0.127,0.104-0.122,0.177c0,0.02,0.009,0.041,0.022,0.061l0.014,0.021
		L7.62,23.466c-0.014,0.024-0.03,0.065-0.017,0.106c0.005,0.011,0.011,0.022,0.022,0.033c0-0.042,0.019-0.082,0.046-0.107
		l0.017-0.019l0.025,0.008c0.02,0.003,0.044,0.007,0.066,0.003c0.088-0.007,0.16-0.089,0.148-0.175
		c-0.003-0.039-0.02-0.07-0.052-0.113c-0.028-0.039-0.017-0.099,0.021-0.143c0.088-0.101,0.341-0.218,0.601-0.234
		c0.075-0.005,0.152,0.011,0.225,0.026c0.066,0.013,0.136,0.022,0.205,0.022c0.055,0,0.104-0.007,0.15-0.022
		C9.029,22.836,9,22.813,8.98,22.788c-0.02-0.03-0.011-0.054-0.011-0.062l0.005-0.013l0.011-0.009
		c0.035-0.024,0.077-0.039,0.132-0.039c0.03,0,0.063,0.005,0.094,0.007c0.03,0.003,0.058,0.009,0.084,0.009
		c0.039,0,0.069-0.009,0.094-0.024c-0.052-0.011-0.085-0.033-0.102-0.061c-0.013-0.024-0.01-0.05-0.002-0.063
		c0.021-0.039,0.066-0.039,0.082-0.039c0.014,0,0.028,0,0.048,0c0.074,0.008,0.189,0.021,0.283-0.087
		c-0.056,0.002-0.094,0.006-0.125,0.006c-0.058,0-0.104-0.004-0.121-0.041l-0.006-0.017l0.006-0.013
		c0.042-0.106,0.14-0.106,0.226-0.108c0.102,0,0.207-0.003,0.284-0.134c-0.058,0-0.1,0.009-0.132,0.011
		C9.759,22.12,9.72,22.12,9.685,22.1l-0.049-0.026l0.041-0.039c0.184-0.173,0.115-0.248-0.02-0.393
		c-0.033-0.037-0.072-0.082-0.107-0.125c-0.069-0.099-0.149-0.258-0.094-0.519v-0.004c0.014-0.037,0.028-0.06,0.028-0.06
		l0.021-0.037l0.037,0.022c0.06,0.035,0.121,0.052,0.175,0.052c0.045,0,0.077-0.011,0.103-0.022
		c-0.044-0.045-0.069-0.091-0.072-0.135c-0.003-0.056,0.028-0.085,0.031-0.088L9.805,20.7l0.031,0.022
		c0.077,0.061,0.149,0.094,0.218,0.094c0.03,0,0.055-0.006,0.074-0.014c-0.028-0.031-0.059-0.074-0.067-0.126
		c-0.007-0.059,0.011-0.113,0.056-0.166c0.049-0.06,0.132-0.088,0.242-0.088c0.111,0,0.215,0.028,0.268,0.045
		c0.03-0.056,0.093-0.188,0.027-0.303c-0.08-0.138-0.259-0.209-0.376-0.256c-0.02-0.008-0.039-0.013-0.056-0.021
		c-0.109-0.047-0.302-0.135-0.363-0.16c-0.079,0.039-0.41,0.187-0.699,0.229c-0.09,0.014-0.399,0.077-0.564,0.327l-0.013,0.022
		H8.556c-0.039-0.008-0.074-0.011-0.108-0.011c-0.084,0-0.195,0.017-0.23,0.094c-0.033,0.072-0.005,0.141,0.024,0.22
		c0.028,0.072,0.061,0.159,0.047,0.259c0.035-0.039,0.066-0.1,0.049-0.183c-0.017-0.082-0.008-0.14,0.025-0.178
		c0.021-0.028,0.055-0.041,0.096-0.041h0.055l-0.008,0.049c-0.028,0.146-0.005,0.315,0.061,0.507
		c0.093,0.273,0.22,0.426,0.311,0.539C9,21.708,9.084,21.813,8.949,22.035c-0.008,0.013-0.198,0.284-0.591,0.519l0,0l-0.022,0.013
		c-0.124,0.069-0.24,0.117-0.341,0.143c-0.055,0.015-0.105,0.019-0.151,0.019c-0.157,0-0.246-0.082-0.258-0.16
		c-0.014-0.082-0.091-0.145-0.18-0.134c-0.052,0.006-0.101,0.036-0.129,0.082l-0.011,0.019H7.24c-0.059,0-0.119,0.022-0.13,0.067
		c0,0.007-0.003,0.017-0.003,0.028c0.036-0.022,0.074-0.039,0.105-0.039H7.25l0.006,0.037c0.014,0.086,0.094,0.142,0.182,0.134
		c0.018-0.002,0.033-0.008,0.046-0.017c0.02-0.013,0.028-0.017,0.061-0.017c0.028,0,0.055,0.011,0.077,0.03
		c0.052,0.043,0.049,0.115,0.017,0.16c-0.033,0.044-0.069,0.048-0.1,0.048l0,0c-0.027,0-0.043-0.011-0.058-0.022
		c-0.02-0.015-0.041-0.028-0.104-0.022c-0.094,0.011-0.166,0.087-0.154,0.175v0.009v0.024l-0.022,0.011
		c-0.052,0.03-0.088,0.073-0.083,0.103c0,0.009,0,0.021,0.005,0.028c0.025-0.039,0.063-0.071,0.111-0.085l0.021-0.007l0.017,0.013
		c0.036,0.03,0.085,0.046,0.135,0.041c0.097-0.011,0.146-0.063,0.154-0.167c0.005-0.063,0.058-0.109,0.121-0.109 M9.698,21.404
		c0,0,0.027,0.03,0.096,0.113c0.042,0.046,0.091,0.099,0.127,0.156l0.005-0.017c0.033-0.075,0.091-0.138,0.171-0.193
		c0-0.011,0-0.026,0-0.041c0-0.16,0.063-0.334,0.171-0.495c-0.025,0.017-0.053,0.034-0.085,0.041
		c-0.028,0.007-0.074,0.022-0.129,0.022c-0.025,0.022-0.069,0.063-0.069,0.063c-0.025,0.022-0.114,0.093-0.265,0.093
		c-0.03,0-0.063-0.001-0.096-0.011c0,0.009,0,0.019,0,0.022c0,0.114,0.038,0.19,0.074,0.242 M10.355,20.595
		c-0.049,0-0.087,0.009-0.101,0.024c-0.006,0.005-0.014,0.017-0.014,0.025c0,0.069,0.11,0.113,0.11,0.113l0.042,0.017
		c0,0,0.005-0.005,0.005-0.008c0.046-0.046,0.087-0.096,0.126-0.146c-0.052-0.013-0.115-0.024-0.171-0.024 M11.303,18.255
		c0.017,0.083,0.036,0.163,0.063,0.239c0.174,0.529,0.289,0.628,0.446,0.763c0.052,0.043,0.115,0.099,0.187,0.176
		c0.267,0.245,0.349,0.581,0.366,0.678c0.002,0.019,0.011,0.029,0.032,0.032c0.111-0.008,0.196-0.035,0.243-0.074
		c0.014-0.011,0.049-0.044,0.049-0.146c0-0.27-0.201-0.445-0.507-0.683c-0.285-0.223-0.577-0.526-0.6-1.09
		c-0.068,0.05-0.165,0.1-0.281,0.108 M8.286,19.012h0.033c0,0,0.146,0.006,0.248,0.185c0.058,0.104,0.141,0.153,0.245,0.153
		c0.008,0,0.014,0,0.022,0c-0.031-0.03-0.058-0.061-0.08-0.087c-0.063-0.028-0.218-0.13-0.207-0.427
		c0.008-0.245,0.138-0.424,0.267-0.54c-0.044,0.003-0.088,0.005-0.138,0.005H8.671c-0.231,0-0.404,0.334-0.404,0.339l-0.033,0.066
		l-0.038-0.061c0,0-0.034-0.049-0.055-0.126l-0.008,0.028v-0.053c-0.005-0.021-0.011-0.047-0.014-0.071
		c-0.234,0.038-0.454,0.049-0.653,0.033c-0.077-0.006-0.207-0.017-0.305-0.049c-0.136-0.045-0.229-0.097-0.275-0.163
		c-0.005-0.005-0.008-0.011-0.011-0.017c-0.003-0.008-0.005-0.011-0.005-0.011c-0.003-0.004-0.006-0.013-0.008-0.019
		c0,0,0,0,0-0.008v-0.005c-0.003-0.011-0.003-0.022-0.003-0.031v-0.006c0,0,0-0.008,0-0.01v-0.011c0,0,0.003-0.008,0.005-0.014
		v-0.005c0.022-0.047,0.017-0.097-0.008-0.144c-0.011-0.022-0.031-0.043-0.052-0.058L6.794,17.9c0,0-0.011-0.005-0.014-0.008
		c-0.017-0.008-0.034-0.014-0.052-0.017c-0.022-0.003-0.05,0-0.071,0.005c-0.011,0.003-0.022,0.008-0.034,0.014l-0.022,0.011
		l-0.019-0.011c-0.058-0.034-0.121-0.041-0.151-0.011c-0.005,0.005-0.011,0.014-0.017,0.022c0.002,0,0.005,0,0.008,0
		c0.039,0,0.077,0.009,0.105,0.021l0.033,0.017L6.546,17.98c-0.016,0.041-0.016,0.085,0,0.126c0.003,0.008,0.008,0.017,0.011,0.025
		l0,0c0,0,0.011,0.019,0.02,0.024c0.005,0.005,0.011,0.011,0.017,0.014c0.006,0.006,0.011,0.011,0.016,0.014l0.005,0.005
		c0,0,0.005,0.006,0.011,0.006c0.025,0.011,0.025,0.011,0.036,0.011c0.003,0,0.008,0,0.011,0l0,0c0.033,0,0.09,0.019,0.11,0.082
		c0.022,0.063-0.02,0.127-0.072,0.146c-0.014,0.005-0.031,0.011-0.044,0.011c-0.028,0-0.047-0.011-0.067-0.021
		c-0.024-0.014-0.032-0.034-0.038-0.05c-0.008-0.022-0.02-0.046-0.077-0.074c-0.024-0.011-0.052-0.019-0.083-0.019
		c-0.066,0-0.124,0.032-0.149,0.087l-0.016,0.028H6.205c-0.06,0-0.107,0.017-0.118,0.043c-0.006,0.008-0.009,0.02-0.011,0.031
		c0.043-0.02,0.099-0.028,0.143-0.017l0.022,0.005l0.008,0.022c0.013,0.046,0.049,0.084,0.096,0.11
		c0.088,0.041,0.166,0.022,0.226-0.063c0.022-0.031,0.058-0.049,0.1-0.049c0.063,0,0.113,0.044,0.121,0.104
		c0.005,0.034-0.008,0.069-0.031,0.094c-0.03,0.032-0.074,0.046-0.115,0.035c-0.011,0-0.022-0.003-0.036-0.003
		c-0.066,0-0.135,0.039-0.162,0.091c-0.011,0.02-0.014,0.042-0.014,0.063v0.025L6.411,18.9c-0.027,0.014-0.061,0.041-0.072,0.083
		c-0.002,0.013-0.002,0.03,0,0.046c0.025-0.036,0.061-0.063,0.103-0.071l0.024-0.006l0.017,0.017
		c0.014,0.017,0.033,0.03,0.052,0.038c0.022,0.011,0.05,0.017,0.075,0.017c0.066,0,0.125-0.036,0.151-0.088
		c0.017-0.035,0.022-0.069,0.014-0.126c-0.002-0.046,0.038-0.097,0.097-0.112c0.102-0.034,0.299-0.014,0.476,0.046
		c0.017,0.005,0.075,0.022,0.168,0.049c0.084,0.025,0.219,0.063,0.388,0.102c0.108,0.024,0.124,0.055,0.181,0.154
		c0.017,0.024,0.034,0.058,0.059,0.096c0.046,0.075,0.11,0.114,0.189,0.116c-0.085-0.102-0.06-0.212-0.06-0.217l0.008-0.034
		L8.286,19.012z M9.263,17.798l0.006,0.143c0,0,0.011,0.306-0.193,0.402c-0.145,0.069-0.374,0.264-0.338,0.564
		C8.79,18.789,8.9,18.674,9.112,18.69c0.011,0,0.025,0,0.035,0l0,0c0.3,0,0.584-0.272,0.642-0.62l0.034-0.189l0.049,0.188
		c0,0,0.058,0.222-0.008,0.365c-0.021,0.047-0.021,0.132,0.022,0.212c0.046,0.085,0.132,0.143,0.246,0.174
		c-0.037-0.105-0.077-0.297,0.055-0.383c0.176-0.116,0.294-0.231,0.292-0.424c0-0.013,0-0.021,0-0.021h0.082c0,0,0,0.013,0,0.019
		c0,0.036,0.008,0.157,0.034,0.226c0.038,0.103,0.135,0.195,0.234,0.249c-0.042-0.072-0.069-0.174-0.034-0.295
		c0.003-0.014,0.011-0.025,0.025-0.044c0.035-0.046,0.098-0.138,0.098-0.264v-0.286L11,17.87c0,0.008,0.066,0.207,0.272,0.207
		c0.022,0,0.044,0,0.066-0.006c-0.087-0.049-0.264-0.181-0.236-0.448c0.008-0.072,0.006-0.154-0.005-0.207l0.083-0.02
		c0,0,0.052,0.16,0.22,0.168c-0.071-0.083-0.136-0.215-0.085-0.375c0.017-0.052,0.033-0.091,0.047-0.126
		c0.036-0.085,0.058-0.14,0.044-0.286l-0.011-0.102l0.077,0.066c0,0,0.107,0.091,0.153,0.245c0.036-0.102,0.066-0.264,0.008-0.452
		c-0.011-0.027-0.021-0.083,0.008-0.118l0.025-0.028l0.03,0.02c0.044,0.031,0.088,0.041,0.138,0.038
		c-0.082-0.082-0.209-0.244-0.231-0.497l-0.005-0.067l0.063,0.025c0.155,0.058,0.292,0.049,0.405-0.031
		c-0.072-0.013-0.163-0.043-0.231-0.115c-0.066-0.072-0.096-0.166-0.087-0.284v-0.027l0.027-0.011c0.005,0,0.11-0.044,0.234-0.044
		c0.03,0,0.06,0.003,0.088,0.008c-0.058-0.085-0.168-0.212-0.334-0.297l-0.055-0.027l0.049-0.042
		c0.094-0.079,0.148-0.162,0.182-0.219c-0.195,0.084-0.347,0.112-0.449,0.082l-0.061-0.019l0.039-0.05
		c0.076-0.096,0.165-0.239,0.176-0.404c-0.052,0.049-0.124,0.113-0.201,0.149c-0.16,0.077-0.218,0.094-0.335,0.107
		c0.035,0.056,0.077,0.146,0.074,0.273c-0.005,0.225-0.215,0.363-0.363,0.363c-0.031,0-0.058-0.005-0.08-0.016l-0.141-0.072
		l0.157-0.008c0.132-0.006,0.236-0.132,0.233-0.281c0-0.152-0.112-0.272-0.248-0.272h-0.005c-0.102,0-0.192,0.077-0.229,0.187
		l-0.011,0.035l-0.038-0.007c-0.083-0.017-0.292-0.056-0.452-0.056c-0.106,0-0.146,0.017-0.162,0.028l-0.014,0.011H9.813
		c0,0-0.154-0.017-0.309-0.017c-0.27,0-0.308,0.041-0.311,0.046c-0.017,0.025-0.014,0.05-0.008,0.069
		c0.031-0.002,0.083-0.005,0.121,0l0.174,0.025l-0.168,0.058c-0.094,0.033-0.138,0.097-0.129,0.196
		c0.005,0.082,0.06,0.156,0.104,0.209c0.025-0.053,0.091-0.111,0.243-0.149c0.058-0.014,0.118-0.022,0.176-0.022
		c0.138,0,0.253,0.041,0.328,0.115c0.063,0.066,0.091,0.151,0.088,0.256v0.044c0.009-0.135-0.017-0.259-0.017-0.259l-0.041-0.212
		l0.118,0.181c0.229,0.353-0.047,0.548-0.049,0.548L10,16.047l0.072-0.146c0.022-0.047,0.036-0.102,0.044-0.157l-0.005-0.006
		c-0.055,0.199-0.27,0.271-0.441,0.271c-0.008,0-0.02,0-0.028,0c-0.013,0-0.024,0-0.038-0.002H9.571c0,0-0.013-0.006-0.021-0.008
		c-0.061-0.011-0.119-0.034-0.163-0.061c-0.028-0.017-0.052-0.039-0.071-0.062l0,0l-0.011-0.013
		c-0.003-0.002-0.005-0.008-0.011-0.014c-0.021,0.017-0.055,0.046-0.074,0.097c-0.03,0.076-0.024,0.181,0.022,0.305
		c0.039-0.09,0.113-0.178,0.234-0.178c0.022,0,0.044,0,0.066,0.008c0.094,0.021,0.178,0.049,0.264,0.077
		c0.091,0.03,0.18,0.058,0.256,0.072h0.008c0.014,0.001,0.031,0.004,0.044,0.007c0.006,0,0.014,0,0.02,0h0.005c0,0,0.008,0,0.014,0
		c0.003,0,0.009,0,0.011,0h0.014c0.124,0,0.242-0.046,0.338-0.132l0.223-0.19l-0.16,0.246c-0.027,0.043-0.181,0.255-0.493,0.255
		c-0.077,0-0.16-0.014-0.245-0.042c-0.019,0.105-0.083,0.243-0.237,0.243c-0.052,0-0.112-0.017-0.179-0.049l-0.036-0.02
		c-0.038-0.02-0.077-0.038-0.118-0.058v0.021l-0.017-0.03c-0.143-0.066-0.292-0.124-0.432-0.124c-0.146,0-0.267,0.066-0.364,0.204
		c0.039-0.008,0.086-0.014,0.135-0.014c0.111,0,0.195,0.033,0.254,0.097c0.019,0.021,0.03,0.041,0.044,0.066
		c0,0,0,0.003,0.002,0.005h0.014l-0.011,0.006c0.008,0.013,0.017,0.03,0.031,0.052l0.027,0.044l-0.049,0.017c0,0-0.036,0.006-0.08,0
		c-0.025,0-0.055,0-0.088,0c-0.055,0-0.093,0.003-0.115,0.011c-0.052,0.017-0.1,0.046-0.144,0.088l-0.011,0.027H8.454
		c-0.041,0.042-0.072,0.091-0.096,0.132c0.049-0.016,0.109-0.03,0.176-0.03c0.047,0,0.091,0.009,0.129,0.019
		c0.037,0.011,0.075,0.022,0.119,0.03l0.14,0.028l-0.133,0.052c-0.299,0.115-0.404,0.361-0.439,0.501
		c0.206-0.151,0.407-0.201,0.581-0.146l0.093,0.03l-0.088,0.047c-0.038,0.021-0.071,0.036-0.104,0.044
		c-0.246,0.069-0.518,0.347-0.548,0.606c0.078-0.08,0.212-0.182,0.382-0.176c0.226,0.005,0.432-0.075,0.504-0.195l0.072-0.121
		L9.263,17.798z M10.97,18.253c-0.003,0.014-0.006,0.03-0.006,0.041c0.014,0.201,0.204,0.314,0.207,0.314l0.046,0.024
		c-0.008-0.024-0.017-0.052-0.027-0.079c-0.036-0.108-0.062-0.218-0.08-0.329c-0.008-0.002-0.017-0.005-0.025-0.008
		c-0.025-0.01-0.046-0.024-0.069-0.038c-0.017,0.028-0.033,0.049-0.043,0.069C10.973,18.247,10.973,18.247,10.97,18.253
		 M5.478,18.073h0.716c0-0.019,0-0.079,0.014-0.146c-0.143,0.006-0.333,0.028-0.507,0.085c-0.027,0.011-0.058,0.006-0.083-0.011
		c-0.021-0.016-0.038-0.044-0.038-0.075v-1.774c-0.052,0.038-0.085,0.066-0.108,0.082v1.839l0,0H5.478z M11.281,17.721
		c0.002,0.088,0.061,0.154,0.171,0.196c0.063,0.024,0.102,0.038,0.138,0.046c0.011-0.085,0.03-0.168,0.063-0.248
		c-0.052,0.014-0.124,0.031-0.206,0.031C11.386,17.746,11.331,17.738,11.281,17.721 M7.25,17.721c0.163,0,0.331,0.03,0.504,0.094
		v-1.831l-0.017-0.005c-0.027-0.009-0.058-0.017-0.082-0.025H7.645c-0.036,0.05-0.083,0.088-0.137,0.111
		c-0.008,0.011-0.028,0.041-0.066,0.124l-0.006,0.011c0,0-0.008,0.02-0.02,0.028c-0.02,0.019-0.049,0.03-0.077,0.024
		c-0.046-0.008-0.063-0.043-0.071-0.06c-0.041-0.088-0.063-0.121-0.072-0.132c-0.006-0.007-0.006-0.007,0,0H7.188
		c-0.017-0.011-0.033-0.02-0.052-0.031c-0.038,0.039-0.085,0.064-0.129,0.086H6.998c0,0-0.036,0.039-0.083,0.137
		C6.907,16.268,6.887,16.29,6.857,16.3v0.868c0.005-0.033,0.028-0.058,0.055-0.072C6.896,17.047,6.887,17,6.887,16.953
		c0-0.245,0.185-0.445,0.411-0.445c0.225,0,0.41,0.201,0.41,0.445c0,0.047-0.008,0.094-0.025,0.143
		c0.039,0.014,0.063,0.05,0.063,0.091c0,0.052-0.043,0.097-0.096,0.097H7.531c-0.035,0-0.069-0.02-0.084-0.05
		c-0.017-0.033-0.017-0.069,0.005-0.099c0.041-0.066,0.063-0.125,0.063-0.179c0-0.141-0.097-0.253-0.218-0.253
		c-0.122,0-0.217,0.112-0.217,0.253c0,0.055,0.019,0.11,0.063,0.179c0.02,0.027,0.02,0.066,0.003,0.096
		c-0.02,0.034-0.049,0.05-0.085,0.05h-0.11c-0.047,0-0.085-0.034-0.094-0.08v0.525l0,0c0.025,0.011,0.046,0.028,0.071,0.047
		c0.069-0.025,0.176-0.05,0.319-0.05 M5.761,16.031v1.784c0.177-0.041,0.347-0.061,0.512-0.061h0.028l0,0
		c0.075-0.072,0.19-0.091,0.305-0.046c0.028-0.008,0.056-0.011,0.085-0.014v-1.572c0,0-0.005-0.011-0.008-0.014
		c-0.044-0.024-0.079-0.052-0.107-0.085c-0.017,0.008-0.034,0.017-0.049,0.025c-0.014,0.02-0.053,0.08-0.085,0.144l-0.008,0.014
		c-0.022,0.03-0.052,0.033-0.069,0.033c-0.049,0-0.077-0.038-0.085-0.063c-0.017-0.049-0.041-0.109-0.052-0.129
		c-0.055-0.03-0.1-0.075-0.129-0.126c-0.008,0-0.02,0.005-0.03,0.008c-0.103,0.03-0.204,0.066-0.303,0.104 M8.217,17.38v0.243
		c0.03-0.1,0.079-0.212,0.165-0.317c-0.066,0.025-0.129,0.055-0.165,0.078 M8.217,16.881v0.157c0.019-0.041,0.044-0.083,0.075-0.121
		C8.267,16.907,8.242,16.893,8.217,16.881 M8.817,15.315c-0.032,0.067-0.063,0.16-0.041,0.254c0.035,0.163,0.132,0.247,0.289,0.247
		c0.099,0,0.22-0.032,0.358-0.101c0.135-0.066,0.267-0.103,0.39-0.103c0.077,0,0.144,0.014,0.192,0.031
		c-0.09-0.074-0.187-0.108-0.299-0.108c-0.113,0-0.226,0.034-0.336,0.066c-0.058,0.017-0.118,0.036-0.176,0.047
		c-0.022,0.005-0.044,0.008-0.066,0.008C8.931,15.657,8.851,15.451,8.817,15.315 M11.947,15.588
		c0.005,0.021,0.017,0.038,0.027,0.052c0.08,0.088,0.251,0.097,0.32,0.097c0.022,0,0.033,0,0.035,0h0.037l-0.055-0.045
		c0,0-0.146-0.107-0.306-0.107c-0.02,0-0.041,0-0.061,0.006 M9.704,15.454c0.124,0,0.233,0.035,0.333,0.112
		c-0.011-0.036-0.028-0.069-0.052-0.094c-0.056-0.058-0.152-0.09-0.268-0.09c-0.052,0-0.104,0.006-0.156,0.019
		c-0.127,0.031-0.182,0.077-0.193,0.119c0.111-0.034,0.223-0.063,0.337-0.063 M14.325,22.618l0.039-0.121
		c0.021-0.067,0.11-0.338,0.141-0.43c-0.077-0.054-0.317-0.229-0.375-0.27l-0.105-0.078h0.589c0.031-0.089,0.118-0.368,0.141-0.437
		l0.042-0.125l0.038,0.125c0.022,0.065,0.113,0.348,0.141,0.437h0.581l-0.105,0.078c-0.058,0.041-0.289,0.208-0.366,0.268
		c0.03,0.089,0.119,0.368,0.14,0.435l0.039,0.119l-0.102-0.074c-0.058-0.041-0.292-0.212-0.369-0.266
		c-0.076,0.054-0.308,0.225-0.365,0.266l-0.105,0.078L14.325,22.618z M3.73,22.618l0.039-0.121c0.021-0.067,0.11-0.338,0.141-0.43
		c-0.078-0.054-0.317-0.229-0.372-0.27L3.436,21.72h0.589c0.03-0.089,0.121-0.368,0.14-0.437l0.039-0.125l0.041,0.125
		c0.022,0.065,0.112,0.348,0.143,0.437h0.581l-0.105,0.078c-0.058,0.041-0.289,0.208-0.366,0.268
		c0.031,0.089,0.119,0.368,0.14,0.435l0.039,0.119l-0.102-0.074c-0.058-0.041-0.292-0.212-0.371-0.266
		c-0.077,0.054-0.309,0.225-0.366,0.266L3.733,22.62L3.73,22.618z M10.559,21.676l0.334-0.249c0.335-0.253,0.509-0.504,0.514-0.746
		c0.005-0.254-0.182-0.408-0.182-0.411l-0.217-0.178l0.261,0.107c0,0,0.35,0.148,0.323,0.515c-0.037,0.486-0.628,0.771-0.653,0.784
		l-0.377,0.179H10.559z M8.836,20.802c-0.047,0-0.097-0.005-0.148-0.014l0.008-0.083c0,0,0.005,0,0.017,0
		c0.11,0,0.471-0.03,0.481-0.404v-0.042h0.041c0.006,0,0.529-0.007,0.799-0.138l0.038,0.075c-0.013,0.008-0.341,0.185-0.732,0.231
		C9.312,20.524,9.206,20.802,8.836,20.802 M7.053,18.084h0.979v-1.916c-0.017-0.01-0.043-0.03-0.071-0.052l-0.033-0.024v1.857
		c0,0.031-0.014,0.058-0.039,0.074c-0.03,0.02-0.061,0.02-0.087,0.008c-0.188-0.083-0.369-0.126-0.54-0.126
		c-0.08,0-0.154,0.009-0.226,0.027c0.011,0.036,0.02,0.071,0.02,0.11c0,0.014,0,0.025,0,0.038 M15.313,18.041l-0.104-0.077
		c-0.056-0.041-0.292-0.212-0.369-0.267c-0.077,0.055-0.309,0.223-0.366,0.267l-0.105,0.077l0.039-0.121
		c0.022-0.066,0.109-0.342,0.137-0.43c-0.077-0.056-0.316-0.229-0.375-0.27l-0.104-0.074h0.588c0.031-0.091,0.119-0.369,0.141-0.438
		l0.039-0.124l0.041,0.121c0.022,0.066,0.114,0.347,0.143,0.438h0.579l-0.104,0.075c-0.056,0.041-0.289,0.209-0.366,0.267
		c0.03,0.091,0.118,0.369,0.141,0.435l0.038,0.124L15.313,18.041z M4.633,18.041l-0.104-0.077c-0.058-0.041-0.292-0.212-0.369-0.267
		c-0.077,0.055-0.309,0.223-0.366,0.267l-0.104,0.077l0.041-0.124c0.022-0.066,0.111-0.341,0.138-0.429
		c-0.077-0.055-0.316-0.229-0.374-0.27l-0.105-0.075h0.589c0.03-0.091,0.118-0.369,0.141-0.438l0.038-0.124l0.042,0.124
		c0.021,0.066,0.112,0.347,0.143,0.438h0.583l-0.107,0.077c-0.058,0.041-0.289,0.209-0.366,0.264c0.03,0.091,0.118,0.366,0.14,0.435
		l0.041,0.124V18.041z M6.606,17.278H6.326v-0.094h0.011c0,0-0.003-0.011-0.006-0.017c0-0.008-0.002-0.014-0.005-0.02
		c0-0.005-0.003-0.01-0.006-0.016H6.119c0,0-0.005,0.02-0.008,0.027c0,0.005-0.003,0.011-0.005,0.02h0.008v0.099H5.855v-0.091
		l0.028-0.006l0,0v-0.005c0,0,0.005-0.011,0.008-0.022v-0.007c0.007-0.02,0.016-0.044,0.024-0.072
		c0.008-0.022,0.014-0.042,0.02-0.064l0.022-0.071c0.007-0.022,0.013-0.044,0.021-0.067c0.005-0.019,0.011-0.035,0.017-0.055
		s0.011-0.036,0.017-0.055c0.006-0.019,0.011-0.035,0.017-0.052c0.003-0.014,0.009-0.028,0.01-0.039
		c0.006-0.019,0.011-0.038,0.017-0.052H6.045v-0.097h0.358v0.097h-0.01c0,0,0.007,0.022,0.01,0.036
		c0.005,0.014,0.008,0.028,0.014,0.044c0.006,0.011,0.009,0.028,0.014,0.041c0.005,0.022,0.014,0.044,0.022,0.069
		c0.013,0.042,0.027,0.083,0.041,0.126l0.049,0.148c0.011,0.031,0.02,0.062,0.031,0.085c0,0.006,0.003,0.009,0.006,0.011h0.027v0.1
		l0,0V17.278z M6.172,16.947h0.093l-0.049-0.143l-0.046,0.143H6.172z M9.409,16.373h0.006c0.024,0.013,0.046,0.024,0.068,0.035
		l0.039,0.02c0.039,0.019,0.074,0.03,0.097,0.03c0.008,0,0.014,0,0.017-0.003c0.021-0.013,0.041-0.077,0.043-0.118v-0.011
		c-0.055-0.017-0.11-0.036-0.168-0.046c-0.027-0.006-0.041,0-0.049,0.002C9.439,16.299,9.42,16.334,9.409,16.373 M6.596,15.786
		h0.008c0.035,0,0.071,0.027,0.079,0.066c0.014,0.049,0.036,0.074,0.094,0.104c0.02,0.008,0.039,0.022,0.066,0.071
		c0.031-0.038,0.058-0.06,0.088-0.074c0.063-0.03,0.085-0.049,0.099-0.087c0.014-0.036,0.044-0.059,0.077-0.061c0,0,0.003,0,0.005,0
		c0.034,0,0.063,0.019,0.077,0.049c0.009,0.017,0.02,0.022,0.066,0.044l0.017,0.005c0.028,0.011,0.049,0.034,0.074,0.075
		c0.028-0.044,0.052-0.063,0.083-0.075c0.005,0,0.011-0.002,0.014-0.005c0,0,0.005,0,0.005-0.003c0.003,0,0.008-0.005,0.011-0.008
		l0.005-0.005c0,0,0.005-0.005,0.008-0.008l0,0c0,0,0,0,0-0.002l0.006-0.009c0,0,0.002-0.005,0.005-0.005
		c0,0,0.005-0.008,0.008-0.011c0,0,0-0.003,0-0.005c0.003-0.008,0.006-0.014,0.008-0.02c0.003-0.008,0.006-0.016,0.008-0.024v-0.011
		c0,0,0.003-0.005,0.003-0.008c0-0.008,0-0.017,0-0.025c0-0.093-0.077-0.17-0.174-0.17c-0.08,0-0.135,0.029-0.16,0.083
		c-0.016,0.033-0.047,0.052-0.082,0.052c-0.039,0-0.072-0.025-0.083-0.058c-0.028-0.066-0.086-0.103-0.168-0.103
		c-0.088,0-0.151,0.046-0.176,0.129c-0.008,0.033-0.042,0.06-0.077,0.066H6.588c-0.037,0-0.069-0.021-0.083-0.055
		c-0.025-0.063-0.097-0.075-0.135-0.075c-0.08,0-0.146,0.066-0.146,0.146c0,0.008,0,0.014,0,0.022c0,0.005,0,0.011,0.003,0.016
		c0,0.004,0,0.006,0.003,0.011l0,0v0.006l0.011,0.019c0,0,0.002,0.006,0.005,0.009c0,0,0.003,0.005,0.005,0.008l0.019,0.02
		c0,0,0.006,0.004,0.009,0.007c0,0,0.005,0,0.008,0.005c0.005,0.003,0.011,0.006,0.017,0.009c0.021,0.011,0.041,0.028,0.058,0.058
		c0.025-0.036,0.044-0.049,0.063-0.061h0.005c0.052-0.027,0.061-0.033,0.069-0.049c0.014-0.034,0.046-0.055,0.083-0.055
		 M9.59,15.844h0.031l0.027,0.006c0.006,0,0.011,0,0.02,0c0.069,0,0.135-0.017,0.182-0.042C9.773,15.8,9.685,15.811,9.59,15.844
		 M10.395,15.183l-0.124-0.013c0,0-0.177-0.017-0.333-0.017H9.877l-0.006-0.036c0-0.011-0.014-0.104,0.034-0.159
		c0.021-0.025,0.049-0.039,0.085-0.039c0.115,0,0.294,0.163,0.316,0.182l0.091,0.085L10.395,15.183z M9.951,15.07
		c0.069,0,0.135,0.003,0.192,0.009c-0.058-0.042-0.115-0.075-0.153-0.075c-0.014,0-0.02,0.006-0.025,0.008
		c-0.011,0.014-0.014,0.036-0.017,0.058 M15.297,13.541l-0.104-0.077c-0.055-0.042-0.292-0.212-0.369-0.268
		c-0.077,0.056-0.309,0.223-0.367,0.268l-0.104,0.077l0.038-0.125c0.022-0.066,0.111-0.338,0.138-0.429
		c-0.077-0.055-0.316-0.228-0.372-0.27l-0.104-0.077h0.589c0.03-0.09,0.118-0.368,0.141-0.437l0.038-0.122l0.042,0.122
		c0.021,0.066,0.112,0.347,0.142,0.437h0.578l-0.101,0.077c-0.055,0.042-0.289,0.209-0.367,0.267
		c0.031,0.091,0.118,0.366,0.141,0.435l0.038,0.125L15.297,13.541z M3.672,13.541l0.179-0.554L3.372,12.64h0.589
		c0.031-0.09,0.118-0.368,0.141-0.437l0.038-0.125l0.042,0.125c0.022,0.066,0.113,0.347,0.144,0.437h0.581l-0.105,0.077
		c-0.058,0.042-0.289,0.209-0.366,0.265c0.031,0.09,0.119,0.366,0.141,0.434l0.039,0.122L4.14,13.195
		c-0.077,0.056-0.308,0.226-0.366,0.268l-0.105,0.077H3.672z M9.957,13.541l-0.104-0.075c-0.059-0.042-0.292-0.212-0.372-0.268
		l-0.472,0.342l0.042-0.125c0.022-0.066,0.11-0.338,0.141-0.429c-0.077-0.055-0.314-0.228-0.372-0.27L8.713,12.64h0.591l0.182-0.559
		l0.041,0.122c0.022,0.066,0.113,0.347,0.14,0.437h0.581l-0.105,0.077c-0.058,0.042-0.289,0.209-0.365,0.265
		c0.03,0.09,0.118,0.366,0.141,0.434l0.038,0.122V13.541z M2.483,12.089c0.107,0.119,0.311,0.338,0.465,0.509v-0.834
		c-0.167,0.135-0.311,0.233-0.465,0.327 M2.999,11.726h0.985c-0.103-0.135-0.229-0.305-0.328-0.438l-0.077-0.104
		c-0.146,0.166-0.299,0.312-0.52,0.493C3.039,11.693,3.017,11.71,2.999,11.726 M15.465,11.726h0.545v0.567
		c0.185-0.25,0.523-0.651,0.887-0.803c-0.03-0.11-0.071-0.294-0.071-0.493c0-0.168,0.027-0.32,0.085-0.443
		c0.013-0.031,0.038-0.052,0.071-0.061c0.028-0.008,0.064,0,0.091,0.017l0.98,0.702c0.193,0.141,0.237,0.41,0.1,0.603
		c-0.08,0.113-0.207,0.179-0.347,0.179c-0.088,0-0.174-0.028-0.251-0.074c-0.013-0.008-0.027-0.02-0.041-0.031
		c0.028,0.118,0.097,0.226,0.198,0.298c0.088,0.063,0.191,0.093,0.295,0.093c0.166,0,0.32-0.079,0.416-0.212
		c0.043-0.061,0.071-0.126,0.085-0.198c0.005-0.035,0.033-0.066,0.069-0.08c0.035-0.013,0.077-0.005,0.105,0.02l0.184,0.148
		c0.292,0.209,0.534,0.27,0.644,0.251c0.024-0.002,0.041-0.011,0.047-0.022c0.038-0.052-0.066-0.314-0.444-0.584l-0.198-0.124
		c-0.033-0.022-0.052-0.058-0.052-0.094c0-0.038,0.02-0.074,0.052-0.091c0.063-0.036,0.118-0.084,0.163-0.145
		c0.08-0.111,0.11-0.246,0.088-0.38c-0.022-0.135-0.097-0.251-0.208-0.33c-0.052-0.039-0.112-0.067-0.178-0.08
		c0.069,0.077,0.108,0.179,0.108,0.287c0,0.09-0.028,0.176-0.08,0.25c-0.08,0.112-0.207,0.177-0.344,0.177
		c-0.088,0-0.18-0.028-0.26-0.077l-0.979-0.702c-0.022-0.017-0.038-0.042-0.044-0.069c-0.005-0.03,0-0.059,0.019-0.08l0.716-0.997
		c0.02-0.025,0.113-0.144,0.278-0.168c0.127-0.021,0.26,0.017,0.392,0.111c0.107,0.077,0.17,0.178,0.184,0.294
		c0,0.013,0,0.027,0,0.041c0,0.049-0.011,0.099-0.03,0.151c0.066-0.033,0.124-0.085,0.176-0.154
		c0.042-0.055,0.063-0.126,0.063-0.209c0-0.18-0.093-0.35-0.096-0.35c-0.008-0.014-0.174-0.335-0.174-0.796
		c0-0.063,0.006-0.138,0.017-0.217c-0.32,0.154-0.625,0.188-0.832,0.188c-0.097,0-0.163-0.008-0.179-0.011h-0.005
		c0,0-0.063-0.011-0.138-0.011c-0.132,0-0.308,0.028-0.399,0.16c-0.049,0.072-0.077,0.143-0.088,0.215
		c0.055-0.047,0.113-0.075,0.174-0.091c0.11-0.025,0.23,0.003,0.335,0.08c0.138,0.099,0.215,0.215,0.236,0.341
		c0.025,0.166-0.061,0.286-0.076,0.309l-0.716,0.999c-0.017,0.022-0.042,0.039-0.069,0.044c-0.031,0.005-0.058,0-0.08-0.02
		l-0.982-0.705c-0.19-0.154-0.231-0.41-0.097-0.6c0.069-0.094,0.168-0.157,0.284-0.177c0.08-0.014,0.163-0.003,0.237,0.028
		c-0.036-0.059-0.08-0.105-0.135-0.146c-0.088-0.063-0.19-0.094-0.295-0.094c-0.166,0-0.32,0.08-0.413,0.212
		c-0.044,0.061-0.072,0.126-0.085,0.201c-0.008,0.037-0.034,0.066-0.069,0.077c-0.034,0.011-0.077,0.006-0.105-0.02l-0.181-0.148
		c-0.261-0.187-0.484-0.253-0.605-0.253c-0.053,0-0.08,0.011-0.088,0.025c-0.039,0.052,0.066,0.313,0.44,0.583l0.199,0.125
		c0.033,0.021,0.052,0.058,0.052,0.093c0,0.039-0.02,0.074-0.052,0.091c-0.063,0.035-0.119,0.085-0.16,0.146
		c-0.08,0.11-0.11,0.245-0.088,0.38c0.022,0.135,0.094,0.25,0.204,0.33c0.1,0.071,0.22,0.101,0.342,0.091
		c-0.014-0.008-0.025-0.017-0.039-0.028c-0.11-0.091-0.177-0.217-0.177-0.352c0-0.088,0.028-0.174,0.08-0.246
		c0.066-0.093,0.165-0.156,0.281-0.176c0.113-0.02,0.229,0.008,0.325,0.074l0.162,0.115l0.818,0.587
		c0.025,0.02,0.041,0.046,0.043,0.08v0.005c0,0.03-0.01,0.058-0.033,0.077c-0.267,0.25-0.68,0.305-0.881,0.316
		c-0.021,0.33-0.218,0.702-0.399,0.977 M3.634,10.459L3.57,10.54c-0.225,0.289-0.363,0.463-0.754,0.787
		c-0.387,0.322-0.586,0.424-0.917,0.595l-0.008,0.004l-0.072,0.037c-0.027,0.014-0.035,0.083-0.011,0.126
		c0.011,0.022,0.042,0.046,0.071,0.055c0.022,0.005,0.039,0.005,0.053,0l0.077-0.038c0,0,0.112-0.061,0.212-0.113l0.135-0.071
		c0.146-0.085,0.278-0.174,0.43-0.289c0.055-0.045,0.109-0.088,0.167-0.135l0.006-0.006c0.055-0.047,0.112-0.094,0.166-0.14
		c0.14-0.125,0.252-0.237,0.363-0.366c0,0,0.044-0.055,0.096-0.118l0.207-0.257c0,0,0.011-0.017,0.011-0.038
		c0-0.031-0.02-0.063-0.055-0.099c-0.014-0.014-0.039-0.022-0.066-0.022H3.675c-0.017,0-0.031,0.005-0.038,0.011 M1.539,11.346
		c0.037,0.036,0.063,0.066,0.063,0.066l0.272,0.287c0.014-0.008,0.028-0.014,0.042-0.022c0.03-0.017,0.058-0.031,0.088-0.046
		l0.024-0.014c0,0,0.017-0.008,0.025-0.014c0,0,0.006,0,0.008-0.003l0.058-0.032c0,0,0.022-0.011,0.031-0.02
		c0,0,0.005-0.003,0.008-0.006c0.011-0.005,0.025-0.017,0.039-0.025l0.006-0.006c0,0,0.027-0.016,0.041-0.024
		c0,0,0.005-0.003,0.008-0.006c0.014-0.008,0.028-0.017,0.041-0.028h0.005c0.017-0.014,0.031-0.022,0.044-0.032l0.009-0.006
		c0,0,0.019-0.014,0.029-0.02l0.025-0.02c0.014-0.011,0.028-0.019,0.043-0.03l0.063-0.047c0,0,0.005-0.005,0.008-0.007
		c0.008-0.005,0.017-0.014,0.025-0.02l0.017-0.014c0,0,0.014-0.011,0.021-0.017c0.009-0.005,0.014-0.011,0.022-0.017l0.041-0.033
		c0,0,0.028-0.022,0.042-0.036c0.014-0.01,0.025-0.021,0.038-0.03l0.03-0.025c0,0,0.014-0.014,0.022-0.02l0.008-0.008
		c0,0,0.016-0.014,0.024-0.022c0.011-0.008,0.02-0.017,0.028-0.022l0.03-0.027c0,0,0.022-0.02,0.033-0.031
		c0.006-0.005,0.011-0.011,0.017-0.014c0.013-0.011,0.024-0.021,0.035-0.032l0.005-0.006c0,0,0.003-0.002,0.006-0.005l0.038-0.036
		c0,0,0.005-0.006,0.011-0.01l0.033-0.034c0,0,0,0,0.003-0.002c0.014-0.014,0.024-0.028,0.038-0.039l0.042-0.047
		c0,0,0.021-0.024,0.032-0.035v-0.005c0.022-0.022,0.042-0.045,0.061-0.066l0.025-0.028c0,0,0.014-0.017,0.02-0.025l0.043-0.055
		c0,0,0.017-0.021,0.025-0.033l0.03-0.036c-0.041-0.058-0.104-0.144-0.104-0.144l-0.126-0.175c0,0-0.025-0.034-0.056-0.075
		c-0.212,0.242-0.43,0.454-0.718,0.696C2.084,11,1.839,11.172,1.553,11.341 M3.067,9.463c0,0-0.009,0-0.011,0
		c-0.011,0-0.028,0.005-0.037,0.017C2.899,9.634,2.791,9.763,2.681,9.881c-0.173,0.19-0.358,0.366-0.589,0.554
		c-0.305,0.253-0.564,0.433-0.894,0.614c-0.072,0.038-0.141,0.077-0.212,0.112c-0.011,0.006-0.017,0.017-0.022,0.034
		c-0.007,0.027-0.005,0.063,0.008,0.088c0.014,0.024,0.044,0.049,0.077,0.061c0.02,0.005,0.039,0.005,0.046,0l0.163-0.088
		c0.039-0.022,0.068-0.038,0.068-0.038c0.122-0.069,0.231-0.136,0.338-0.205l0.011-0.007c0,0,0.022-0.014,0.034-0.022
		c0.02-0.014,0.038-0.025,0.058-0.039c0.022-0.016,0.043-0.03,0.066-0.046l0.044-0.03c0.017-0.011,0.033-0.025,0.05-0.039
		l0.008-0.006c0,0,0.019-0.017,0.03-0.022c0.011-0.008,0.022-0.016,0.034-0.024l0.013-0.011c0.068-0.055,0.141-0.109,0.217-0.176
		c0.157-0.129,0.292-0.25,0.414-0.368l0.01-0.011c0.025-0.025,0.053-0.052,0.077-0.077l0.008-0.008c0,0,0.006-0.006,0.009-0.009
		c0.028-0.027,0.052-0.055,0.08-0.085c0.006-0.005,0.008-0.008,0.011-0.01c0.052-0.059,0.104-0.119,0.165-0.19
		c0.003-0.005,0.006-0.008,0.008-0.011c0,0,0.022-0.027,0.05-0.061l0.115-0.146c0,0,0.008-0.024,0.008-0.047
		C3.183,9.532,3.163,9.494,3.141,9.477C3.122,9.46,3.091,9.453,3.067,9.453 M0.284,10.162c0.074,0.278,0.19,0.477,0.353,0.589
		c0.132,0.091,0.27,0.11,0.363,0.11c0.044,0,0.08-0.005,0.102-0.008c0.309-0.174,0.554-0.341,0.842-0.581
		c0.217-0.182,0.397-0.35,0.562-0.529c0.146-0.192,0.231-0.335,0.231-0.49c0-0.167-0.099-0.364-0.355-0.699
		C2.26,8.395,2.18,8.228,2.103,8.007C2.06,8.208,2.054,8.315,2.054,8.356c0,0.022,0,0.034,0,0.034c0,0.004,0,0.01,0,0.019
		c0,0.05-0.033,0.091-0.08,0.105c-0.009,0-0.017,0.003-0.025,0.003c-0.046,0-0.084-0.031-0.101-0.075
		c-0.16-0.495-0.526-0.89-0.779-1.112C1.08,7.44,1.094,7.575,1.094,7.721c0,0.33-0.056,0.598-0.166,0.793
		c-0.1,0.176-0.149,0.355-0.149,0.528c0,0.149,0.038,0.24,0.041,0.243c0.005,0.014,0.008,0.027,0.008,0.041
		c0,0.034-0.014,0.063-0.038,0.083c-0.039,0.03-0.094,0.03-0.129,0C0.584,9.351,0.515,9.224,0.459,9.029
		c-0.061,0.17-0.09,0.333-0.09,0.487c0,0.353,0.149,0.542,0.152,0.545c0.013,0.02,0.021,0.041,0.021,0.066
		c0,0.02-0.005,0.041-0.019,0.061c-0.025,0.039-0.074,0.055-0.119,0.044c-0.041-0.014-0.083-0.036-0.124-0.069"/>
	<path d="M39.414,11.704h-4.005v15.313c0,1.422-0.713,2.137-2.109,2.137c-1.396,0-2.106-0.715-2.106-2.137V11.704H27.04v15.073
		c0,3.77,2.108,5.995,6.172,5.995c4.062,0,6.202-2.225,6.202-5.995V11.704L39.414,11.704z"/>
	<path d="M48.079,11.407c-4.005,0-6.142,2.285-6.142,5.668c0,2.906,1.038,4.687,4.601,6.408c2.818,1.365,3.531,1.811,3.531,3.588
		c0,1.396-0.861,2.198-2.166,2.198c-1.483,0-2.137-0.919-2.137-2.198v-0.918H41.85v0.918c0,3.414,2.048,5.699,6.114,5.699
		c4.065,0,6.26-2.285,6.26-5.786c0-2.968-0.89-4.807-4.54-6.56c-2.788-1.335-3.589-1.811-3.589-3.414
		c0-1.276,0.743-2.105,2.018-2.105c1.453,0,2.048,0.95,2.048,2.254v0.564h3.916v-0.591c0-3.44-1.985-5.729-5.994-5.729"/>
	<path d="M77.519,11.407c-3.916,0-6.113,2.136-6.113,5.995v9.375c0,3.856,2.197,5.995,6.113,5.995c3.919,0,6.084-2.135,6.084-5.995
		v-2.104h-3.916v2.254c0,1.513-0.74,2.346-2.075,2.346s-2.049-0.833-2.049-2.346v-9.673c0-1.515,0.744-2.346,2.049-2.346
		c1.304,0,2.075,0.831,2.075,2.346v1.663h3.916v-1.515C83.603,13.546,81.438,11.407,77.519,11.407"/>
	<polygon points="99.005,11.704 94.851,11.704 94.851,20.132 90.399,20.132 90.399,11.704 86.246,11.704 86.246,32.477 
		90.399,32.477 90.399,23.752 94.851,23.752 94.851,32.477 99.005,32.477 	"/>
	<path d="M23.412,11.704c0.094,0,0.171,0.072,0.171,0.156v20.475c0,0.088-0.077,0.158-0.171,0.158c-0.093,0-0.17-0.072-0.17-0.158
		V11.86C23.242,11.773,23.319,11.704,23.412,11.704"/>
	<path d="M65.44,11.704h-5.609l-4.303,20.772h3.947l0.683-3.769h4.661l0.681,3.769h4.246l-4.302-20.772H65.44z M60.811,25.145
		l1.662-9.287l1.692,9.287h-3.351H60.811z"/>
</g>
</svg>
